<svg width="72" height="73" viewBox="0 0 72 73" fill="none" xmlns="http://www.w3.org/2000/svg">
<path d="M34.272 19.3818C35.712 18.9498 37.296 18.8058 38.88 18.8058" stroke="#E03028" stroke-width="1.5" stroke-miterlimit="13.3333" stroke-linecap="round" stroke-linejoin="round"/>
<path d="M22.68 31.6938C22.464 32.7018 22.32 33.7098 22.32 34.7898" stroke="#E03028" stroke-width="1.5" stroke-miterlimit="13.3333" stroke-linecap="round" stroke-linejoin="round"/>
<path d="M55.008 35.1498L55.584 39.7578L57.816 42.4938C58.248 42.9978 58.104 43.7898 57.6 44.1498L55.08 45.8058L54.432 52.5738C54.288 53.7978 53.28 54.7338 52.056 54.7338H47.016C46.08 54.7338 45.288 55.5258 45.288 56.4618V60.2778C45.288 61.1418 44.568 61.7898 43.776 61.7898H31.32C30.456 61.7898 29.808 61.0698 29.808 60.2778V54.5898C29.808 52.1418 29.088 49.6938 27.72 47.6058C27.36 47.0298 26.928 46.4538 26.424 45.9498" stroke="#E03028" stroke-width="1.5" stroke-miterlimit="13.3333" stroke-linecap="round" stroke-linejoin="round"/>
<path d="M19.08 31.6938H17.28C15.48 31.6938 13.968 30.2538 13.968 28.3818V14.7018C13.968 12.9018 15.408 11.3898 17.28 11.3898H31.032C32.832 11.3898 34.344 12.8298 34.344 14.7018V28.4538C34.344 30.2538 32.904 31.7658 31.032 31.7658H22.68" stroke="#E03028" stroke-width="1.5" stroke-miterlimit="13.3333" stroke-linecap="round" stroke-linejoin="round"/>
<path d="M18.72 26.3658L22.32 16.8618C22.392 16.6458 22.68 16.6458 22.752 16.8618L26.352 26.3658" stroke="#E03028" stroke-width="1.5" stroke-miterlimit="13.3333" stroke-linecap="round" stroke-linejoin="round"/>
<path d="M19.8 23.9898H25.2" stroke="#E03028" stroke-width="1.5" stroke-miterlimit="13.3333" stroke-linecap="round" stroke-linejoin="round"/>
<path d="M29.592 16.7178V26.3658" stroke="#E03028" stroke-width="1.5" stroke-miterlimit="13.3333" stroke-linecap="round" stroke-linejoin="round"/>
<path d="M53.136 25.3578L52.128 24.7818C52.2 24.4218 52.2 24.1338 52.2 23.7738C52.2 23.4138 52.2 23.0538 52.128 22.7658L53.136 22.1898C53.712 21.9018 53.856 21.1818 53.568 20.6058L52.632 18.9498C52.344 18.3738 51.624 18.2298 51.048 18.5178L50.04 19.0938C49.536 18.5898 48.96 18.3018 48.24 18.0138V16.8618C48.24 16.2138 47.736 15.7098 47.088 15.7098H45.144C44.496 15.7098 43.992 16.2138 43.992 16.8618V18.0138C43.344 18.2298 42.768 18.5898 42.192 19.0218L41.184 18.4458C40.608 18.1578 39.96 18.3018 39.6 18.8778L38.664 20.5338C38.376 21.1098 38.52 21.7578 39.096 22.1178L40.104 22.6938C40.032 23.0538 40.032 23.3418 40.032 23.7018C40.032 24.0618 40.032 24.4218 40.104 24.7098L39.096 25.2858C38.52 25.5738 38.376 26.2938 38.664 26.8698L39.6 28.5258C39.888 29.1018 40.608 29.2458 41.184 28.9578L42.192 28.3818C42.696 28.8138 43.344 29.1738 43.992 29.3898V30.5418C43.992 31.1898 44.496 31.6938 45.144 31.6938H47.088C47.736 31.6938 48.24 31.1898 48.24 30.5418V29.3898C48.888 29.1738 49.464 28.8138 50.04 28.3818L51.048 28.9578C51.624 29.2458 52.272 29.1018 52.632 28.5258L53.568 26.8698C53.856 26.3658 53.712 25.6458 53.136 25.3578Z" stroke="#E03028" stroke-width="1.5" stroke-miterlimit="13.3333" stroke-linecap="round" stroke-linejoin="round"/>
<path d="M46.152 26.3658C47.6233 26.3658 48.816 25.1731 48.816 23.7018C48.816 22.2306 47.6233 21.0378 46.152 21.0378C44.6807 21.0378 43.488 22.2306 43.488 23.7018C43.488 25.1731 44.6807 26.3658 46.152 26.3658Z" stroke="#E03028" stroke-width="1.5" stroke-miterlimit="13.3333" stroke-linecap="round" stroke-linejoin="round"/>
<path d="M27 41.1978L26.424 40.9098C26.424 40.6938 26.496 40.5498 26.496 40.3338C26.496 40.1178 26.496 39.9738 26.424 39.7578L27 39.3978C27.288 39.2538 27.432 38.8218 27.216 38.5338L26.64 37.5978C26.496 37.3098 26.064 37.1658 25.776 37.3818L25.2 37.5978C24.912 37.3818 24.552 37.1658 24.192 37.0218V36.3738C24.192 36.0138 23.904 35.7258 23.544 35.7258H22.464C22.104 35.7258 21.816 36.0138 21.816 36.3738V37.0218C21.456 37.1658 21.096 37.3818 20.808 37.5978L20.232 37.3098C19.944 37.1658 19.512 37.2378 19.368 37.5258L18.792 38.4618C18.648 38.7498 18.72 39.1818 19.008 39.3258L19.584 39.6858C19.584 39.9018 19.512 40.0458 19.512 40.2618C19.512 40.4778 19.512 40.6218 19.584 40.8378L19.008 41.1978C18.72 41.3418 18.576 41.7738 18.792 42.0618L19.368 42.9978C19.512 43.2858 19.944 43.4298 20.232 43.2138L20.808 42.8538C21.096 43.0698 21.456 43.2858 21.816 43.4298V44.0778C21.816 44.4378 22.104 44.7258 22.464 44.7258H23.544C23.904 44.7258 24.192 44.4378 24.192 44.0778V43.4298C24.552 43.2858 24.912 43.0698 25.2 42.8538L25.776 43.2138C26.064 43.3578 26.496 43.2858 26.64 42.9978L27.216 42.0618C27.432 41.7738 27.288 41.4138 27 41.1978Z" stroke="#E03028" stroke-width="1.5" stroke-miterlimit="13.3333" stroke-linecap="round" stroke-linejoin="round"/>
<path d="M36.72 46.1659C40.0602 46.1659 42.768 43.4581 42.768 40.1179C42.768 36.7776 40.0602 34.0699 36.72 34.0699C33.3798 34.0699 30.672 36.7776 30.672 40.1179C30.672 43.4581 33.3798 46.1659 36.72 46.1659Z" stroke="#E03028" stroke-width="1.5" stroke-miterlimit="13.3333" stroke-linecap="round" stroke-linejoin="round"/>
<path d="M36.72 43.4298C38.5492 43.4298 40.032 41.947 40.032 40.1178C40.032 38.2887 38.5492 36.8058 36.72 36.8058C34.8908 36.8058 33.408 38.2887 33.408 40.1178C33.408 41.947 34.8908 43.4298 36.72 43.4298Z" stroke="#E03028" stroke-width="1.5" stroke-miterlimit="13.3333" stroke-linecap="round" stroke-linejoin="round"/>
<path d="M34.272 19.3818C35.712 18.9498 37.296 18.8058 38.88 18.8058C39.168 18.8058 39.456 18.8058 39.816 18.8778" stroke="#E03028" stroke-width="1.5" stroke-miterlimit="13.3333" stroke-linecap="round" stroke-linejoin="round"/>
<path d="M22.32 35.7258C22.32 35.4378 22.32 35.0778 22.32 34.7898C22.32 33.7098 22.464 32.7018 22.68 31.6938" stroke="#E03028" stroke-width="1.5" stroke-miterlimit="13.3333" stroke-linecap="round" stroke-linejoin="round"/>
<path d="M31.824 43.6458L27.72 47.6059C27.36 47.0299 26.928 46.4538 26.424 45.9498C25.704 45.1578 25.128 44.2938 24.552 43.3578" stroke="#E03028" stroke-width="1.5" stroke-miterlimit="13.3333" stroke-linecap="round" stroke-linejoin="round"/>
<path d="M55.008 35.1498H40.176" stroke="#E03028" stroke-width="1.5" stroke-miterlimit="13.3333" stroke-linecap="round" stroke-linejoin="round"/>
<path d="M53.136 27.5898C53.784 28.8138 54.288 30.1818 54.576 31.5498" stroke="#E03028" stroke-width="1.5" stroke-miterlimit="13.3333" stroke-linecap="round" stroke-linejoin="round"/>
<path d="M54.72 49.0459H50.76" stroke="#E03028" stroke-width="1.5" stroke-miterlimit="13.3333" stroke-linecap="round" stroke-linejoin="round"/>
</svg>
