<svg width="40" height="40" viewBox="0 0 40 40" fill="none" xmlns="http://www.w3.org/2000/svg">
<g clip-path="url(#clip0_1890_8499)">
<path d="M37.4028 10.3346H35.0199L35.7185 3.2766C35.7875 2.58014 35.2769 1.95745 34.5805 1.8885L32.4541 1.67806C31.7163 1.60437 31.6036 2.7461 32.3411 2.8191L34.4674 3.02954C34.5348 3.03619 34.5841 3.09643 34.5774 3.1637L33.378 15.2806H32.4319L32.0679 8.6171C32.0302 7.9263 31.4228 7.38005 30.7314 7.41896L27.4915 7.59592L27.0599 4.52129C26.9636 3.83531 26.3123 3.34471 25.6265 3.44072L15.0019 4.93209L15.3703 1.21077C15.3742 1.17163 15.4101 1.14373 15.4507 1.1471L29.1926 2.50737C29.9305 2.58091 30.0431 1.43933 29.3056 1.36633L15.5637 0.00605629C14.8932 -0.0605241 14.2955 0.429541 14.2293 1.09779L13.8335 5.09613L6.7024 6.09713C6.03606 6.1907 5.56992 6.80781 5.66318 7.47285L6.06488 10.3347H2.59735C1.40287 10.3347 0.431152 11.3076 0.431152 12.5035V37.8313C0.431152 39.0272 1.40287 40.0001 2.59735 40.0001H6.47002C7.21127 40.0001 7.21127 38.8535 6.47002 38.8535H2.59735C2.03512 38.8535 1.57777 38.3949 1.57777 37.8313V12.5035C1.57777 11.9398 2.03512 11.4812 2.59735 11.4812H7.83457L9.2995 16.0297C9.37578 16.2667 9.59624 16.4273 9.84521 16.4273H38.4225V37.8311C38.4225 38.3948 37.9652 38.8533 37.4029 38.8533H9.83344C9.09219 38.8533 9.09219 39.9999 9.83344 39.9999H37.4028C38.5973 39.9999 39.569 39.027 39.569 37.8311V12.5035C39.569 11.3075 38.5973 10.3346 37.4028 10.3346ZM30.794 8.56382C30.869 8.56672 30.9121 8.60533 30.9231 8.67963L31.2837 15.2806H11.9488L11.643 9.68124C11.6453 9.63721 11.6685 9.61213 11.7127 9.60602L30.794 8.56382ZM8.80033 10.7396C8.72748 10.503 8.5 10.3347 8.25225 10.3347H7.22274L6.79864 7.31354C6.79321 7.27464 6.8215 7.23832 6.86178 7.23267L14.2738 6.19223C14.2828 6.19352 14.2916 6.19536 14.3007 6.19628C14.3199 6.19819 14.339 6.19911 14.3579 6.19911C14.4417 6.19911 14.5217 6.1803 14.5944 6.1472L25.7861 4.57626C25.861 4.57282 25.9072 4.6076 25.9246 4.68067L26.3426 7.65868L11.6503 8.46116C10.9866 8.49739 10.4619 9.07919 10.4982 9.74377L10.8006 15.2807H10.263L8.80033 10.7396ZM34.5303 15.2807L34.9064 11.4813H37.4028C37.9651 11.4813 38.4224 11.9399 38.4224 12.5035V15.2808L34.5303 15.2807Z" fill="#ED1C24"/>
<path d="M30.5932 34.2618C30.9099 34.2618 31.1666 34.0051 31.1666 33.6885V28.4536C31.1666 28.1369 30.9099 27.8802 30.5932 27.8802H9.40729C9.09067 27.8802 8.83398 28.1369 8.83398 28.4536V33.6885C8.83398 34.0051 9.09067 34.2618 9.40729 34.2618H30.5932ZM9.9806 29.0269H30.0199V33.1152H9.9806V29.0269Z" fill="#ED1C24"/>
<path d="M27.0088 30.4977H12.991C12.2497 30.4977 12.2497 31.6444 12.991 31.6444H27.0088C27.7501 31.6444 27.7501 30.4977 27.0088 30.4977Z" fill="#ED1C24"/>
</g>
<defs>
<clipPath id="clip0_1890_8499">
<rect width="40" height="40" fill="white"/>
</clipPath>
</defs>
</svg>
