<svg width="49" height="49" viewBox="0 0 49 49" fill="none" xmlns="http://www.w3.org/2000/svg">
<g clip-path="url(#clip0_5380_13903)">
<mask id="mask0_5380_13903" style="mask-type:luminance" maskUnits="userSpaceOnUse" x="0" y="0" width="49" height="49">
<path d="M49 0H0V49H49V0Z" fill="white"/>
</mask>
<g mask="url(#mask0_5380_13903)">
<path d="M24.9805 48.4512C38.2353 48.4512 48.9805 37.706 48.9805 24.4512C48.9805 11.1963 38.2353 0.451172 24.9805 0.451172C11.7256 0.451172 0.980469 11.1963 0.980469 24.4512C0.980469 37.706 11.7256 48.4512 24.9805 48.4512Z" fill="black" fill-opacity="0.05"/>
<path d="M33.5724 25.149C33.9623 24.7579 33.9614 24.1247 33.5704 23.7348L27.1975 17.3797C26.8064 16.9898 26.1732 16.9907 25.7833 17.3817C25.3933 17.7728 25.3942 18.406 25.7853 18.7959L31.45 24.4448L25.8011 30.1096C25.4112 30.5007 25.4121 31.1339 25.8031 31.5238C26.1942 31.9138 26.8274 31.9129 27.2173 31.5219L33.5724 25.149ZM20.9981 24.4595V25.4595H20.9995L20.9981 24.4595ZM32.8629 23.4429L20.9967 23.4595L20.9995 25.4595L32.8657 25.4429L32.8629 23.4429ZM20.9981 23.4595H15.0156V25.4595H20.9981V23.4595Z" fill="#E03028"/>
</g>
</g>
<defs>
<clipPath id="clip0_5380_13903">
<rect width="49" height="49" fill="white"/>
</clipPath>
</defs>
</svg>
