<svg width="72" height="73" viewBox="0 0 72 73" fill="none" xmlns="http://www.w3.org/2000/svg">
<path d="M36 15.3522V24.1362" stroke="#E03028" stroke-width="2" stroke-miterlimit="13.3333" stroke-linecap="round" stroke-linejoin="round"/>
<path d="M23.184 18.3042V20.5362H48.816V18.3042" stroke="#E03028" stroke-width="2" stroke-miterlimit="13.3333" stroke-linecap="round" stroke-linejoin="round"/>
<path d="M12.888 26.5122V28.6002H59.112V26.5122" stroke="#E03028" stroke-width="2" stroke-miterlimit="13.3333" stroke-linecap="round" stroke-linejoin="round"/>
<path d="M39.3715 54.7198L43.5955 62.1118L45.2275 56.0638L51.2755 57.6958L47.3395 50.7838" stroke="#E03028" stroke-width="2" stroke-miterlimit="13.3333" stroke-linecap="round" stroke-linejoin="round"/>
<path d="M32.6514 54.7198L28.4274 62.1118L26.7954 56.0638L20.7474 57.6958L24.6834 50.7838" stroke="#E03028" stroke-width="2" stroke-miterlimit="13.3333" stroke-linecap="round" stroke-linejoin="round"/>
<path d="M37.4677 24.3977C39.0997 23.7257 41.0198 24.2057 42.1717 25.6457C42.8438 26.5097 43.7077 26.9897 44.7637 27.1817C46.5877 27.4697 47.9317 28.8137 48.2197 30.6377C48.3157 31.6937 48.8917 32.6537 49.7557 33.2297C51.1957 34.2857 51.6757 36.2057 51.0037 37.9337C50.6197 38.8937 50.6197 39.9497 51.0037 40.9097C51.6757 42.5417 51.1957 44.4617 49.7557 45.6137C48.8917 46.2857 48.4117 47.1497 48.2197 48.2057C47.9317 50.0297 46.5877 51.3737 44.7637 51.6617C43.7077 51.7577 42.7477 52.3337 42.1717 53.1977C41.1157 54.6377 39.1957 55.1177 37.4677 54.4457C36.5077 54.0617 35.4518 54.0617 34.4918 54.4457C32.8598 55.1177 30.9397 54.6377 29.7877 53.1977C29.1157 52.3337 28.2517 51.8537 27.1957 51.6617C25.3717 51.3737 24.0277 50.0297 23.7397 48.2057C23.6437 47.1497 23.0677 46.1897 22.2037 45.6137C20.7637 44.5577 20.2837 42.6377 20.9557 40.9097C21.3397 39.9497 21.3397 38.8937 20.9557 37.9337C20.2837 36.3017 20.7637 34.3817 22.2037 33.2297C23.0677 32.5577 23.5477 31.6937 23.7397 30.6377C24.0277 28.8137 25.3717 27.4697 27.1957 27.1817C28.2517 27.0857 29.2117 26.5097 29.7877 25.6457C30.8437 24.2057 32.7638 23.7257 34.4918 24.3977C35.4518 24.7817 36.5077 24.7817 37.4677 24.3977Z" fill="#F5F5F5" stroke="#E03028" stroke-width="2" stroke-miterlimit="13.3333" stroke-linecap="round" stroke-linejoin="round"/>
<path d="M35.0889 44.3729L30.1929 39.4769L32.7849 36.8849L35.0889 39.1889L39.2169 35.0609L41.8089 37.6529L35.0889 44.3729Z" stroke="#E03028" stroke-width="2" stroke-miterlimit="13.3333" stroke-linecap="round" stroke-linejoin="round"/>
<path d="M32.3394 30.3815C28.5954 31.8215 26.0034 35.4696 26.0034 39.6936C26.0034 45.1655 30.5154 49.6776 35.9874 49.6776C41.4594 49.6776 45.9714 45.1655 45.9714 39.6936C45.9714 35.4696 43.3794 31.8215 39.6354 30.3815" stroke="#E03028" stroke-width="2" stroke-miterlimit="13.3333" stroke-linecap="round" stroke-linejoin="round"/>
<path d="M36 15.4242C37.0339 15.4242 37.872 14.5861 37.872 13.5522C37.872 12.5184 37.0339 11.6802 36 11.6802C34.9661 11.6802 34.128 12.5184 34.128 13.5522C34.128 14.5861 34.9661 15.4242 36 15.4242Z" stroke="#E03028" stroke-width="2" stroke-miterlimit="13.3333" stroke-linecap="round" stroke-linejoin="round"/>
<path d="M12.888 26.5122C13.9219 26.5122 14.76 25.6741 14.76 24.6402C14.76 23.6064 13.9219 22.7682 12.888 22.7682C11.8541 22.7682 11.016 23.6064 11.016 24.6402C11.016 25.6741 11.8541 26.5122 12.888 26.5122Z" stroke="#E03028" stroke-width="2" stroke-miterlimit="13.3333" stroke-linecap="round" stroke-linejoin="round"/>
<path d="M48.816 18.3042C49.8499 18.3042 50.688 17.4661 50.688 16.4322C50.688 15.3984 49.8499 14.5602 48.816 14.5602C47.7821 14.5602 46.944 15.3984 46.944 16.4322C46.944 17.4661 47.7821 18.3042 48.816 18.3042Z" stroke="#E03028" stroke-width="2" stroke-miterlimit="13.3333" stroke-linecap="round" stroke-linejoin="round"/>
<path d="M23.184 18.3042C24.2179 18.3042 25.056 17.4661 25.056 16.4322C25.056 15.3984 24.2179 14.5602 23.184 14.5602C22.1501 14.5602 21.312 15.3984 21.312 16.4322C21.312 17.4661 22.1501 18.3042 23.184 18.3042Z" stroke="#E03028" stroke-width="2" stroke-miterlimit="13.3333" stroke-linecap="round" stroke-linejoin="round"/>
<path d="M59.112 26.5122C60.1459 26.5122 60.984 25.6741 60.984 24.6402C60.984 23.6064 60.1459 22.7682 59.112 22.7682C58.0781 22.7682 57.24 23.6064 57.24 24.6402C57.24 25.6741 58.0781 26.5122 59.112 26.5122Z" stroke="#E03028" stroke-width="2" stroke-miterlimit="13.3333" stroke-linecap="round" stroke-linejoin="round"/>
</svg>
