<svg width="72" height="73" viewBox="0 0 72 73" fill="none" xmlns="http://www.w3.org/2000/svg">
<path d="M26.9996 52.5636C17.7836 50.5476 10.7756 42.2916 10.7756 32.4036C10.7756 20.9796 19.9916 11.7636 31.4156 11.7636C42.8396 11.7636 52.0556 20.9796 52.0556 32.4036C52.0556 37.2996 50.4236 41.7156 47.5436 45.2676" stroke="#E03028" stroke-width="1.5" stroke-miterlimit="13.3333" stroke-linecap="round" stroke-linejoin="round"/>
<path d="M25.1176 18.4903C27.8056 17.2423 30.7816 16.8583 33.7576 17.2423C36.6376 17.6263 39.3256 18.8743 41.4376 20.7943C43.5496 22.6183 45.1816 25.1143 46.0456 27.8023C47.0056 30.7783 47.0056 34.0423 46.0456 36.9223C45.0856 39.8983 43.1656 42.5863 40.6696 44.5063C40.3816 44.6983 40.0936 44.9863 39.7096 45.1783" stroke="#E03028" stroke-width="1.5" stroke-miterlimit="13.3333" stroke-linecap="round" stroke-linejoin="round"/>
<path d="M30.8841 47.6362C28.5801 47.5402 26.1801 46.9642 24.1641 45.8122C22.1481 44.7562 20.4201 43.2202 19.0761 41.3002C17.7321 39.3802 16.7721 37.2682 16.3881 34.9642C16.0041 32.6602 16.1001 30.1642 16.8681 27.8602C17.5401 25.6522 18.6921 23.6362 20.2281 22.0042C20.4201 21.8122 20.6121 21.6202 20.8041 21.4282" stroke="#E03028" stroke-width="1.5" stroke-miterlimit="13.3333" stroke-linecap="round" stroke-linejoin="round"/>
<path d="M31.4136 42.2865C25.9416 42.2865 21.5256 37.8705 21.5256 32.3985C21.5256 26.9265 25.9416 22.5105 31.4136 22.5105C36.8856 22.5105 41.3016 26.9265 41.3016 32.3985C41.3016 37.8705 36.8856 42.2865 31.4136 42.2865Z" stroke="#E03028" stroke-width="1.5" stroke-miterlimit="13.3333" stroke-linecap="round" stroke-linejoin="round"/>
<path d="M31.4136 36.8468C28.9176 36.8468 26.9016 34.8308 26.9016 32.3348C26.9016 29.8388 28.9176 27.8228 31.4136 27.8228C33.9096 27.8228 35.9256 29.8388 35.9256 32.3348C35.9256 34.8308 33.9096 36.8468 31.4136 36.8468Z" stroke="#E03028" stroke-width="1.5" stroke-miterlimit="13.3333" stroke-linecap="round" stroke-linejoin="round"/>
<path d="M59.4502 16.1356L53.7862 20.0716L50.7142 18.9196V15.6556L56.3782 11.7196V14.9836L59.4502 16.1356Z" stroke="#E03028" stroke-width="1.5" stroke-miterlimit="13.3333" stroke-linecap="round" stroke-linejoin="round"/>
<path d="M50.6612 18.839L31.3652 32.375" stroke="#E03028" stroke-width="1.5" stroke-miterlimit="13.3333" stroke-linecap="round" stroke-linejoin="round"/>
<path d="M56.3218 14.9692L58.7218 13.3372" stroke="#E03028" stroke-width="1.5" stroke-miterlimit="13.3333" stroke-linecap="round" stroke-linejoin="round"/>
<path d="M49.2819 62.0262H35.5539" stroke="#E03028" stroke-width="1.5" stroke-miterlimit="13.3333" stroke-linecap="round" stroke-linejoin="round"/>
<path d="M31.1015 50.4745V45.2905H61.2455L61.1495 61.9945H54.1415" stroke="#E03028" stroke-width="1.5" stroke-miterlimit="13.3333" stroke-linecap="round" stroke-linejoin="round"/>
<path d="M41.8138 56.4022C41.3338 55.6342 41.0458 54.6742 41.0458 53.7142C41.0458 50.9302 43.3498 48.6262 46.1338 48.6262C47.8618 48.6262 49.4938 49.4902 50.4538 51.0262C50.9338 51.7942 51.2218 52.7542 51.2218 53.7142C51.2218 56.4982 48.9178 58.8022 46.1338 58.8022C44.4058 58.8022 42.7738 57.9382 41.8138 56.4022Z" stroke="#E03028" stroke-width="1.5" stroke-miterlimit="13.3333" stroke-linecap="round" stroke-linejoin="round"/>
<path d="M35.0676 45.3591C35.0676 47.5671 33.2437 49.3911 31.0357 49.3911V45.3591H35.0676Z" stroke="#E03028" stroke-width="1.5" stroke-miterlimit="13.3333" stroke-linecap="round" stroke-linejoin="round"/>
<path d="M57.1286 62.0262C57.1286 59.8182 58.9527 57.9942 61.1607 57.9942V62.0262H57.1286Z" stroke="#E03028" stroke-width="1.5" stroke-miterlimit="13.3333" stroke-linecap="round" stroke-linejoin="round"/>
<path d="M61.2283 49.3335C59.0203 49.3335 57.1963 47.5095 57.1963 45.3015H61.2283V49.3335Z" stroke="#E03028" stroke-width="1.5" stroke-miterlimit="13.3333" stroke-linecap="round" stroke-linejoin="round"/>
<path d="M27.072 59.1462H18.624V56.2662H27.072V59.1462Z" stroke="#E03028" stroke-width="1.5" stroke-miterlimit="13.3333" stroke-linecap="round" stroke-linejoin="round"/>
<path d="M27.072 62.0262H18.624V59.1462H27.072V62.0262Z" stroke="#E03028" stroke-width="1.5" stroke-miterlimit="13.3333" stroke-linecap="round" stroke-linejoin="round"/>
<path d="M35.52 53.4822H27.072V50.6022H35.52V53.4822Z" stroke="#E03028" stroke-width="1.5" stroke-miterlimit="13.3333" stroke-linecap="round" stroke-linejoin="round"/>
<path d="M35.52 56.3622H27.072V53.4822H35.52V56.3622Z" stroke="#E03028" stroke-width="1.5" stroke-miterlimit="13.3333" stroke-linecap="round" stroke-linejoin="round"/>
<path d="M35.52 59.1462H27.072V56.2662H35.52V59.1462Z" stroke="#E03028" stroke-width="1.5" stroke-miterlimit="13.3333" stroke-linecap="round" stroke-linejoin="round"/>
<path d="M35.52 62.0262H27.072V59.1462H35.52V62.0262Z" stroke="#E03028" stroke-width="1.5" stroke-miterlimit="13.3333" stroke-linecap="round" stroke-linejoin="round"/>
</svg>
