<svg width="72" height="73" viewBox="0 0 72 73" fill="none" xmlns="http://www.w3.org/2000/svg">
<path d="M20.2583 49.1987L20.1469 48.3621C19.8491 46.0887 18.7254 44.0042 16.99 42.5058L12.7786 41.3416C11.5312 41.9686 11.1581 43.7349 11.1581 44.4269L10.8759 59.1954C10.8605 60.0045 11.5129 60.6684 12.3222 60.6671L18.0426 60.6538" stroke="#E03028" stroke-width="1.5" stroke-linecap="round" stroke-linejoin="round"/>
<path d="M60.9319 52.7719L60.6821 44.4269C60.6821 43.7349 60.3105 41.9834 59.0632 41.3563L54.8503 42.5057C53.1148 44.0042 51.9912 46.0886 51.6933 48.3621L51.5813 49.1988" stroke="#E03028" stroke-width="1.5" stroke-linecap="round" stroke-linejoin="round"/>
<path d="M53.9735 60.6538L59.6779 60.6682C60.4932 60.6696 61.148 59.996 61.1237 59.181L61.0383 56.3295" stroke="#E03028" stroke-width="1.5" stroke-linecap="round" stroke-linejoin="round"/>
<path d="M53.9735 60.6538H18.0426V54.3309C18.0426 53.6243 18.6154 53.0515 19.3221 53.0515H52.694C53.4006 53.0515 53.9735 53.6243 53.9735 54.3309V60.6538Z" stroke="#E03028" stroke-width="1.5" stroke-linecap="round" stroke-linejoin="round"/>
<path d="M60.7126 45.4414C60.7608 47.0507 60.1566 48.6101 58.9933 49.723L56.0557 52.5327C55.783 52.7936 55.4469 53.0388 55.0695 53.0388C55.0536 53.0388 52.694 53.0515 52.694 53.0515L43.5861 53.0524V52.2471C43.5861 50.7036 44.8137 49.44 46.3565 49.3951L53.1413 49.1401C53.2521 49.1369 53.3568 49.0892 53.4321 49.0078L56.0066 46.2237" stroke="#E03028" stroke-width="1.5" stroke-linecap="round" stroke-linejoin="round"/>
<path d="M11.1388 45.4427C11.1078 47.059 11.6837 48.6102 12.847 49.7229L15.7846 52.5327C16.0572 52.7935 16.3935 53.0387 16.7708 53.0387L19.322 53.0515L28.2542 53.0524V52.2472C28.2542 50.7036 27.0267 49.4399 25.4838 49.3951L18.6989 49.1401C18.5882 49.1369 18.4834 49.0892 18.4082 49.0079L15.8337 46.2237" stroke="#E03028" stroke-width="1.5" stroke-linecap="round" stroke-linejoin="round"/>
<path d="M47.8555 53.0514V49.3388" stroke="#E03028" stroke-width="1.5" stroke-linecap="round" stroke-linejoin="round"/>
<path d="M23.9847 49.3388V53.0514" stroke="#E03028" stroke-width="1.5" stroke-linecap="round" stroke-linejoin="round"/>
<path d="M31.5865 53.0514V51.1074C31.5865 50.1872 30.8406 49.4412 29.9203 49.4412C29.0001 49.4412 28.2542 50.1872 28.2542 51.1074V53.0514" stroke="#E03028" stroke-width="1.5" stroke-linecap="round" stroke-linejoin="round"/>
<path d="M43.5861 53.0514V51.1074C43.5861 50.1872 42.8401 49.4412 41.92 49.4412C40.9997 49.4412 40.2538 50.1872 40.2538 51.1074V53.0514" stroke="#E03028" stroke-width="1.5" stroke-linecap="round" stroke-linejoin="round"/>
<path d="M53.9735 55.9141H18.0426" stroke="#E03028" stroke-width="1.5" stroke-linecap="round" stroke-linejoin="round"/>
<path d="M11.1555 35.0496L11.3416 33.1108C11.5481 30.9596 13.4595 29.3832 15.6105 29.5898L19.3283 29.9234C20.378 30.0176 21.1433 30.9588 21.0215 32.0057C20.9045 33.0109 20.0103 33.7415 19.0019 33.6556L17.5485 33.5318C16.9613 33.4754 16.4387 33.9036 16.3784 34.4904L16.3672 34.6003C16.3132 35.1263 15.8446 35.5101 15.3182 35.4595C14.9416 35.4233 14.6009 35.7014 14.577 36.079C14.4512 38.0604 12.9859 39.1824 12.9859 39.1824C12.9825 39.1837 10.8782 37.9373 11.1555 35.0496Z" stroke="#E03028" stroke-width="1.5" stroke-linecap="round" stroke-linejoin="round"/>
<path d="M16.9901 42.5057L17.0875 41.5243C17.1298 41.085 17.5203 40.7632 17.9595 40.8059L18.9763 40.9043C19.4722 40.9528 19.9132 40.5896 19.9608 40.0938L20.1134 38.5066C20.1378 38.2523 20.3448 38.054 20.6001 38.0406L21.2152 38.0081C21.6447 37.9855 21.8863 37.5041 21.6478 37.1462L20.9524 36.1024C20.7012 35.7192 20.8421 35.3804 20.8443 35.1106C20.9143 34.3815 20.8078 33.6739 20.5613 33.0308" stroke="#E03028" stroke-width="1.5" stroke-linecap="round" stroke-linejoin="round"/>
<path d="M12.9859 39.1824L12.7786 41.3415" stroke="#E03028" stroke-width="1.5" stroke-linecap="round" stroke-linejoin="round"/>
<path d="M60.4241 34.7599L60.0788 32.7676C59.6957 30.557 57.5929 29.0755 55.3824 29.4587L51.2101 30.182C50.9187 30.2325 50.7267 30.5137 50.7856 30.8034C51.0559 32.1333 52.3348 33.0068 53.6718 32.7751C54.2014 32.6833 54.7053 33.0374 54.7982 33.5668L55.0013 34.7235C55.0942 35.253 55.5983 35.6072 56.1279 35.5153C56.1361 35.514 56.1443 35.5125 56.1525 35.511C56.5446 35.443 56.9087 35.7162 56.9654 36.1101C57.2574 38.1414 58.8547 39.1824 58.8547 39.1824C58.8582 39.1834 60.9386 37.7275 60.4241 34.7599Z" stroke="#E03028" stroke-width="1.5" stroke-linecap="round" stroke-linejoin="round"/>
<path d="M51.6651 32.2524C51.1529 33.0781 50.8963 34.0728 50.996 35.1105C50.9982 35.3804 51.1391 35.7192 50.8878 36.1024L50.1925 37.1462C49.954 37.5041 50.1956 37.9854 50.6251 38.0081L51.2402 38.0405C51.4954 38.054 51.7025 38.2522 51.7269 38.5066L51.8794 40.0938C51.9271 40.5896 52.3681 40.9527 52.8639 40.9043L53.8807 40.8058C54.32 40.7632 54.7105 41.085 54.7527 41.5244L54.8503 42.5057" stroke="#E03028" stroke-width="1.5" stroke-linecap="round" stroke-linejoin="round"/>
<path d="M59.0631 41.3563L58.8544 39.1823" stroke="#E03028" stroke-width="1.5" stroke-linecap="round" stroke-linejoin="round"/>
<path d="M30.0809 23.781C29.9432 24.7071 29.8657 25.6487 29.8657 26.5954C29.8657 32.8993 31.4011 36.6237 32.1507 38.0663C32.3724 38.4931 32.8131 38.7602 33.294 38.7602H38.7221C39.2029 38.7602 39.6437 38.4931 39.8653 38.0663C40.6149 36.6237 42.1505 32.8993 42.1505 26.5954C42.1505 23.6812 41.4153 20.8131 40.4542 18.3066L40.4537 18.306C39.4209 15.6128 38.1274 13.337 37.2021 11.8745C36.6474 10.998 35.3686 10.998 34.8141 11.8745C33.8888 13.337 32.5952 15.6128 31.5624 18.306L31.562 18.3066C31.3217 18.9332 31.0955 19.5824 30.8915 20.2493" stroke="#E03028" stroke-width="1.5" stroke-linecap="round" stroke-linejoin="round"/>
<path d="M30.1747 31.2814L28.4402 32.4681C27.5486 33.0782 27.0256 34.0973 27.0496 35.1773L27.1512 39.721C27.1662 40.39 28.0311 40.6384 28.4036 40.0825C29.13 38.9978 30.2154 37.811 31.7297 37.1728" stroke="#E03028" stroke-width="1.5" stroke-linecap="round" stroke-linejoin="round"/>
<path d="M40.2863 37.1729C41.8007 37.8109 42.886 38.9978 43.6125 40.0824C43.9848 40.6385 44.8499 40.3901 44.8648 39.7211L44.9664 35.1774C44.9905 34.0974 44.4674 33.0781 43.5759 32.4682L41.8413 31.2814" stroke="#E03028" stroke-width="1.5" stroke-linecap="round" stroke-linejoin="round"/>
<path d="M33.3363 38.7603L33.0832 39.4135C32.4348 41.0869 32.7327 42.9793 33.8637 44.3726L35.4936 46.3807C35.7587 46.7073 36.2574 46.7073 36.5226 46.3807L38.1524 44.3726C39.2833 42.9793 39.5813 41.0869 38.9329 39.4135L38.6799 38.7603" stroke="#E03028" stroke-width="1.5" stroke-linecap="round" stroke-linejoin="round"/>
<path d="M31.5622 18.3067H40.454" stroke="#E03028" stroke-width="1.5" stroke-linecap="round" stroke-linejoin="round"/>
<path d="M39.0084 26.6395C39.0084 28.2966 37.6651 29.6398 36.008 29.6398C34.351 29.6398 33.0078 28.2966 33.0078 26.6395C33.0078 24.9825 34.351 23.6392 36.008 23.6392C37.6651 23.6392 39.0084 24.9825 39.0084 26.6395Z" stroke="#E03028" stroke-width="1.5" stroke-linecap="round" stroke-linejoin="round"/>
<path d="M16.209 27.5265C19.0001 22.4654 23.6753 18.5891 29.289 16.843" stroke="#E03028" stroke-width="1.5" stroke-linecap="round" stroke-linejoin="round"/>
<path d="M43.5865 17.1295C48.4905 18.8751 52.6137 22.2667 55.2913 26.6395" stroke="#E03028" stroke-width="1.5" stroke-linecap="round" stroke-linejoin="round"/>
</svg>
