<svg width="72" height="73" viewBox="0 0 72 73" fill="none" xmlns="http://www.w3.org/2000/svg">
<path d="M47.448 23.7703V26.8663C47.448 27.2983 47.952 27.5143 48.312 27.2263L51.192 24.4183L54.072 27.2263C54.36 27.5143 54.936 27.2983 54.936 26.8663V23.7703" stroke="#E03028" stroke-width="1.5" stroke-miterlimit="13.3333" stroke-linecap="round" stroke-linejoin="round"/>
<path d="M48.888 23.7703H46.152C45.072 23.7703 44.136 24.2743 43.56 24.9943" stroke="#E03028" stroke-width="1.5" stroke-miterlimit="13.3333" stroke-linecap="round" stroke-linejoin="round"/>
<path d="M59.616 34.7143V27.1543C59.616 25.2823 58.104 23.7703 56.232 23.7703H53.496" stroke="#E03028" stroke-width="1.5" stroke-miterlimit="13.3333" stroke-linecap="round" stroke-linejoin="round"/>
<path d="M18.432 23.7703H15.696C13.824 23.7703 12.312 25.2823 12.312 27.1543V28.5943" stroke="#E03028" stroke-width="1.5" stroke-miterlimit="13.3333" stroke-linecap="round" stroke-linejoin="round"/>
<path d="M28.44 24.9943C27.792 24.2743 26.856 23.7703 25.848 23.7703H23.112" stroke="#E03028" stroke-width="1.5" stroke-miterlimit="13.3333" stroke-linecap="round" stroke-linejoin="round"/>
<path d="M12.384 32.1223V34.7143" stroke="#E03028" stroke-width="1.5" stroke-miterlimit="13.3333" stroke-linecap="round" stroke-linejoin="round"/>
<path d="M21.6 27.5143L22.968 23.8423" stroke="#E03028" stroke-width="1.5" stroke-miterlimit="13.3333" stroke-linecap="round" stroke-linejoin="round"/>
<path d="M18.576 23.8423L19.944 27.5143" stroke="#E03028" stroke-width="1.5" stroke-miterlimit="13.3333" stroke-linecap="round" stroke-linejoin="round"/>
<path d="M22.752 36.4423L21.6 27.5143H19.944L18.792 36.4423H22.752Z" stroke="#E03028" stroke-width="1.5" stroke-miterlimit="13.3333" stroke-linecap="round" stroke-linejoin="round"/>
<path d="M48.96 36.4422V33.6342C48.96 33.3462 48.744 33.1302 48.456 33.1302H45.576C45.36 33.1302 45.144 32.9862 45.072 32.7702C44.928 32.2662 44.712 31.7622 44.424 31.2582C44.352 31.0422 44.352 30.8262 44.496 30.6822L46.512 28.6662C46.728 28.4502 46.728 28.1622 46.512 27.9462L43.704 25.1382C43.488 24.9222 43.2 24.9222 42.984 25.1382L40.968 27.1542C40.824 27.2982 40.608 27.3702 40.392 27.2262C39.888 27.0102 39.384 26.7942 38.88 26.5782C38.664 26.5062 38.52 26.2902 38.52 26.0742V23.1942C38.52 22.9062 38.304 22.6902 38.016 22.6902H33.984C33.696 22.6902 33.48 22.9062 33.48 23.1942V26.0742C33.48 26.2902 33.336 26.5062 33.12 26.5782C32.616 26.7222 32.112 26.9382 31.608 27.2262C31.392 27.2982 31.176 27.2982 31.032 27.1542L29.016 25.1382C28.8 24.9222 28.512 24.9222 28.296 25.1382L25.488 27.9462C25.272 28.1622 25.272 28.4502 25.488 28.6662L27.504 30.6822C27.648 30.8262 27.72 31.0422 27.576 31.2582C27.36 31.7622 27.144 32.2662 26.928 32.7702C26.856 32.9862 26.64 33.1302 26.424 33.1302H23.544C23.256 33.1302 23.04 33.3462 23.04 33.6342V36.4422H48.96Z" stroke="#E03028" stroke-width="1.5" stroke-miterlimit="13.3333" stroke-linecap="round" stroke-linejoin="round"/>
<path d="M33.048 36.4423H18.216V46.4503H20.88C21.312 46.4503 21.672 46.5943 21.96 46.8823L23.904 48.8263" stroke="#E03028" stroke-width="1.5" stroke-miterlimit="13.3333" stroke-linecap="round" stroke-linejoin="round"/>
<path d="M26.424 51.3463L32.904 57.8263C33.768 58.6903 35.136 58.7623 36 57.8983C36.936 57.0343 36.936 55.5943 36.072 54.6583L31.752 50.3383" stroke="#E03028" stroke-width="1.5" stroke-miterlimit="13.3333" stroke-linecap="round" stroke-linejoin="round"/>
<path d="M34.848 47.1703L40.176 52.4983C41.04 53.3623 41.04 54.8023 40.176 55.6663C39.312 56.5303 37.872 56.5303 37.008 55.6663L31.68 50.3383" stroke="#E03028" stroke-width="1.5" stroke-miterlimit="13.3333" stroke-linecap="round" stroke-linejoin="round"/>
<path d="M34.848 47.1702L41.256 53.5782C42.12 54.4422 43.56 54.4422 44.424 53.5782C45.288 52.7142 45.288 51.2742 44.424 50.4102L38.016 44.0742" stroke="#E03028" stroke-width="1.5" stroke-miterlimit="13.3333" stroke-linecap="round" stroke-linejoin="round"/>
<path d="M15.48 45.4422V45.2262" stroke="#E03028" stroke-width="1.5" stroke-miterlimit="13.3333" stroke-linecap="round" stroke-linejoin="round"/>
<path d="M15.48 42.7783V42.6343" stroke="#E03028" stroke-width="1.5" stroke-miterlimit="13.3333" stroke-linecap="round" stroke-linejoin="round"/>
<path d="M38.016 44.0743L45.504 51.5623C46.368 52.4263 47.808 52.4263 48.672 51.5623C49.536 50.6983 49.536 49.2583 48.672 48.3943L43.344 43.0663" stroke="#E03028" stroke-width="1.5" stroke-miterlimit="13.3333" stroke-linecap="round" stroke-linejoin="round"/>
<path d="M53.784 36.4423H33.048C32.616 36.4423 32.256 36.5863 31.968 36.8743L28.008 40.8343C27.432 41.4103 27.432 42.3463 28.008 42.9223C29.16 44.0743 31.032 44.0743 32.184 42.9223L33.84 41.2663C34.128 40.9783 34.488 40.8343 34.92 40.8343H40.536C40.968 40.8343 41.328 40.9783 41.616 41.2663L48.6 48.2503L50.112 46.7383C50.4 46.4503 50.76 46.3063 51.192 46.3063H53.784" stroke="#E03028" stroke-width="1.5" stroke-miterlimit="13.3333" stroke-linecap="round" stroke-linejoin="round"/>
<path d="M53.784 41.4102V47.0982C53.784 47.6742 54.216 48.1062 54.792 48.1062H60.192C60.768 48.1062 61.2 47.6742 61.2 47.0982V35.7222C61.2 35.1462 60.768 34.7142 60.192 34.7142H54.792C54.216 34.7142 53.784 35.1462 53.784 35.7222V37.8822" stroke="#E03028" stroke-width="1.5" stroke-miterlimit="13.3333" stroke-linecap="round" stroke-linejoin="round"/>
<path d="M10.8 35.7222V47.0982C10.8 47.6742 11.232 48.1062 11.808 48.1062H17.208C17.784 48.1062 18.216 47.6742 18.216 47.0982V35.7222C18.216 35.1462 17.784 34.7142 17.208 34.7142H11.808C11.232 34.7142 10.8 35.2182 10.8 35.7222Z" stroke="#E03028" stroke-width="1.5" stroke-miterlimit="13.3333" stroke-linecap="round" stroke-linejoin="round"/>
<path d="M51.264 24.4183C53.7692 24.4183 55.8 22.3874 55.8 19.8823C55.8 17.3771 53.7692 15.3463 51.264 15.3463C48.7588 15.3463 46.728 17.3771 46.728 19.8823C46.728 22.3874 48.7588 24.4183 51.264 24.4183Z" stroke="#E03028" stroke-width="1.5" stroke-miterlimit="13.3333" stroke-linecap="round" stroke-linejoin="round"/>
<path d="M40.536 36.4422C40.608 36.1542 40.608 35.9382 40.608 35.6502C40.608 33.1302 38.52 31.0422 36 31.0422C33.48 31.0422 31.392 33.1302 31.392 35.6502C31.392 35.9382 31.392 36.1542 31.464 36.4422H40.536Z" stroke="#E03028" stroke-width="1.5" stroke-miterlimit="13.3333" stroke-linecap="round" stroke-linejoin="round"/>
<path d="M20.736 24.4183C23.2411 24.4183 25.272 22.3874 25.272 19.8823C25.272 17.3771 23.2411 15.3463 20.736 15.3463C18.2308 15.3463 16.2 17.3771 16.2 19.8823C16.2 22.3874 18.2308 24.4183 20.736 24.4183Z" stroke="#E03028" stroke-width="1.5" stroke-miterlimit="13.3333" stroke-linecap="round" stroke-linejoin="round"/>
</svg>
