<svg width="72" height="73" viewBox="0 0 72 73" fill="none" xmlns="http://www.w3.org/2000/svg">
<path d="M23.1907 40.5264C23.1907 43.4305 21.6598 46.3731 19.7713 46.3731C17.8828 46.3731 16.3519 43.4305 16.3519 40.5264C16.3519 38.6379 17.8828 37.1069 19.7713 37.1069C21.6598 37.1069 23.1907 38.6379 23.1907 40.5264Z" stroke="#E03028" stroke-width="1.5" stroke-linecap="round" stroke-linejoin="round"/>
<path d="M28.0275 57.4265C28.2945 54.1041 27.1376 50.3071 27.1376 50.3071C24.2251 49.3157 22.1837 48.0229 22.1837 48.0229L19.77 51.5826L17.3484 48.0229C15.7466 49.4765 12.3055 50.3071 12.3055 50.3071C11.0003 54.0151 11.6409 57.4265 11.6409 57.4265H28.0275Z" stroke="#E03028" stroke-width="1.5" stroke-linecap="round" stroke-linejoin="round"/>
<path d="M55.6395 40.5264C55.6395 43.4305 54.1085 46.3731 52.22 46.3731C50.3315 46.3731 48.8006 43.4305 48.8006 40.5264C48.8006 38.6379 50.3315 37.1069 52.22 37.1069C54.1085 37.1069 55.6395 38.6379 55.6395 40.5264Z" stroke="#E03028" stroke-width="1.5" stroke-linecap="round" stroke-linejoin="round"/>
<path d="M60.4763 57.4265C60.7432 54.1041 59.5863 50.3071 59.5863 50.3071C56.6738 49.3157 54.6324 48.0229 54.6324 48.0229L52.2187 51.5826L49.7972 48.0229C48.1953 49.4765 44.7543 50.3071 44.7543 50.3071C43.4491 54.0151 44.0897 57.4265 44.0897 57.4265H60.4763Z" stroke="#E03028" stroke-width="1.5" stroke-linecap="round" stroke-linejoin="round"/>
<path d="M31.2063 42.3929C27.6192 40.7557 25.1263 37.1373 25.1263 32.9367C25.1263 27.1989 29.7777 22.5475 35.5155 22.5475C41.2533 22.5475 45.9047 27.1989 45.9047 32.9367C45.9047 37.1082 43.4462 40.7055 39.899 42.3586" stroke="#E03028" stroke-width="1.5" stroke-linecap="round" stroke-linejoin="round"/>
<path d="M39.7954 42.5934V47.0517C39.7954 49.4235 37.8727 51.3462 35.5009 51.3462C33.1292 51.3462 31.2065 49.4235 31.2065 47.0517V42.5934" stroke="#E03028" stroke-width="1.5" stroke-linecap="round" stroke-linejoin="round"/>
<path d="M31.5515 44.151H39.7954" stroke="#E03028" stroke-width="1.5" stroke-linecap="round" stroke-linejoin="round"/>
<path d="M41.2537 32.4743H40.0458C39.926 31.8694 39.6881 31.307 39.357 30.8122L40.2114 29.9578C40.3806 29.7886 40.3806 29.5143 40.2114 29.3451L39.5474 28.6811C39.3782 28.5119 39.1039 28.5119 38.9347 28.6811L38.0803 29.5355C37.5855 29.2044 37.0231 28.9666 36.4183 28.8467V27.6388C36.4183 27.3995 36.2243 27.2055 35.985 27.2055H35.046C34.8067 27.2055 34.6127 27.3995 34.6127 27.6388V28.8467C34.0078 28.9666 33.4455 29.2044 32.9507 29.5355L32.0963 28.6811C31.9271 28.5119 31.6528 28.5119 31.4836 28.6811L30.8196 29.3451C30.6504 29.5143 30.6504 29.7886 30.8196 29.9578L31.6739 30.8122C31.3429 31.307 31.105 31.8694 30.9851 32.4743H29.7773C29.538 32.4743 29.344 32.6682 29.344 32.9075V33.8465C29.344 34.0858 29.538 34.2798 29.7773 34.2798H30.9851C31.105 34.8847 31.3429 35.447 31.6739 35.9419L30.8196 36.7962C30.6504 36.9654 30.6504 37.2398 30.8196 37.409L31.4836 38.0729C31.6528 38.2421 31.9271 38.2421 32.0963 38.0729L32.9507 37.2186C33.4455 37.5496 34.0078 37.7875 34.6127 37.9074V39.1153C34.6127 39.3545 34.8067 39.5485 35.046 39.5485H35.985C36.2243 39.5485 36.4183 39.3545 36.4183 39.1153V37.9074C37.0231 37.7875 37.5855 37.5496 38.0803 37.2186L38.9347 38.0729C39.1039 38.2421 39.3782 38.2421 39.5474 38.0729L40.2114 37.409C40.3806 37.2398 40.3806 36.9654 40.2114 36.7962L39.357 35.9419C39.6881 35.447 39.926 34.8847 40.0458 34.2798H41.2537C41.493 34.2798 41.687 34.0858 41.687 33.8465V32.9075C41.687 32.6682 41.493 32.4743 41.2537 32.4743Z" stroke="#E03028" stroke-width="1.5" stroke-linecap="round" stroke-linejoin="round"/>
<path d="M37.6131 34.018C37.3387 34.9203 36.5001 35.5769 35.5081 35.5769C34.2931 35.5769 33.3082 34.592 33.3082 33.377C33.3082 32.1621 34.2931 31.1771 35.5081 31.1771C36.4924 31.1771 37.3257 31.8236 37.6066 32.7151" stroke="#E03028" stroke-width="1.5" stroke-linecap="round" stroke-linejoin="round"/>
<path d="M49.6855 31.3956L51.7291 33.2993C51.7291 27.5441 48.7304 22.4892 44.2103 19.6119" stroke="#E03028" stroke-width="1.5" stroke-linecap="round" stroke-linejoin="round"/>
<path d="M53.5804 30.6735L51.729 33.2993" stroke="#E03028" stroke-width="1.5" stroke-linecap="round" stroke-linejoin="round"/>
<path d="M35.754 15.1175V19.4675" stroke="#E03028" stroke-width="1.5" stroke-linecap="round" stroke-linejoin="round"/>
<path d="M29.1301 16.9918L32.2108 20.0629" stroke="#E03028" stroke-width="1.5" stroke-linecap="round" stroke-linejoin="round"/>
<path d="M42.3778 16.9918L39.2971 20.0629" stroke="#E03028" stroke-width="1.5" stroke-linecap="round" stroke-linejoin="round"/>
<path d="M21.9605 31.3956L19.917 33.2993C19.917 27.5441 22.9157 22.4892 27.4358 19.6119" stroke="#E03028" stroke-width="1.5" stroke-linecap="round" stroke-linejoin="round"/>
<path d="M18.0656 30.6735L19.917 33.2993" stroke="#E03028" stroke-width="1.5" stroke-linecap="round" stroke-linejoin="round"/>
</svg>
