<svg width="72" height="73" viewBox="0 0 72 73" fill="none" xmlns="http://www.w3.org/2000/svg">
<path d="M36.1399 58.4728L36.8616 57.1107C37.1851 56.5004 36.9578 55.7433 36.3517 55.412C36.2738 55.3694 36.1932 55.3359 36.1112 55.311" stroke="#E03028" stroke-width="1.5" stroke-linecap="round" stroke-linejoin="round"/>
<path d="M31.6357 58.64L43.0847 49.7028" stroke="#E03028" stroke-width="1.5" stroke-linecap="round" stroke-linejoin="round"/>
<path d="M44.7682 48.3886L48.9356 45.1356C49.3309 44.8271 49.4011 44.2565 49.0926 43.8613L41.2761 33.848C40.9676 33.4527 40.3971 33.3825 40.0018 33.691L20.1109 49.218C19.9946 49.3088 19.9065 49.4222 19.8478 49.5472" stroke="#E03028" stroke-width="1.5" stroke-linecap="round" stroke-linejoin="round"/>
<path d="M25.4413 51.8465L25.0088 51.2924C25.799 50.6756 25.9395 49.5349 25.3227 48.7447L38.2285 38.6703C38.8454 39.4605 39.986 39.601 40.7763 38.9842L43.8998 42.9856C43.1095 43.6024 42.969 44.7431 43.5859 45.5333L30.68 55.6077C30.0631 54.8175 28.9225 54.6769 28.1322 55.2938" stroke="#E03028" stroke-width="1.5" stroke-linecap="round" stroke-linejoin="round"/>
<path d="M17.7153 49.837L21.2785 49.8543C22.2719 49.8591 23.1706 50.4446 23.5764 51.3514C23.794 51.8378 24.168 52.2375 24.6388 52.4869L26.8085 53.6367C27.4371 53.9698 27.6766 54.7494 27.3435 55.378C27.0125 56.0027 26.2397 56.2438 25.6121 55.9182L23.0132 54.5557L30.1316 58.3278C30.7014 58.6298 31.3436 58.7686 31.9873 58.7288L36.2429 58.4663C36.5627 58.4465 36.8698 58.3339 37.1265 58.1422L37.8465 57.6047C38.2622 57.2943 38.8197 57.2512 39.2782 57.4942C40.1194 57.9399 40.2421 59.0955 39.5133 59.708C38.7242 60.3712 37.7588 60.7895 36.7354 60.9117L31.3721 61.5525C30.0917 61.7055 28.7938 61.5058 27.6187 60.9751L21.4247 58.178C20.8209 57.9053 20.1723 57.7459 19.5109 57.7077L17.8127 57.6096" stroke="#E03028" stroke-width="1.5" stroke-linecap="round" stroke-linejoin="round"/>
<path d="M12.6825 56.325V58.5134C12.6825 58.8794 12.9792 59.176 13.3452 59.176H16.9103C17.2763 59.176 17.573 58.8794 17.573 58.5134V49.1235C17.573 48.7575 17.2763 48.4608 16.9103 48.4608H13.3451C12.9791 48.4608 12.6824 48.7575 12.6824 49.1235V54.1892" stroke="#E03028" stroke-width="1.5" stroke-linecap="round" stroke-linejoin="round"/>
<path d="M31.972 46.2589C32.3633 45.9119 33.203 45.7515 33.7976 46.2684C34.1397 46.5658 34.2864 47.0487 34.2217 47.4973C34.1569 47.9459 33.4429 48.6561 33.1511 49.0029C34.1385 48.9705 35.3648 49.0375 36.5429 49.1189" stroke="#E03028" stroke-width="1.5" stroke-linecap="round" stroke-linejoin="round"/>
<path d="M34.0331 44.61L31.0066 47.0313" stroke="#E03028" stroke-width="1.5" stroke-linecap="round" stroke-linejoin="round"/>
<path d="M34.5922 46.0189L32.7917 47.427" stroke="#E03028" stroke-linecap="round" stroke-linejoin="round"/>
<path d="M51.7679 11.2667L43.8997 20.4526H48.2283V38.6703H55.3074V20.4526H59.6361L51.7679 11.2667Z" stroke="#E03028" stroke-width="1.5" stroke-linecap="round" stroke-linejoin="round"/>
<path d="M37.7222 29.7776C33.9509 25.7167 27.6394 25.1114 23.1463 28.546C18.6532 31.9806 17.5815 38.2299 20.5107 42.9345" stroke="#E03028" stroke-width="1.5" stroke-linecap="round" stroke-linejoin="round"/>
<path d="M20.706 40.3362L20.5107 42.9345L18.3713 41.4471" stroke="#E03028" stroke-width="1.5" stroke-linecap="round" stroke-linejoin="round"/>
</svg>
