<svg width="72" height="73" viewBox="0 0 72 73" fill="none" xmlns="http://www.w3.org/2000/svg">
<path d="M24.9839 34.5703V27.4423H28.1519V34.3543" stroke="#E03028" stroke-width="1.5" stroke-miterlimit="13.3333" stroke-linecap="round" stroke-linejoin="round"/>
<path d="M37.584 34.0663V27.4423H40.752V34.4983" stroke="#E03028" stroke-width="1.5" stroke-miterlimit="13.3333" stroke-linecap="round" stroke-linejoin="round"/>
<path d="M31.248 34.6423V24.2743H34.416V34.7143" stroke="#E03028" stroke-width="1.5" stroke-miterlimit="13.3333" stroke-linecap="round" stroke-linejoin="round"/>
<path d="M47.016 34.3543V28.8103" stroke="#E03028" stroke-width="1.5" stroke-miterlimit="13.3333" stroke-linecap="round" stroke-linejoin="round"/>
<path d="M43.848 34.6423V21.1063H47.016V25.4983" stroke="#E03028" stroke-width="1.5" stroke-miterlimit="13.3333" stroke-linecap="round" stroke-linejoin="round"/>
<path d="M21.6 55.8822C20.592 55.3062 20.304 54.0822 20.808 53.1462L22.824 49.6182C23.4 48.6822 24.624 48.3222 25.56 48.8982C26.496 49.4742 26.856 50.6982 26.28 51.6342L24.264 55.1622C23.76 56.1702 22.536 56.4582 21.6 55.8822Z" stroke="#E03028" stroke-width="1.5" stroke-miterlimit="13.3333" stroke-linecap="round" stroke-linejoin="round"/>
<path d="M25.056 57.9703C24.048 57.3943 23.76 56.1703 24.264 55.2343L26.28 51.7063C26.856 50.7703 28.08 50.4103 29.016 50.9863C29.952 51.5623 30.312 52.7863 29.736 53.7223L27.72 57.2503C27.288 58.1863 26.064 58.4743 25.056 57.9703Z" stroke="#E03028" stroke-width="1.5" stroke-miterlimit="13.3333" stroke-linecap="round" stroke-linejoin="round"/>
<path d="M28.584 59.9862C27.576 59.4102 27.288 58.1862 27.792 57.2502L29.808 53.7222C30.384 52.7862 31.608 52.4262 32.544 53.0022C33.48 53.5782 33.84 54.8022 33.264 55.7382L31.248 59.2662C30.816 60.2022 29.592 60.5622 28.584 59.9862Z" stroke="#E03028" stroke-width="1.5" stroke-miterlimit="13.3333" stroke-linecap="round" stroke-linejoin="round"/>
<path d="M32.112 57.9703L33.12 56.3143C33.696 55.3783 34.92 55.0183 35.928 55.5943C36.864 56.1703 37.224 57.3943 36.648 58.4023L35.64 60.0583C35.064 60.9943 33.84 61.3543 32.832 60.7783C31.824 60.2023 31.536 58.9783 32.112 57.9703Z" stroke="#E03028" stroke-width="1.5" stroke-miterlimit="13.3333" stroke-linecap="round" stroke-linejoin="round"/>
<path d="M40.3919 57.8263C41.4719 58.4743 41.8319 59.8423 41.1839 60.9223C40.5359 62.0023 39.168 62.3623 38.088 61.7143L35.424 60.1303" stroke="#E03028" stroke-width="1.5" stroke-miterlimit="13.3333" stroke-linecap="round" stroke-linejoin="round"/>
<path d="M44.568 55.0902C45.648 55.7382 46.008 57.1062 45.36 58.1862C44.712 59.2662 43.344 59.6262 42.264 58.9782L39.024 57.1062" stroke="#E03028" stroke-width="1.5" stroke-miterlimit="13.3333" stroke-linecap="round" stroke-linejoin="round"/>
<path d="M47.16 51.3462C48.24 51.9942 48.6 53.3622 47.952 54.4422C47.304 55.5222 45.936 55.8822 44.856 55.2342L41.04 53.0022" stroke="#E03028" stroke-width="1.5" stroke-miterlimit="13.3333" stroke-linecap="round" stroke-linejoin="round"/>
<path d="M44.64 44.6503L49.968 47.7463C51.048 48.3943 51.408 49.7623 50.76 50.8423C50.112 51.9223 48.744 52.2823 47.664 51.6343L43.776 49.4023" stroke="#E03028" stroke-width="1.5" stroke-miterlimit="13.3333" stroke-linecap="round" stroke-linejoin="round"/>
<path d="M54.864 32.3383L51.336 33.2743C51.336 33.2743 45.792 35.6503 38.376 34.2103C36.792 33.8503 35.064 34.4263 34.272 34.8583L27.216 38.9623C25.992 39.6823 25.56 41.2663 26.28 42.5623C27 43.7863 28.584 44.2183 29.88 43.4983L34.632 40.7623C37.296 43.6423 39.96 45.1543 44.712 44.7943C46.08 45.5863 50.04 47.8903 50.04 47.8903C52.776 47.5303 52.92 47.3863 55.008 45.8023" stroke="#E03028" stroke-width="1.5" stroke-miterlimit="13.3333" stroke-linecap="round" stroke-linejoin="round"/>
<path d="M17.136 45.5863C17.136 45.5863 19.368 46.8103 19.872 47.8183C20.376 48.8983 20.736 51.3463 21.528 51.9223" stroke="#E03028" stroke-width="1.5" stroke-miterlimit="13.3333" stroke-linecap="round" stroke-linejoin="round"/>
<path d="M32.832 35.6503C30.24 33.0583 26.064 35.2903 23.4 34.3543L20.664 33.4903L17.136 32.4103" stroke="#E03028" stroke-width="1.5" stroke-miterlimit="13.3333" stroke-linecap="round" stroke-linejoin="round"/>
<path d="M59.616 41.3383V47.8183H54.864V30.4663H59.616V38.0263" stroke="#E03028" stroke-width="1.5" stroke-miterlimit="13.3333" stroke-linecap="round" stroke-linejoin="round"/>
<path d="M12.384 40.8343V47.8183H17.136V30.4663H12.384V37.5223" stroke="#E03028" stroke-width="1.5" stroke-miterlimit="13.3333" stroke-linecap="round" stroke-linejoin="round"/>
<path d="M26.568 24.2743L32.832 17.9383L36 21.1063L45.432 11.6743" stroke="#E03028" stroke-width="1.5" stroke-miterlimit="13.3333" stroke-linecap="round" stroke-linejoin="round"/>
<path d="M42.264 11.6743H45.432V14.8423" stroke="#E03028" stroke-width="1.5" stroke-miterlimit="13.3333" stroke-linecap="round" stroke-linejoin="round"/>
</svg>
