<svg width="72" height="73" viewBox="0 0 72 73" fill="none" xmlns="http://www.w3.org/2000/svg">
<path d="M32.4712 59.2841L27.1482 51.7924C26.2276 50.4967 26.5797 48.6942 27.9203 47.8402C29.1728 47.0423 30.8313 47.3705 31.6855 48.5854L34.0258 51.9262V34.7507C34.0258 33.4231 35.1021 32.3468 36.4297 32.3468C37.7573 32.3468 38.8335 33.4231 38.8335 34.7507V45.9339V42.241H41.1903C42.3709 42.241 43.328 43.1981 43.328 44.3786V48.3029V44.0973H46.1023C47.2829 44.0973 47.729 44.7494 47.8219 46.235V50.2539V46.9094H49.6049C50.7855 46.9094 51.7426 47.8664 51.7426 49.047V56.1541C51.7426 57.2983 51.3652 58.4105 50.6688 59.3184L50.578 59.4368C49.594 60.7198 48.0692 61.472 46.4523 61.472H36.7098C35.026 61.472 33.4465 60.6566 32.4712 59.2841Z" stroke="#E03028" stroke-width="1.5" stroke-linecap="round" stroke-linejoin="round"/>
<path d="M32.0284 38.2694H29.6361C28.5202 38.2694 27.6155 37.3647 27.6155 36.2487V26.3313C27.6155 25.2153 28.5202 24.3107 29.6361 24.3107H42.5265C43.6424 24.3107 44.5471 25.2153 44.5471 26.3313V36.2487C44.5471 37.3647 43.6424 38.2694 42.5265 38.2694H40.6684" stroke="#E03028" stroke-width="1.5" stroke-linecap="round" stroke-linejoin="round"/>
<path d="M42.422 24.3107V21.0822C42.422 17.5803 39.5832 14.7415 36.0813 14.7415C32.5794 14.7415 29.7406 17.5803 29.7406 21.0822V24.3107" stroke="#E03028" stroke-width="1.5" stroke-linecap="round" stroke-linejoin="round"/>
<path d="M51.7426 18.1151C53.6426 18.1151 55.1828 16.5748 55.1828 14.6748C55.1828 12.7748 53.6426 11.2346 51.7426 11.2346C49.8426 11.2346 48.3023 12.7748 48.3023 14.6748C48.3023 16.5748 49.8426 18.1151 51.7426 18.1151Z" stroke="#E03028" stroke-width="1.5" stroke-linecap="round" stroke-linejoin="round"/>
<path d="M44.5471 26.3313H51.7426V18.1086" stroke="#E03028" stroke-width="1.5" stroke-linecap="round" stroke-linejoin="round"/>
<path d="M57.5424 35.1614C59.4424 35.1614 60.9826 33.6211 60.9826 31.7211C60.9826 29.8211 59.4424 28.2809 57.5424 28.2809C55.6424 28.2809 54.1021 29.8211 54.1021 31.7211C54.1021 33.6211 55.6424 35.1614 57.5424 35.1614Z" stroke="#E03028" stroke-width="1.5" stroke-linecap="round" stroke-linejoin="round"/>
<path d="M54.1021 32.0681H44.5471" stroke="#E03028" stroke-width="1.5" stroke-linecap="round" stroke-linejoin="round"/>
<path d="M20.1903 18.1151C22.0903 18.1151 23.6306 16.5748 23.6306 14.6748C23.6306 12.7748 22.0903 11.2346 20.1903 11.2346C18.2903 11.2346 16.7501 12.7748 16.7501 14.6748C16.7501 16.5748 18.2903 18.1151 20.1903 18.1151Z" stroke="#E03028" stroke-width="1.5" stroke-linecap="round" stroke-linejoin="round"/>
<path d="M27.3858 26.3313H20.1903V18.1086" stroke="#E03028" stroke-width="1.5" stroke-linecap="round" stroke-linejoin="round"/>
<path d="M14.3905 35.1614C16.2905 35.1614 17.8308 33.6211 17.8308 31.7211C17.8308 29.8211 16.2905 28.2809 14.3905 28.2809C12.4905 28.2809 10.9503 29.8211 10.9503 31.7211C10.9503 33.6211 12.4905 35.1614 14.3905 35.1614Z" stroke="#E03028" stroke-width="1.5" stroke-linecap="round" stroke-linejoin="round"/>
<path d="M17.8308 32.0681H27.3858" stroke="#E03028" stroke-width="1.5" stroke-linecap="round" stroke-linejoin="round"/>
</svg>
