<svg width="72" height="73" viewBox="0 0 72 73" fill="none" xmlns="http://www.w3.org/2000/svg">
<path d="M58.224 47.6651H55.6862C55.4344 46.3943 54.9346 45.2128 54.239 44.1731L56.034 42.3781C56.3895 42.0226 56.3895 41.4462 56.034 41.0907L54.6391 39.6957C54.2836 39.3402 53.7072 39.3402 53.3517 39.6957L51.5567 41.4907C50.517 40.7951 49.3355 40.2954 48.0646 40.0435V37.5057C48.0646 37.003 47.6571 36.5954 47.1543 36.5954H45.1815C44.6788 36.5954 44.2712 37.003 44.2712 37.5057V40.0435C43.0003 40.2954 41.8188 40.7951 40.7791 41.4907L38.9841 39.6957C38.6286 39.3402 38.0522 39.3402 37.6967 39.6957L36.3018 41.0907C35.9463 41.4462 35.9463 42.0226 36.3018 42.3781L38.0968 44.1731C37.4013 45.2128 36.9014 46.3943 36.6496 47.6651H34.1118C33.6091 47.6651 33.2014 48.0726 33.2014 48.5755V50.5482C33.2014 51.051 33.6091 51.4586 34.1118 51.4586H36.6496C36.9014 52.7294 37.4013 53.9109 38.0968 54.9506L36.3018 56.7456C35.9463 57.1011 35.9463 57.6775 36.3018 58.033L37.6967 59.428C38.0522 59.7835 38.6286 59.7835 38.9841 59.428L40.7792 57.633C41.8188 58.3285 43.0003 58.8283 44.2712 59.0802V61.6179C44.2712 62.1207 44.6788 62.5282 45.1815 62.5282H47.1543C47.6571 62.5282 48.0646 62.1207 48.0646 61.6179V59.0802C49.3355 58.8283 50.517 58.3285 51.5567 57.633L53.3517 59.428C53.7072 59.7835 54.2836 59.7835 54.6391 59.428L56.0341 58.033C56.3895 57.6775 56.3895 57.1011 56.0341 56.7456L54.239 54.9506C54.9346 53.9109 55.4344 52.7294 55.6863 51.4586H58.224C58.7267 51.4586 59.1344 51.0509 59.1344 50.5482V48.5755C59.1344 48.0726 58.7267 47.6651 58.224 47.6651Z" stroke="#E03028" stroke-width="1.7" stroke-linecap="round" stroke-linejoin="round"/>
<path d="M50.5751 50.9085C49.9986 52.8043 48.2366 54.1838 46.1523 54.1838C43.5997 54.1838 41.5303 52.1145 41.5303 49.5618C41.5303 47.0092 43.5997 44.9398 46.1523 44.9398C48.2204 44.9398 49.9712 46.2981 50.5614 48.1711" stroke="#E03028" stroke-width="1.7" stroke-linecap="round" stroke-linejoin="round"/>
<path d="M33.4524 54.7757H14.1576C12.7728 54.7757 11.6503 53.6531 11.6503 52.2684V26.632C11.6503 25.2472 12.7728 24.1247 14.1576 24.1247H48.3042C49.689 24.1247 50.8115 25.2472 50.8115 26.632V36.7671" stroke="#E03028" stroke-width="1.7" stroke-linecap="round" stroke-linejoin="round"/>
<path d="M36.6175 30.712H25.2938V37.1602H36.6175V30.712Z" stroke="#E03028" stroke-width="1.7" stroke-linecap="round" stroke-linejoin="round"/>
<path d="M11.6503 33.9361H25.2938" stroke="#E03028" stroke-width="1.7" stroke-linecap="round" stroke-linejoin="round"/>
<path d="M36.6175 33.9361H50.6621" stroke="#E03028" stroke-width="1.7" stroke-linecap="round" stroke-linejoin="round"/>
<path d="M21.8731 24.1247V16.4787C21.8731 15.7187 22.4892 15.1026 23.2492 15.1026H38.7801C39.5401 15.1026 40.1562 15.7187 40.1562 16.4787V24.1247" stroke="#E03028" stroke-width="1.7" stroke-linecap="round" stroke-linejoin="round"/>
<path d="M25.1797 24.1247V19.2444C25.1797 18.7593 25.573 18.366 26.0581 18.366H35.9712C36.4563 18.366 36.8496 18.7593 36.8496 19.2444V24.1247" stroke="#E03028" stroke-width="1.7" stroke-linecap="round" stroke-linejoin="round"/>
</svg>
