<svg width="72" height="73" viewBox="0 0 72 73" fill="none" xmlns="http://www.w3.org/2000/svg">
<path d="M46.6793 42.6008C46.6793 36.6523 41.8571 31.83 35.9085 31.83C29.9599 31.83 25.1376 36.6523 25.1376 42.6008C25.1376 42.6008 24.69 46.4408 28.5846 51.7823C31.3732 55.6068 31.8815 57.3322 31.8815 57.3322" stroke="#E03028" stroke-width="2" stroke-linecap="round" stroke-linejoin="round"/>
<path d="M25.122 42.6008C25.122 36.6523 29.9443 31.83 35.8928 31.83C41.8414 31.83 46.6637 36.6523 46.6637 42.6008C46.6637 42.6008 47.1113 46.4408 43.2167 51.7823C40.4281 55.6068 39.9199 57.3322 39.9199 57.3322" stroke="#E03028" stroke-width="2" stroke-linecap="round" stroke-linejoin="round"/>
<path d="M30.5282 61.1471C30.5282 64.1691 32.978 66.6189 36 66.6189C39.022 66.6189 41.4718 64.1691 41.4718 61.1471V57.3322H30.5282V61.1471Z" stroke="#E03028" stroke-width="2" stroke-linecap="round" stroke-linejoin="round"/>
<path d="M30.5282 61.1472H41.4718" stroke="#E03028" stroke-width="2" stroke-linecap="round" stroke-linejoin="round"/>
<path d="M29.9012 45.607H41.4718" stroke="#E03028" stroke-width="2" stroke-linecap="round" stroke-linejoin="round"/>
<path d="M33.1713 42.5975L35.0083 57.0196" stroke="#E03028" stroke-width="2" stroke-linecap="round" stroke-linejoin="round"/>
<path d="M38.6648 42.5975L36.8278 57.0196" stroke="#E03028" stroke-width="2" stroke-linecap="round" stroke-linejoin="round"/>
<path d="M28.5847 29.1395H43.2359L44.8053 22.8358L39.9255 25.473L35.9103 18.5086L32.2463 25.4917L26.8241 23.0424L28.5847 29.1395Z" stroke="#E03028" stroke-width="2" stroke-linecap="round" stroke-linejoin="round"/>
<path d="M45.6022 23.0973C46.4072 23.0973 47.0598 22.4447 47.0598 21.6397C47.0598 20.8347 46.4072 20.1821 45.6022 20.1821C44.7971 20.1821 44.1445 20.8347 44.1445 21.6397C44.1445 22.4447 44.7971 23.0973 45.6022 23.0973Z" stroke="#E03028" stroke-width="2" stroke-linecap="round" stroke-linejoin="round"/>
<path d="M26.4265 23.0973C27.2315 23.0973 27.8841 22.4447 27.8841 21.6397C27.8841 20.8347 27.2315 20.1821 26.4265 20.1821C25.6215 20.1821 24.9689 20.8347 24.9689 21.6397C24.9689 22.4447 25.6215 23.0973 26.4265 23.0973Z" stroke="#E03028" stroke-width="2" stroke-linecap="round" stroke-linejoin="round"/>
<path d="M35.9104 18.5087C36.914 18.5087 37.7276 17.6951 37.7276 16.6915C37.7276 15.6878 36.914 14.8742 35.9104 14.8742C34.9067 14.8742 34.0931 15.6878 34.0931 16.6915C34.0931 17.6951 34.9067 18.5087 35.9104 18.5087Z" stroke="#E03028" stroke-width="2" stroke-linecap="round" stroke-linejoin="round"/>
<path d="M20.7512 36.1378L22.487 34.9958" stroke="#E03028" stroke-width="2" stroke-linecap="round" stroke-linejoin="round"/>
<path d="M17.5222 26.8241L19.5981 26.7356" stroke="#E03028" stroke-width="2" stroke-linecap="round" stroke-linejoin="round"/>
<path d="M19.5349 17.1742L21.3616 18.1643" stroke="#E03028" stroke-width="2" stroke-linecap="round" stroke-linejoin="round"/>
<path d="M26.2176 9.92758L27.2764 11.7153" stroke="#E03028" stroke-width="2" stroke-linecap="round" stroke-linejoin="round"/>
<path d="M35.6733 7.14163L35.6638 9.21938" stroke="#E03028" stroke-width="2" stroke-linecap="round" stroke-linejoin="round"/>
<path d="M45.2175 9.60703L44.1423 11.385" stroke="#E03028" stroke-width="2" stroke-linecap="round" stroke-linejoin="round"/>
<path d="M52.1408 16.6242L50.3052 17.5976" stroke="#E03028" stroke-width="2" stroke-linecap="round" stroke-linejoin="round"/>
<path d="M54.4778 26.2007L52.4028 26.0932" stroke="#E03028" stroke-width="2" stroke-linecap="round" stroke-linejoin="round"/>
<path d="M51.5649 35.618L49.8397 34.4602" stroke="#E03028" stroke-width="2" stroke-linecap="round" stroke-linejoin="round"/>
</svg>
