<svg width="25" height="26" viewBox="0 0 25 26" fill="none" xmlns="http://www.w3.org/2000/svg">
<path d="M4.48542 13.8491C4.48542 14.4491 3.95208 14.9824 3.35208 14.9824C2.75208 14.9824 2.21875 14.4491 2.21875 13.8491C2.21875 13.2491 2.75208 12.7158 3.35208 12.7158C3.95208 12.7158 4.48542 13.2491 4.48542 13.8491Z" stroke="#E03028" stroke-miterlimit="13.3333" stroke-linecap="round" stroke-linejoin="round"/>
<path d="M9.14557 11.4975C9.14557 12.0975 8.61224 12.6309 8.01224 12.6309C7.41224 12.6309 6.87891 12.0975 6.87891 11.4975C6.87891 10.8975 7.41224 10.3642 8.01224 10.3642C8.6789 10.3642 9.14557 10.8975 9.14557 11.4975Z" stroke="#E03028" stroke-miterlimit="13.3333" stroke-linecap="round" stroke-linejoin="round"/>
<path d="M13.8682 6.79537C13.8682 7.39537 13.3349 7.92871 12.7349 7.92871C12.1349 7.92871 11.6016 7.39537 11.6016 6.79537C11.6016 6.19537 12.1349 5.66204 12.7349 5.66204C13.3349 5.66204 13.8682 6.19537 13.8682 6.79537Z" stroke="#E03028" stroke-miterlimit="13.3333" stroke-linecap="round" stroke-linejoin="round"/>
<path d="M18.5284 9.14693C18.5284 9.74693 17.9951 10.2803 17.3951 10.2803C16.7951 10.2803 16.2617 9.74693 16.2617 9.14693C16.2617 8.54693 16.7951 8.0136 17.3951 8.0136C17.9951 8.0136 18.5284 8.54693 18.5284 9.14693Z" stroke="#E03028" stroke-miterlimit="13.3333" stroke-linecap="round" stroke-linejoin="round"/>
<path d="M23.2549 2.09225C23.2549 2.69225 22.7216 3.22559 22.1216 3.22559C21.5216 3.22559 20.9883 2.69225 20.9883 2.09225C20.9883 1.49225 21.5216 0.958919 22.1216 0.958919C22.7883 0.958919 23.2549 1.49225 23.2549 2.09225Z" stroke="#E03028" stroke-miterlimit="13.3333" stroke-linecap="round" stroke-linejoin="round"/>
<path d="M18.0332 8.20898L21.4999 3.00898" stroke="#E03028" stroke-miterlimit="13.3333" stroke-linecap="round" stroke-linejoin="round"/>
<path d="M13.7656 7.31901L16.4323 8.65234" stroke="#E03028" stroke-miterlimit="13.3333" stroke-linecap="round" stroke-linejoin="round"/>
<path d="M8.80664 10.6895L11.94 7.55612" stroke="#E03028" stroke-miterlimit="13.3333" stroke-linecap="round" stroke-linejoin="round"/>
<path d="M4.31445 13.3252L6.98112 11.9919" stroke="#E03028" stroke-miterlimit="13.3333" stroke-linecap="round" stroke-linejoin="round"/>
<path d="M4.54583 18.0107H2.14583C1.94583 18.0107 1.8125 18.1441 1.8125 18.3441V25.0107H4.8125V18.3441C4.87917 18.1441 4.74583 18.0107 4.54583 18.0107Z" stroke="#E03028" stroke-miterlimit="13.3333" stroke-linecap="round" stroke-linejoin="round"/>
<path d="M9.27045 15.6589H6.87044C6.67044 15.6589 6.53711 15.7922 6.53711 15.9922V24.9922H9.53711V15.9922C9.53711 15.7922 9.40378 15.6589 9.27045 15.6589Z" stroke="#E03028" stroke-miterlimit="13.3333" stroke-linecap="round" stroke-linejoin="round"/>
<path d="M13.9286 10.9402H11.5286C11.3286 10.9402 11.1953 11.0735 11.1953 11.2735V25.0068H14.1953V11.2735C14.262 11.0735 14.1286 10.9402 13.9286 10.9402Z" stroke="#E03028" stroke-miterlimit="13.3333" stroke-linecap="round" stroke-linejoin="round"/>
<path d="M1 24.9648H24.4667" stroke="#E03028" stroke-miterlimit="13.3333" stroke-linecap="round" stroke-linejoin="round"/>
<path d="M16.6003 13.3077H16.2669C16.0669 13.3077 15.9336 13.441 15.9336 13.641V25.041H18.9336V13.641C18.9336 13.441 18.8003 13.3077 18.6003 13.3077H18.2669" stroke="#E03028" stroke-miterlimit="13.3333" stroke-linecap="round" stroke-linejoin="round"/>
<path d="M23.6292 14.9609V6.49427C23.6292 6.29427 23.4958 6.16094 23.2958 6.16094H20.8958C20.6958 6.16094 20.5625 6.29427 20.5625 6.49427V24.9609H23.5625V16.6276" stroke="#E03028" stroke-miterlimit="13.3333" stroke-linecap="round" stroke-linejoin="round"/>
</svg>
