<svg width="24" height="25" viewBox="0 0 24 25" fill="none" xmlns="http://www.w3.org/2000/svg">
<mask id="mask0_4621_15222" style="mask-type:alpha" maskUnits="userSpaceOnUse" x="0" y="0" width="24" height="25">
<rect y="0.414307" width="24" height="24" fill="#D9D9D9"/>
</mask>
<g mask="url(#mask0_4621_15222)">
<path d="M8.4 17.4143L12 13.8143L15.6 17.4143L17 16.0143L13.4 12.4143L17 8.81431L15.6 7.41431L12 11.0143L8.4 7.41431L7 8.81431L10.6 12.4143L7 16.0143L8.4 17.4143ZM12 22.4143C10.6167 22.4143 9.31667 22.1518 8.1 21.6268C6.88333 21.1018 5.825 20.3893 4.925 19.4893C4.025 18.5893 3.3125 17.531 2.7875 16.3143C2.2625 15.0976 2 13.7976 2 12.4143C2 11.031 2.2625 9.73097 2.7875 8.51431C3.3125 7.29764 4.025 6.23931 4.925 5.33931C5.825 4.43931 6.88333 3.72681 8.1 3.20181C9.31667 2.67681 10.6167 2.41431 12 2.41431C13.3833 2.41431 14.6833 2.67681 15.9 3.20181C17.1167 3.72681 18.175 4.43931 19.075 5.33931C19.975 6.23931 20.6875 7.29764 21.2125 8.51431C21.7375 9.73097 22 11.031 22 12.4143C22 13.7976 21.7375 15.0976 21.2125 16.3143C20.6875 17.531 19.975 18.5893 19.075 19.4893C18.175 20.3893 17.1167 21.1018 15.9 21.6268C14.6833 22.1518 13.3833 22.4143 12 22.4143ZM12 20.4143C14.2333 20.4143 16.125 19.6393 17.675 18.0893C19.225 16.5393 20 14.6476 20 12.4143C20 10.181 19.225 8.28931 17.675 6.73931C16.125 5.18931 14.2333 4.41431 12 4.41431C9.76667 4.41431 7.875 5.18931 6.325 6.73931C4.775 8.28931 4 10.181 4 12.4143C4 14.6476 4.775 16.5393 6.325 18.0893C7.875 19.6393 9.76667 20.4143 12 20.4143Z" fill="#1C1B1F"/>
</g>
</svg>
