<svg width="27" height="26" viewBox="0 0 27 26" fill="none" xmlns="http://www.w3.org/2000/svg">
<path d="M16.3867 5.39014H20.0367V6.84014H18.7867" stroke="#E03028" stroke-miterlimit="13.3333" stroke-linecap="round" stroke-linejoin="round"/>
<path d="M13.9871 6.84014H12.7871V5.39014H14.9371" stroke="#E03028" stroke-miterlimit="13.3333" stroke-linecap="round" stroke-linejoin="round"/>
<path d="M19.0879 5.39023L20.7379 1.09023L20.4379 0.740234L19.0879 1.79023L17.7379 0.740234L16.3879 1.79023L15.0379 0.740234L13.7379 1.79023L12.3879 0.740234L12.0879 1.09023L13.7879 5.39023" stroke="#E03028" stroke-miterlimit="13.3333" stroke-linecap="round" stroke-linejoin="round"/>
<path d="M20.7871 24.7401H24.4371C25.0371 24.7401 25.5371 24.2401 25.5371 23.6401C25.5371 23.0401 25.0371 22.5401 24.4371 22.5401H24.0871V20.9401C24.0371 15.7901 22.5871 10.8901 18.8371 6.89014H13.9871C10.2371 10.8901 8.78711 15.7901 8.73711 20.9401V22.5401H8.38711C7.78711 22.5401 7.28711 23.0401 7.28711 23.6401C7.28711 24.2401 7.78711 24.7401 8.38711 24.7401H18.7871" stroke="#E03028" stroke-miterlimit="13.3333" stroke-linecap="round" stroke-linejoin="round"/>
<path d="M8.3875 24.7402H1.4375V22.4902H8.7375" stroke="#E03028" stroke-miterlimit="13.3333" stroke-linecap="round" stroke-linejoin="round"/>
<path d="M8.7375 22.5403H2.9375V20.3403H8.7875" stroke="#E03028" stroke-miterlimit="13.3333" stroke-linecap="round" stroke-linejoin="round"/>
<path d="M8.3875 20.2901H1.4375V18.1401H8.7375" stroke="#E03028" stroke-miterlimit="13.3333" stroke-linecap="round" stroke-linejoin="round"/>
<path d="M8.7375 18.1402H2.9375V15.9902H9.2875" stroke="#E03028" stroke-miterlimit="13.3333" stroke-linecap="round" stroke-linejoin="round"/>
<path d="M6.18828 3.54004C6.18828 4.89004 7.28828 5.99004 8.63828 5.99004M6.18828 3.54004C6.18828 4.89004 5.13828 5.99004 3.73828 5.99004M6.18828 3.54004V3.04004M8.63828 5.99004H9.13828M8.63828 5.99004C7.28828 5.99004 6.18828 7.09004 6.18828 8.44004M6.18828 8.44004V8.94004M6.18828 8.44004C6.18828 7.09004 5.08828 5.99004 3.73828 5.99004M3.73828 5.99004H3.23828" stroke="#E03028" stroke-miterlimit="13.3333" stroke-linecap="round" stroke-linejoin="round"/>
</svg>
