<svg width="49" height="49" viewBox="0 0 49 49" fill="none" xmlns="http://www.w3.org/2000/svg">
<circle cx="24.9795" cy="24.4517" r="24" fill="black" fill-opacity="0.05"/>
<path d="M33.5724 25.1495C33.9623 24.7584 33.9614 24.1252 33.5704 23.7353L27.1975 17.3802C26.8064 16.9903 26.1732 16.9912 25.7833 17.3822C25.3933 17.7733 25.3942 18.4065 25.7853 18.7964L31.45 24.4453L25.8011 30.1101C25.4112 30.5012 25.4121 31.1344 25.8031 31.5243C26.1942 31.9143 26.8274 31.9134 27.2173 31.5224L33.5724 25.1495ZM20.9981 24.46L20.9981 25.46L20.9995 25.46L20.9981 24.46ZM32.8629 23.4434L20.9967 23.46L20.9995 25.46L32.8657 25.4434L32.8629 23.4434ZM20.9981 23.46L15.0156 23.46L15.0156 25.46L20.9981 25.46L20.9981 23.46Z" fill="#929292"/>
</svg>
