<svg width="73" height="73" viewBox="0 0 73 73" fill="none" xmlns="http://www.w3.org/2000/svg">
<path d="M59.9197 24.5323C59.0002 23.5059 57.7923 22.7416 56.4231 22.3645V22.3625C55.7667 17.8607 51.885 14.4035 47.1956 14.4035C45.6187 14.4035 44.1336 14.7947 42.832 15.4843C40.7993 12.9667 37.6859 11.3555 34.1953 11.3555C29.4657 11.3555 25.4287 14.3127 23.8336 18.4758C23.8276 18.4727 23.8215 18.4707 23.8145 18.4697C22.9242 18.1874 21.9754 18.0341 20.9914 18.0341C19.8168 18.0341 18.6926 18.2509 17.6571 18.6482" stroke="#E03028" stroke-width="1.5" stroke-linecap="round" stroke-linejoin="round"/>
<path d="M14.6526 20.5175C12.8146 22.2174 11.6652 24.6492 11.6652 27.3483C11.6652 31.348 14.1898 34.7589 17.7348 36.0777C18.7481 36.4558 19.8461 36.6625 20.9914 36.6625H22.0017" stroke="#E03028" stroke-width="1.5" stroke-linecap="round" stroke-linejoin="round"/>
<path d="M61.5701 27.6659C61.7042 28.2164 61.7748 28.7911 61.7748 29.3819C61.7748 32.9874 59.1503 35.9809 55.7052 36.5606C55.3079 36.6282 54.9006 36.6625 54.4852 36.6625H51.4685" stroke="#E03028" stroke-width="1.5" stroke-linecap="round" stroke-linejoin="round"/>
<path d="M23.7648 18.4532C24.4543 18.6673 25.1096 18.9593 25.7202 19.3187" stroke="#E03028" stroke-width="1.5" stroke-linecap="round" stroke-linejoin="round"/>
<path d="M54.3339 22.1037C54.3842 22.1027 54.4346 22.1022 54.4851 22.1022C55.1565 22.1022 55.8066 22.1928 56.424 22.3625" stroke="#E03028" stroke-width="1.5" stroke-linecap="round" stroke-linejoin="round"/>
<path d="M48.8405 50.3221V52.5101" stroke="#E03028" stroke-width="1.5" stroke-linecap="round" stroke-linejoin="round"/>
<path d="M48.8405 39.227V41.2865" stroke="#E03028" stroke-width="1.5" stroke-linecap="round" stroke-linejoin="round"/>
<path d="M24.5995 41.3723V39.0897" stroke="#E03028" stroke-width="1.5" stroke-linecap="round" stroke-linejoin="round"/>
<path d="M24.5995 52.5101V50.4379" stroke="#E03028" stroke-width="1.5" stroke-linecap="round" stroke-linejoin="round"/>
<path d="M49.7112 38.9372H23.7287C22.8689 38.9372 22.1719 38.2402 22.1719 37.3803V31.7548C22.1719 30.895 22.8689 30.198 23.7287 30.198H49.7112C50.571 30.198 51.268 30.895 51.268 31.7548V37.3803C51.2679 38.2402 50.5709 38.9372 49.7112 38.9372Z" stroke="#E03028" stroke-width="1.5" stroke-linecap="round" stroke-linejoin="round"/>
<path d="M33.3363 41.4617H49.7112C50.5712 41.4617 51.2679 42.1594 51.2679 43.0184V48.6444C51.2679 49.5045 50.5712 50.2012 49.7112 50.2012H23.7287C22.8687 50.2012 22.172 49.5045 22.172 48.6444V43.0184C22.172 42.1594 22.8687 41.4617 23.7287 41.4617H29.8074" stroke="#E03028" stroke-width="1.5" stroke-linecap="round" stroke-linejoin="round"/>
<path d="M44.7022 61.4653H49.7112C50.5712 61.4653 51.2679 60.7686 51.2679 59.9085V54.2825C51.2679 53.4235 50.5712 52.7258 49.7112 52.7258H23.7287C22.8687 52.7258 22.172 53.4235 22.172 54.2825V59.9085C22.172 60.7686 22.8687 61.4653 23.7287 61.4653H41.1734" stroke="#E03028" stroke-width="1.5" stroke-linecap="round" stroke-linejoin="round"/>
<path d="M37.3242 34.5676H47.5438" stroke="#E03028" stroke-width="1.5" stroke-linecap="round" stroke-linejoin="round"/>
<path d="M36.1157 45.8316H25.8961" stroke="#E03028" stroke-width="1.5" stroke-linecap="round" stroke-linejoin="round"/>
<path d="M37.3242 57.0957H47.5438" stroke="#E03028" stroke-width="1.5" stroke-linecap="round" stroke-linejoin="round"/>
<path d="M36.72 29.9426V20.2702" stroke="#E03028" stroke-width="1.5" stroke-linecap="round" stroke-linejoin="round"/>
<path d="M36.7199 20.1731C37.6686 20.1731 38.4377 19.4041 38.4377 18.4554C38.4377 17.5067 37.6686 16.7376 36.7199 16.7376C35.7713 16.7376 35.0022 17.5067 35.0022 18.4554C35.0022 19.4041 35.7713 20.1731 36.7199 20.1731Z" stroke="#E03028" stroke-width="1.5" stroke-linecap="round" stroke-linejoin="round"/>
<path d="M44.6555 24.7755C45.6042 24.7755 46.3732 24.0064 46.3732 23.0577C46.3732 22.109 45.6042 21.34 44.6555 21.34C43.7068 21.34 42.9377 22.109 42.9377 23.0577C42.9377 24.0064 43.7068 24.7755 44.6555 24.7755Z" stroke="#E03028" stroke-width="1.5" stroke-linecap="round" stroke-linejoin="round"/>
<path d="M40.7069 29.9426V27.6497C40.7069 27.2377 40.8705 26.8426 41.1618 26.5513L43.3927 24.3204" stroke="#E03028" stroke-width="1.5" stroke-linecap="round" stroke-linejoin="round"/>
<path d="M28.7845 24.7755C29.7332 24.7755 30.5023 24.0064 30.5023 23.0577C30.5023 22.109 29.7332 21.34 28.7845 21.34C27.8358 21.34 27.0668 22.109 27.0668 23.0577C27.0668 24.0064 27.8358 24.7755 28.7845 24.7755Z" stroke="#E03028" stroke-width="1.5" stroke-linecap="round" stroke-linejoin="round"/>
<path d="M32.7331 29.9426V27.6497C32.7331 27.2377 32.5695 26.8426 32.2782 26.5513L30.0474 24.3204" stroke="#E03028" stroke-width="1.5" stroke-linecap="round" stroke-linejoin="round"/>
</svg>
