<svg width="91" height="90" viewBox="0 0 91 90" fill="none" xmlns="http://www.w3.org/2000/svg">
<mask id="mask0_894_20362" style="mask-type:luminance" maskUnits="userSpaceOnUse" x="0" y="0" width="91" height="90">
<path d="M0.933594 0.307137H90.319V89.6925H0.933594V0.307137Z" fill="white"/>
</mask>
<g mask="url(#mask0_894_20362)">
<path d="M49.0395 27.849C51.4506 27.849 53.404 30.3508 53.404 33.4356C53.404 36.5205 51.4506 39.0222 49.0395 39.0222C48.357 39.0222 47.7127 38.8214 47.1367 38.4653" stroke="#ABABAB" stroke-width="3" stroke-miterlimit="10" stroke-linecap="round" stroke-linejoin="round"/>
<path d="M7.13796 27.849C4.72874 27.849 2.77344 30.3508 2.77344 33.4356C2.77344 36.5205 4.72874 39.0222 7.13796 39.0222C8.07912 39.0222 8.95203 38.6399 9.66589 37.9922" stroke="#ABABAB" stroke-width="3" stroke-miterlimit="10" stroke-linecap="round" stroke-linejoin="round"/>
<path d="M23.1953 59.0588V54.2177" stroke="#ABABAB" stroke-width="3" stroke-miterlimit="10" stroke-linecap="round" stroke-linejoin="round"/>
<path d="M33.6641 59.0588V54.2177" stroke="#ABABAB" stroke-width="3" stroke-miterlimit="10" stroke-linecap="round" stroke-linejoin="round"/>
<path d="M47.2837 30.5569V36.1085C47.2837 46.5153 38.8479 54.951 28.4412 54.951H28.4167C18.01 54.951 9.57422 46.5153 9.57422 36.1085V30.5569" stroke="#ABABAB" stroke-width="3" stroke-miterlimit="10" stroke-linecap="round" stroke-linejoin="round"/>
<path d="M37.3766 62.1962H38.555C47.4254 62.1962 54.6164 69.3872 54.6164 78.2576V87.3358C54.6164 87.9137 54.1468 88.3833 53.5689 88.3833H3.28967C2.71181 88.3833 2.24219 87.9137 2.24219 87.3358V78.2576C2.24219 69.3872 9.43317 62.1962 18.3036 62.1962H19.482" stroke="#ABABAB" stroke-width="3" stroke-miterlimit="10" stroke-linecap="round" stroke-linejoin="round"/>
<path d="M22.9988 59.137L19.606 61.9637C19.4538 62.0904 19.4377 62.3186 19.5704 62.4658L24.4206 67.8429C24.5765 68.0157 24.8548 67.9904 24.977 67.7924L28.429 62.196L23.4051 59.1079C23.2774 59.0293 23.1138 59.0412 22.9988 59.137Z" stroke="#ABABAB" stroke-width="3" stroke-miterlimit="10" stroke-linecap="round" stroke-linejoin="round"/>
<path d="M33.8598 59.1372L37.2527 61.9638C37.4049 62.0905 37.4209 62.3187 37.2883 62.4659L32.4381 67.843C32.2822 68.0158 32.0039 67.9905 31.8817 67.7925L28.4297 62.1962L33.4536 59.108C33.5812 59.0294 33.7448 59.0413 33.8598 59.1372Z" stroke="#ABABAB" stroke-width="3" stroke-miterlimit="10" stroke-linecap="round" stroke-linejoin="round"/>
<path d="M38.9092 12.5629C38.3097 12.0173 37.3535 12.3483 37.1994 13.1442C36.669 15.8813 34.1357 20.4661 22.8724 18.8216C16.0234 17.8216 9.57355 25.004 9.57355 30.5564C9.57355 30.5564 9.13099 28.8448 7.14024 27.8493C7.14024 27.8493 4.98452 20.2769 6.43581 13.7317C7.77205 7.70691 15.6865 1.61683 27.7235 1.61683C33.9923 1.61683 36.5918 3.16624 37.5714 4.06341C37.9841 4.44138 38.5054 4.68073 39.0637 4.72333C41.65 4.92078 48.6536 6.12853 50.1667 13.3832C51.42 19.3927 49.5499 22.9073 49.0396 27.8493C47.9403 28.6727 47.283 30.5564 47.283 30.5564C47.283 30.5564 43.9457 24.1837 43.1678 19.4482C42.6767 16.4597 40.4702 13.9833 38.9092 12.5629Z" stroke="#ABABAB" stroke-width="3" stroke-miterlimit="10" stroke-linecap="round" stroke-linejoin="round"/>
<path d="M89.0055 4.40645V53.9944C89.0055 55.5352 87.7569 56.7842 86.2164 56.7842H62.5034C60.9633 56.7842 59.7147 55.5352 59.7147 53.9944V49.0089C59.7147 48.6527 59.4011 48.3779 59.0481 48.4247L50.9383 49.4993C50.6457 49.538 50.4786 49.1753 50.6983 48.978L59.3301 41.2262C59.5746 41.0064 59.7147 40.6929 59.7147 40.3638V4.40645C59.7147 2.8656 60.9633 1.61664 62.5034 1.61664H86.2164C87.7569 1.61664 89.0055 2.8656 89.0055 4.40645Z" stroke="#ABABAB" stroke-width="3" stroke-miterlimit="10" stroke-linecap="round" stroke-linejoin="round"/>
<path d="M71.7227 9.45483H82.6958" stroke="#ABABAB" stroke-width="3" stroke-miterlimit="10" stroke-linecap="round" stroke-linejoin="round"/>
<path d="M66.9805 15.5652H82.6927" stroke="#ABABAB" stroke-width="3" stroke-miterlimit="10" stroke-linecap="round" stroke-linejoin="round"/>
<path d="M66.9805 21.6755H82.6927" stroke="#ABABAB" stroke-width="3" stroke-miterlimit="10" stroke-linecap="round" stroke-linejoin="round"/>
<path d="M81.3756 49.4231H67.8387C66.3703 49.4231 65.1797 48.2326 65.1797 46.7641V30.5499C65.1797 29.0813 66.3703 27.8908 67.8387 27.8908H81.3756C82.844 27.8908 84.0344 29.0813 84.0344 30.5499V46.7641C84.0344 48.2326 82.844 49.4231 81.3756 49.4231Z" stroke="#ABABAB" stroke-width="3" stroke-miterlimit="10" stroke-linecap="round" stroke-linejoin="round"/>
<path d="M74.6055 32.3451V39.6506" stroke="#ABABAB" stroke-width="3" stroke-miterlimit="10" stroke-linecap="round" stroke-linejoin="round"/>
<path d="M74.6055 43.375V44.1271" stroke="#ABABAB" stroke-width="3" stroke-miterlimit="10" stroke-linecap="round" stroke-linejoin="round"/>
<path d="M31.2233 76.9207C31.2233 78.4629 29.9728 79.714 28.43 79.714C26.8881 79.714 25.6367 78.4642 25.6367 76.9207C25.6367 75.3781 26.8874 74.1274 28.43 74.1274C29.9726 74.1274 31.2233 75.3781 31.2233 76.9207Z" stroke="#ABABAB" stroke-width="3" stroke-miterlimit="10" stroke-linecap="round" stroke-linejoin="round"/>
</g>
</svg>
