<svg width="41" height="41" viewBox="0 0 41 41" fill="none" xmlns="http://www.w3.org/2000/svg">
<g clip-path="url(#clip0_3183_10303)">
<mask id="mask0_3183_10303" style="mask-type:luminance" maskUnits="userSpaceOnUse" x="0" y="0" width="41" height="41">
<path d="M0.945129 0.388691H40.9451V40.3887H0.945129V0.388691Z" fill="white"/>
</mask>
<g mask="url(#mask0_3183_10303)">
<path d="M22.4733 12.7137C23.5523 12.7137 24.4264 13.8332 24.4264 15.2137C24.4264 16.5942 23.5523 17.7137 22.4733 17.7137C22.1679 17.7137 21.8796 17.6239 21.6218 17.4645" stroke="#A8A8A8" stroke-width="1.15449" stroke-miterlimit="10" stroke-linecap="round" stroke-linejoin="round"/>
<path d="M3.72235 12.7137C2.64423 12.7137 1.76923 13.8333 1.76923 15.2137C1.76923 16.5942 2.64423 17.7137 3.72235 17.7137C4.14352 17.7137 4.53415 17.5426 4.8536 17.2528" stroke="#A8A8A8" stroke-width="1.15449" stroke-miterlimit="10" stroke-linecap="round" stroke-linejoin="round"/>
<path d="M10.907 26.6801V24.5137" stroke="#A8A8A8" stroke-width="1.15449" stroke-miterlimit="10" stroke-linecap="round" stroke-linejoin="round"/>
<path d="M15.5925 26.6801V24.5137" stroke="#A8A8A8" stroke-width="1.15449" stroke-miterlimit="10" stroke-linecap="round" stroke-linejoin="round"/>
<path d="M21.6873 13.9255V16.4098C21.6873 21.0669 17.9123 24.8419 13.2552 24.8419H13.2443C8.58726 24.8419 4.81226 21.0669 4.81226 16.4098V13.9255" stroke="#A8A8A8" stroke-width="1.15449" stroke-miterlimit="10" stroke-linecap="round" stroke-linejoin="round"/>
<path d="M17.2537 28.084H17.781C21.7505 28.084 24.9685 31.302 24.9685 35.2715V39.334C24.9685 39.5926 24.7583 39.8028 24.4998 39.8028H1.99976C1.74116 39.8028 1.53101 39.5926 1.53101 39.334V35.2715C1.53101 31.302 4.74897 28.084 8.71851 28.084H9.24585" stroke="#A8A8A8" stroke-width="1.15449" stroke-miterlimit="10" stroke-linecap="round" stroke-linejoin="round"/>
<path d="M10.8193 26.7151L9.30105 27.98C9.23292 28.0368 9.22573 28.1389 9.28511 28.2047L11.4556 30.611C11.5253 30.6883 11.6499 30.677 11.7046 30.5884L13.2493 28.084L11.0011 26.7021C10.944 26.6669 10.8708 26.6722 10.8193 26.7151Z" stroke="#A8A8A8" stroke-width="1.15449" stroke-miterlimit="10" stroke-linecap="round" stroke-linejoin="round"/>
<path d="M15.6797 26.7151L17.198 27.9801C17.2661 28.0368 17.2733 28.1389 17.2139 28.2047L15.0434 30.611C14.9737 30.6883 14.8491 30.677 14.7945 30.5884L13.2497 28.084L15.4979 26.7021C15.555 26.6669 15.6282 26.6722 15.6797 26.7151Z" stroke="#A8A8A8" stroke-width="1.15449" stroke-miterlimit="10" stroke-linecap="round" stroke-linejoin="round"/>
<path d="M17.94 5.87309C17.6717 5.62895 17.2438 5.77708 17.1748 6.13325C16.9375 7.35809 15.8038 9.40981 10.7635 8.67387C7.69856 8.22637 4.81223 11.4405 4.81223 13.9252C4.81223 13.9252 4.61418 13.1593 3.72333 12.7138C3.72333 12.7138 2.75864 9.32512 3.40809 6.39614C4.00606 3.70005 7.54778 0.974733 12.9343 0.974733C15.7397 0.974733 16.9029 1.66809 17.3413 2.06958C17.526 2.23872 17.7593 2.34583 18.0091 2.36489C19.1664 2.45325 22.3006 2.99372 22.9777 6.2402C23.5386 8.92942 22.7017 10.5022 22.4733 12.7138C21.9814 13.0822 21.6872 13.9252 21.6872 13.9252C21.6872 13.9252 20.1938 11.0734 19.8457 8.95426C19.6259 7.61692 18.6385 6.50872 17.94 5.87309Z" stroke="#A8A8A8" stroke-width="1.15449" stroke-miterlimit="10" stroke-linecap="round" stroke-linejoin="round"/>
<path d="M40.3582 2.22311V24.4137C40.3582 25.1033 39.7994 25.6622 39.11 25.6622H28.4985C27.8093 25.6622 27.2505 25.1033 27.2505 24.4137V22.1827C27.2505 22.0233 27.1102 21.9004 26.9522 21.9213L23.3231 22.4022C23.1922 22.4195 23.1174 22.2572 23.2157 22.1689L27.0784 18.7C27.1879 18.6016 27.2505 18.4613 27.2505 18.314V2.22311C27.2505 1.53358 27.8093 0.974668 28.4985 0.974668H39.11C39.7994 0.974668 40.3582 1.53358 40.3582 2.22311Z" stroke="#A8A8A8" stroke-width="1.15449" stroke-miterlimit="10" stroke-linecap="round" stroke-linejoin="round"/>
<path d="M32.6228 4.4823H37.5333" stroke="#A8A8A8" stroke-width="1.15449" stroke-miterlimit="10" stroke-linecap="round" stroke-linejoin="round"/>
<path d="M30.5019 7.21667H37.5331" stroke="#A8A8A8" stroke-width="1.15449" stroke-miterlimit="10" stroke-linecap="round" stroke-linejoin="round"/>
<path d="M30.5019 9.95103H37.5331" stroke="#A8A8A8" stroke-width="1.15449" stroke-miterlimit="10" stroke-linecap="round" stroke-linejoin="round"/>
<path d="M36.9427 22.3681H30.885C30.2279 22.3681 29.6951 21.8354 29.6951 21.1782V13.9224C29.6951 13.2652 30.2279 12.7324 30.885 12.7324H36.9427C37.5998 12.7324 38.1326 13.2652 38.1326 13.9224V21.1782C38.1326 21.8354 37.5998 22.3681 36.9427 22.3681Z" stroke="#A8A8A8" stroke-width="1.15449" stroke-miterlimit="10" stroke-linecap="round" stroke-linejoin="round"/>
<path d="M33.9138 14.7257V17.9949" stroke="#A8A8A8" stroke-width="1.15449" stroke-miterlimit="10" stroke-linecap="round" stroke-linejoin="round"/>
<path d="M33.9138 19.6616V19.9981" stroke="#A8A8A8" stroke-width="1.15449" stroke-miterlimit="10" stroke-linecap="round" stroke-linejoin="round"/>
<path d="M14.4998 34.6732C14.4998 35.3634 13.9401 35.9232 13.2498 35.9232C12.5598 35.9232 11.9998 35.364 11.9998 34.6732C11.9998 33.9829 12.5594 33.4232 13.2498 33.4232C13.9401 33.4232 14.4998 33.9829 14.4998 34.6732Z" stroke="#A8A8A8" stroke-width="1.15449" stroke-miterlimit="10" stroke-linecap="round" stroke-linejoin="round"/>
</g>
</g>
<defs>
<clipPath id="clip0_3183_10303">
<rect width="40" height="40" fill="white" transform="translate(0.945312 0.388733)"/>
</clipPath>
</defs>
</svg>
