<svg width="91" height="90" viewBox="0 0 91 90" fill="none" xmlns="http://www.w3.org/2000/svg">
<path d="M49.0395 27.8493C51.4506 27.8493 53.404 30.351 53.404 33.4359C53.404 36.5207 51.4506 39.0225 49.0395 39.0225C48.357 39.0225 47.7127 38.8217 47.1367 38.4655" stroke="#E03028" stroke-width="3" stroke-miterlimit="10" stroke-linecap="round" stroke-linejoin="round"/>
<path d="M7.13796 27.8493C4.72874 27.8493 2.77344 30.351 2.77344 33.4359C2.77344 36.5207 4.72874 39.0225 7.13796 39.0225C8.07912 39.0225 8.95203 38.6401 9.66589 37.9924" stroke="#E03028" stroke-width="3" stroke-miterlimit="10" stroke-linecap="round" stroke-linejoin="round"/>
<path d="M23.1953 59.0591V54.218" stroke="#E03028" stroke-width="3" stroke-miterlimit="10" stroke-linecap="round" stroke-linejoin="round"/>
<path d="M33.6641 59.0591V54.218" stroke="#E03028" stroke-width="3" stroke-miterlimit="10" stroke-linecap="round" stroke-linejoin="round"/>
<path d="M47.2837 30.557V36.1087C47.2837 46.5154 38.8479 54.9512 28.4412 54.9512H28.4167C18.01 54.9512 9.57422 46.5154 9.57422 36.1087V30.557" stroke="#E03028" stroke-width="3" stroke-miterlimit="10" stroke-linecap="round" stroke-linejoin="round"/>
<path d="M37.3766 62.1964H38.555C47.4254 62.1964 54.6164 69.3874 54.6164 78.2579V87.3361C54.6164 87.9139 54.1468 88.3835 53.5689 88.3835H3.28967C2.71181 88.3835 2.24219 87.9139 2.24219 87.3361V78.2579C2.24219 69.3874 9.43317 62.1964 18.3036 62.1964H19.482" stroke="#E03028" stroke-width="3" stroke-miterlimit="10" stroke-linecap="round" stroke-linejoin="round"/>
<path d="M22.9988 59.1374L19.606 61.964C19.4538 62.0908 19.4377 62.319 19.5704 62.4661L24.4206 67.8432C24.5765 68.0161 24.8548 67.9907 24.977 67.7928L28.429 62.1964L23.4051 59.1082C23.2774 59.0297 23.1138 59.0416 22.9988 59.1374Z" stroke="#E03028" stroke-width="3" stroke-miterlimit="10" stroke-linecap="round" stroke-linejoin="round"/>
<path d="M33.8598 59.1374L37.2527 61.964C37.4049 62.0908 37.4209 62.319 37.2883 62.4661L32.4381 67.8432C32.2822 68.0161 32.0039 67.9907 31.8817 67.7928L28.4297 62.1964L33.4536 59.1082C33.5812 59.0297 33.7448 59.0416 33.8598 59.1374Z" stroke="#E03028" stroke-width="3" stroke-miterlimit="10" stroke-linecap="round" stroke-linejoin="round"/>
<path d="M38.9092 12.5631C38.3097 12.0176 37.3535 12.3486 37.1994 13.1445C36.669 15.8816 34.1357 20.4664 22.8724 18.8218C16.0234 17.8218 9.57355 25.0043 9.57355 30.5566C9.57355 30.5566 9.13099 28.845 7.14024 27.8496C7.14024 27.8496 4.98452 20.2771 6.43581 13.7319C7.77205 7.70716 15.6865 1.61708 27.7235 1.61708C33.9923 1.61708 36.5918 3.16648 37.5714 4.06366C37.9841 4.44162 38.5054 4.68097 39.0637 4.72357C41.65 4.92102 48.6536 6.12877 50.1667 13.3835C51.42 19.3929 49.5499 22.9076 49.0396 27.8496C47.9403 28.6729 47.283 30.5566 47.283 30.5566C47.283 30.5566 43.9457 24.1839 43.1678 19.4484C42.6767 16.4599 40.4702 13.9835 38.9092 12.5631Z" stroke="#E03028" stroke-width="3" stroke-miterlimit="10" stroke-linecap="round" stroke-linejoin="round"/>
<path d="M89.0055 4.40669V53.9946C89.0055 55.5355 87.7569 56.7844 86.2164 56.7844H62.5034C60.9633 56.7844 59.7147 55.5355 59.7147 53.9946V49.0091C59.7147 48.653 59.4011 48.3782 59.0481 48.425L50.9383 49.4995C50.6457 49.5383 50.4786 49.1755 50.6983 48.9782L59.3301 41.2265C59.5746 41.0067 59.7147 40.6931 59.7147 40.3641V4.40669C59.7147 2.86584 60.9633 1.61689 62.5034 1.61689H86.2164C87.7569 1.61689 89.0055 2.86584 89.0055 4.40669Z" stroke="#E03028" stroke-width="3" stroke-miterlimit="10" stroke-linecap="round" stroke-linejoin="round"/>
<path d="M71.7227 9.45508H82.6958" stroke="#E03028" stroke-width="3" stroke-miterlimit="10" stroke-linecap="round" stroke-linejoin="round"/>
<path d="M66.9805 15.5654H82.6927" stroke="#E03028" stroke-width="3" stroke-miterlimit="10" stroke-linecap="round" stroke-linejoin="round"/>
<path d="M66.9805 21.6758H82.6927" stroke="#E03028" stroke-width="3" stroke-miterlimit="10" stroke-linecap="round" stroke-linejoin="round"/>
<path d="M81.3756 49.4233H67.8387C66.3703 49.4233 65.1797 48.2329 65.1797 46.7643V30.5501C65.1797 29.0815 66.3703 27.8911 67.8387 27.8911H81.3756C82.844 27.8911 84.0344 29.0815 84.0344 30.5501V46.7643C84.0344 48.2329 82.844 49.4233 81.3756 49.4233Z" stroke="#E03028" stroke-width="3" stroke-miterlimit="10" stroke-linecap="round" stroke-linejoin="round"/>
<path d="M74.6055 32.3454V39.6509" stroke="#E03028" stroke-width="3" stroke-miterlimit="10" stroke-linecap="round" stroke-linejoin="round"/>
<path d="M74.6055 43.3753V44.1274" stroke="#E03028" stroke-width="3" stroke-miterlimit="10" stroke-linecap="round" stroke-linejoin="round"/>
<path d="M31.2233 76.9208C31.2233 78.4631 29.9728 79.7141 28.43 79.7141C26.8881 79.7141 25.6367 78.4643 25.6367 76.9208C25.6367 75.3782 26.8874 74.1275 28.43 74.1275C29.9726 74.1275 31.2233 75.3782 31.2233 76.9208Z" stroke="#E03028" stroke-width="3" stroke-miterlimit="10" stroke-linecap="round" stroke-linejoin="round"/>
</svg>
