<svg width="26" height="26" viewBox="0 0 26 26" fill="none" xmlns="http://www.w3.org/2000/svg">
<path d="M19.4893 6.8892H18.156C18.0227 6.22253 17.756 5.55586 17.356 5.02253L18.2893 4.08919C18.4893 3.88919 18.4893 3.62253 18.2893 3.42253L17.556 2.68919C17.356 2.48919 17.0893 2.48919 16.8893 2.68919L15.956 3.62253C15.4227 3.22253 14.756 2.95586 14.0893 2.82253V1.48919C14.0893 1.22253 13.8893 1.02253 13.6227 1.02253H12.556C12.2893 1.02253 12.0893 1.22253 12.0893 1.48919V2.82253C11.4226 2.95586 10.756 3.22253 10.2227 3.62253L9.28933 2.68919C9.08933 2.48919 8.82266 2.48919 8.62266 2.68919L7.88932 3.42253C7.68932 3.62253 7.68932 3.88919 7.88932 4.08919L8.82265 5.02253C8.42265 5.55586 8.15598 6.22253 8.02264 6.8892H6.68931C6.42264 6.8892 6.22266 7.08919 6.22266 7.35586V8.42253C6.22266 8.68919 6.42264 8.8892 6.68931 8.8892H8.02264C8.15598 9.55586 8.42265 10.2225 8.82265 10.7559L7.88932 11.6892C7.68932 11.8892 7.68932 12.1559 7.88932 12.3559L8.62266 13.0892C8.82266 13.2892 9.08933 13.2892 9.28933 13.0892L10.2227 12.1559C10.756 12.5559 11.4226 12.8225 12.0893 12.9559V14.2892C12.0893 14.5559 12.2893 14.7559 12.556 14.7559H13.6227C13.8893 14.7559 14.0893 14.5559 14.0893 14.2892V12.9559C14.756 12.8225 15.4227 12.5559 15.956 12.1559L16.8893 13.0892C17.0893 13.2892 17.356 13.2892 17.556 13.0892L18.2893 12.3559C18.4893 12.1559 18.4893 11.8892 18.2893 11.6892L17.356 10.7559C17.756 10.2225 18.0227 9.55586 18.156 8.8892H19.4893C19.756 8.8892 19.956 8.68919 19.956 8.42253V7.35586C19.956 7.08919 19.756 6.8892 19.4893 6.8892Z" stroke="#E03028" stroke-miterlimit="13.3333" stroke-linecap="round" stroke-linejoin="round"/>
<path d="M12.1191 7.88437L12.7191 8.48438L13.9858 7.21771" stroke="#E03028" stroke-miterlimit="13.3333" stroke-linecap="round" stroke-linejoin="round"/>
<path d="M15.7582 8.73438C15.4249 9.93438 14.2915 10.7344 13.0249 10.7344C11.4249 10.7344 10.1582 9.46772 10.1582 7.86772C10.1582 6.26772 11.4249 5.00105 13.0249 5.00105C14.2915 5.00105 15.4249 5.86771 15.7582 7.00105" stroke="#E03028" stroke-miterlimit="13.3333" stroke-linecap="round" stroke-linejoin="round"/>
<path d="M18.896 17.8432L21.9626 16.4432C22.296 16.3099 22.5626 16.0432 22.696 15.7099L23.4293 14.0432C23.5626 13.7099 23.9626 13.5099 24.296 13.5766C24.8293 13.6432 25.1626 14.2432 24.9626 14.7099L23.696 17.9099C23.5626 18.3099 23.296 18.6432 22.9626 18.9099L18.4293 22.3766C18.1626 22.5766 18.0293 22.9099 18.0293 23.2432V24.9766" stroke="#E03028" stroke-miterlimit="13.3333" stroke-linecap="round" stroke-linejoin="round"/>
<path d="M13.0137 24.8867V22.8867C13.0137 22.0201 13.2803 21.1534 13.8137 20.4201L15.347 18.2867" stroke="#E03028" stroke-miterlimit="13.3333" stroke-linecap="round" stroke-linejoin="round"/>
<path d="M15.3242 18.277L17.7242 15.7436L18.3909 14.5436C18.5242 14.3436 18.7909 14.1436 19.0576 14.1436C19.5909 14.1436 19.9242 14.6103 19.7909 15.1436L18.5242 18.877" stroke="#E03028" stroke-miterlimit="13.3333" stroke-linecap="round" stroke-linejoin="round"/>
<path d="M4.36328 19.8562L7.56328 22.3229C7.82995 22.5229 7.96328 22.8562 7.96328 23.1895V24.9229" stroke="#E03028" stroke-miterlimit="13.3333" stroke-linecap="round" stroke-linejoin="round"/>
<path d="M7.13334 17.8435L4.06667 16.4435C3.73334 16.3101 3.46667 16.0435 3.33333 15.7101L2.6 14.0435C2.46667 13.7101 2.06667 13.5102 1.73334 13.5768C1.33334 13.6435 1 13.9768 1 14.3768C1 14.5101 1 14.5768 1.06667 14.7101L2.33333 17.9102C2.46667 18.3102 2.73334 18.6435 3.06667 18.9102" stroke="#E03028" stroke-miterlimit="13.3333" stroke-linecap="round" stroke-linejoin="round"/>
<path d="M10.6992 18.277L12.2325 20.4103C12.7659 21.1436 13.0326 22.0103 13.0326 22.877V24.877" stroke="#E03028" stroke-miterlimit="13.3333" stroke-linecap="round" stroke-linejoin="round"/>
<path d="M10.7031 18.277L8.3031 15.7436L7.63644 14.5436C7.5031 14.3436 7.23644 14.1436 6.96977 14.1436C6.43644 14.1436 6.1031 14.6103 6.23643 15.1436L7.5031 18.877" stroke="#E03028" stroke-miterlimit="13.3333" stroke-linecap="round" stroke-linejoin="round"/>
</svg>
