<svg width="74" height="72" viewBox="0 0 74 72" fill="none" xmlns="http://www.w3.org/2000/svg">
<path d="M59.2001 8.99997C45.4001 -2.30003 25.1001 -1.60003 12.2001 11.3C-0.699942 24.2 -1.39994 44.5 9.90006 58.3" stroke="#E03028" stroke-width="2" stroke-miterlimit="13.3333" stroke-linecap="round" stroke-linejoin="round"/>
<path d="M14.8 63C28.6 74.3 48.9001 73.5999 61.8001 60.6999C74.7001 47.7999 75.4 27.5 64.1 13.7" stroke="#E03028" stroke-width="2" stroke-miterlimit="13.3333" stroke-linecap="round" stroke-linejoin="round"/>
<path d="M9.5 49.9L10 58.2L2.5 54.4" stroke="#E03028" stroke-width="2" stroke-miterlimit="13.3333" stroke-linecap="round" stroke-linejoin="round"/>
<path d="M64.5 22.1L64 13.8L71.5 17.6" stroke="#E03028" stroke-width="2" stroke-miterlimit="13.3333" stroke-linecap="round" stroke-linejoin="round"/>
<path d="M22.7 40.8L46 48.5L50.3 46.3L52.4 39.8L50.2 35.6L22.3 26.4L18 28.6L15.9 35" stroke="#E03028" stroke-width="2" stroke-miterlimit="13.3333" stroke-linecap="round" stroke-linejoin="round"/>
<path d="M46.3001 40.2L45.6001 42.4" stroke="#E03028" stroke-width="2" stroke-miterlimit="13.3333" stroke-linecap="round" stroke-linejoin="round"/>
<path d="M22.7 32.5L22 34.6" stroke="#E03028" stroke-width="2" stroke-miterlimit="13.3333" stroke-linecap="round" stroke-linejoin="round"/>
<path d="M30.9001 36.4C31.3001 35.2 32.6001 34.6 33.7001 35L35.8001 35.7C37.0001 36.1 37.6001 37.4 37.2001 38.5C36.8001 39.7 35.5001 40.3 34.4001 39.9L32.3001 39.2C31.2001 38.8 30.5001 37.6 30.9001 36.4Z" stroke="#E03028" stroke-width="2" stroke-miterlimit="13.3333" stroke-linecap="round" stroke-linejoin="round"/>
<path d="M52.3 31.5L17.3 20C16.7 19.8 16.1 20.1 15.9 20.7L12 32.7C11.8 33.3 11.9 33.9 12.1 34.4L16.3 42.7C16.6 43.2 17 43.6 17.6 43.8L51 54.8C51.6 55 52.2 54.7 52.4 54.1L58.7 34.8C58.9 34.2 58.6 33.6 58 33.4L56.5 32.9" stroke="#E03028" stroke-width="2" stroke-miterlimit="13.3333" stroke-linecap="round" stroke-linejoin="round"/>
<path d="M53.5 50.9L56.7 52C57.3 52.2 57.9 51.9 58.1 51.3L64.4 32C64.6 31.4 64.3 30.8 63.7 30.6L23 17.1C22.4 16.9 21.8 17.2 21.6 17.8L20.5 21" stroke="#E03028" stroke-width="2" stroke-miterlimit="13.3333" stroke-linecap="round" stroke-linejoin="round"/>
<path d="M12.1001 33.8L18.1001 35.8C18.7001 36 19.0001 36.6 18.8001 37.2L16.9001 43.1" stroke="#E03028" stroke-width="2" stroke-miterlimit="13.3333" stroke-linecap="round" stroke-linejoin="round"/>
</svg>
