<svg width="100" height="100" viewBox="0 0 100 100" fill="none" xmlns="http://www.w3.org/2000/svg">
<path d="M35.2444 28.939C38.9332 28.939 41.9235 25.9486 41.9235 22.2598C41.9235 18.571 38.9332 15.5806 35.2444 15.5806C31.5556 15.5806 28.5652 18.571 28.5652 22.2598C28.5652 25.9486 31.5556 28.939 35.2444 28.939Z" stroke="#E03028" stroke-width="2" stroke-linecap="round" stroke-linejoin="round"/>
<path d="M31.853 28.0084L25.6452 30.9613C24.187 31.6549 23.2581 33.1255 23.2581 34.7401V47.5784C23.2581 48.7651 24.2201 49.7271 25.4068 49.7271C26.5935 49.7271 27.5555 48.7651 27.5555 47.5784V36.537C27.5555 35.7567 28.0073 35.047 28.7143 34.7168L30.871 33.7097" stroke="#E03028" stroke-width="2" stroke-linecap="round" stroke-linejoin="round"/>
<path d="M39 28.2903L43.2412 32.4765C43.6769 32.9064 44.3358 33.0159 44.887 32.7498L52.915 28.8745C54.0836 28.3023 55.4957 28.7215 56.1627 29.8387C56.9154 31.0995 56.4253 32.7344 55.1032 33.3731L45.0023 38.1899C44.1332 38.6043 43.1036 38.4841 42.3534 37.8807L38.2903 34.6129L37.0645 43.2581L43.6452 45.1291L45.2538 60.9475C45.4287 62.6673 44.0789 64.1613 42.3503 64.1613C40.8512 64.1613 39.5959 63.0255 39.4463 61.5339L38.2903 50L32.3548 48.4839V55.4516L28.5667 71.0983C28.2031 72.6003 26.6729 73.5073 25.1807 73.1052C23.7752 72.7266 22.9087 71.3177 23.2048 69.8925L26.4194 54.4194L26.3548 50" stroke="#E03028" stroke-width="2" stroke-linecap="round" stroke-linejoin="round"/>
<path d="M20.5818 76.9059V84.9093H79.5485V48.1347C79.5485 46.4747 78.2029 45.129 76.5429 45.129H65.8653C64.2053 45.129 62.8596 46.4747 62.8596 48.1347V55.0968H52.0845C50.4246 55.0968 49.0789 56.4425 49.0789 58.1024V64.0968H37.7798C36.1198 64.0968 34.7742 65.4425 34.7742 67.1024V73.7742L23.5536 73.9004C21.9069 73.919 20.5818 75.2591 20.5818 76.9059Z" stroke="#E03028" stroke-width="2" stroke-linecap="round" stroke-linejoin="round"/>
<path d="M20.5818 79.5806H79.5485" stroke="#E03028" stroke-width="2" stroke-linecap="round" stroke-linejoin="round"/>
<path d="M71.6451 45.129V28.0084V15.5806L60.1613 21.6696L71.6451 27.5718" stroke="#E03028" stroke-width="2" stroke-linecap="round" stroke-linejoin="round"/>
</svg>
