<svg width="100" height="100" viewBox="0 0 100 100" fill="none" xmlns="http://www.w3.org/2000/svg">
<path d="M55.2515 47.7427L55.7922 46.9015C55.7836 46.8959 55.7748 46.8905 55.766 46.8852L55.2515 47.7427ZM46.6515 38.0427L47.5326 37.5698L46.6515 38.0427ZM58.3515 47.7427L57.837 46.8852C57.8281 46.8905 57.8194 46.8959 57.8107 46.9015L58.3515 47.7427ZM68.3843 22.6602L67.9138 23.5426L67.9138 23.5426L68.3843 22.6602ZM68.3515 22.6427L67.8742 23.5215L67.8809 23.525L68.3515 22.6427ZM56.7515 16.3427L57.2287 15.4639C56.9311 15.3022 56.5718 15.3022 56.2742 15.4639L56.7515 16.3427ZM45.1515 22.6427L45.622 23.5251L45.6287 23.5214L45.1515 22.6427ZM45.1186 22.6602L45.5891 23.5426L45.5892 23.5426L45.1186 22.6602ZM55.766 46.8852C52.4694 44.9072 49.679 41.5698 47.5326 37.5698L45.7703 38.5155C48.024 42.7155 51.0335 46.3781 54.737 48.6002L55.766 46.8852ZM57.8107 46.9015C57.0667 47.3798 56.8857 47.4177 56.8015 47.4177C56.7172 47.4177 56.5363 47.3798 55.7922 46.9015L54.7107 48.5838C55.3667 49.0055 56.0357 49.4177 56.8015 49.4177C57.5672 49.4177 58.2363 49.0055 58.8922 48.5838L57.8107 46.9015ZM65.9703 37.5698C63.8173 41.5823 61.1251 44.9123 57.837 46.8852L58.866 48.6002C62.5778 46.373 65.4856 42.703 67.7326 38.5155L65.9703 37.5698ZM69.2515 25.4427C69.2515 29.3538 68.1044 33.5926 65.9703 37.5698L67.7326 38.5155C69.9985 34.2927 71.2515 29.7315 71.2515 25.4427H69.2515ZM67.9138 23.5426C68.7285 23.977 68.9532 24.121 69.0724 24.2788C69.1434 24.3727 69.2515 24.578 69.2515 25.4427H71.2515C71.2515 24.5206 71.1625 23.7274 70.6681 23.0731C70.2221 22.4828 69.5132 22.1289 68.8549 21.7778L67.9138 23.5426ZM67.8809 23.525L67.9138 23.5426L68.8549 21.7778L68.822 21.7603L67.8809 23.525ZM56.2742 17.2214L67.8742 23.5214L68.8287 21.7639L57.2287 15.4639L56.2742 17.2214ZM45.6287 23.5214L57.2287 17.2214L56.2742 15.4639L44.6742 21.7639L45.6287 23.5214ZM45.5892 23.5426L45.622 23.525L44.6809 21.7603L44.648 21.7778L45.5892 23.5426ZM44.2515 25.4427C44.2515 24.578 44.3596 24.3727 44.4305 24.2788C44.5498 24.121 44.7744 23.977 45.5891 23.5426L44.648 21.7778C43.9898 22.1289 43.2809 22.4828 42.8348 23.0731C42.3404 23.7274 42.2515 24.5206 42.2515 25.4427H44.2515ZM47.5326 37.5698C45.3985 33.5926 44.2515 29.3538 44.2515 25.4427H42.2515C42.2515 29.7315 43.5044 34.2927 45.7703 38.5155L47.5326 37.5698Z" fill="#E03028"/>
<path d="M52.937 31.9963L55.937 34.7963L62.237 28.2963" stroke="#E03028" stroke-width="2" stroke-miterlimit="13.3333" stroke-linecap="round" stroke-linejoin="round"/>
<path d="M26.2697 75.9211L37.3697 80.9211C39.9697 81.9211 43.8697 81.9211 53.2697 82.0211C60.8697 82.0211 61.8697 82.0211 63.2697 82.0211C66.7697 82.0211 68.1697 81.7211 69.7697 80.0211C74.3697 75.7211 78.9697 71.5211 83.6697 67.2211C85.4697 65.6211 85.4697 62.9211 83.6697 61.3211C81.8697 59.7211 78.9697 59.7211 77.2697 61.3211L67.5697 70.3211C66.7697 71.0211 65.1697 71.3211 63.2697 71.2211C58.8697 71.2211 51.6697 71.2211 47.1697 71.2211C45.2697 71.2211 43.6697 69.8211 43.6697 68.0211C43.6697 66.2211 45.2697 64.8211 47.1697 64.8211H56.3697C58.4697 64.8211 60.2697 63.2211 60.2697 61.2211C60.2697 59.2211 58.5697 57.6211 56.3697 57.6211H33.7697C30.6697 57.6211 27.8697 59.0211 26.1697 61.2211" stroke="#E03028" stroke-width="2" stroke-miterlimit="13.3333" stroke-linecap="round" stroke-linejoin="round"/>
<path fill-rule="evenodd" clip-rule="evenodd" d="M34.3999 52.6663C34.3999 44.8237 38.6585 37.9756 44.9894 34.3086C44.7466 33.6679 44.5281 33.0244 44.3347 32.3801C37.216 36.3417 32.3999 43.9416 32.3999 52.6663C32.3999 54.3467 32.5785 55.9853 32.9179 57.5643C33.1989 57.5408 33.483 57.5288 33.7698 57.5288H34.9602C34.5937 55.9674 34.3999 54.3395 34.3999 52.6663ZM66.7037 70.7294C67.0495 70.5949 67.3421 70.4281 67.5698 70.2288L67.8405 69.9776C67.4702 70.24 67.0911 70.4907 66.7037 70.7294ZM71.9412 66.1728L77.1087 61.3783C78.1993 58.6884 78.7999 55.7475 78.7999 52.6663C78.7999 44.7495 74.8345 37.7588 68.7814 33.5722C68.557 34.2157 68.3079 34.8571 68.0348 35.4943C73.3459 39.3469 76.7999 45.6033 76.7999 52.6663C76.7999 57.7987 74.9761 62.5051 71.9412 66.1728Z" fill="#E03028"/>
<path d="M26.2697 78.2262V59.0262C26.2697 57.1262 24.6697 55.6262 22.5697 55.6262H18.6697C16.6697 55.6262 14.9697 57.1262 14.9697 59.0262V78.1262C14.9697 80.0262 16.5697 81.5262 18.6697 81.5262H22.5697C24.5697 81.5262 26.2697 80.0262 26.2697 78.2262Z" stroke="#E03028" stroke-width="2" stroke-miterlimit="13.3333" stroke-linecap="round" stroke-linejoin="round"/>
</svg>
