<svg width="100" height="100" viewBox="0 0 100 100" fill="none" xmlns="http://www.w3.org/2000/svg">
<path d="M21.9904 32.7009V21.1651C21.9904 18.031 24.5311 15.4902 27.6652 15.4902H56.465C59.599 15.4902 62.1398 18.031 62.1398 21.1651V47.3643" stroke="#E03028" stroke-width="2" stroke-linecap="round" stroke-linejoin="round"/>
<path d="M62.1398 79.6627V80.3252C62.1398 83.4593 59.599 86 56.465 86H27.6652C24.5311 86 21.9904 83.4593 21.9904 80.3252V36.7133" stroke="#E03028" stroke-width="2" stroke-linecap="round" stroke-linejoin="round"/>
<path d="M45.5142 20.5266H38.6158C37.5914 20.5266 36.6465 19.9745 36.1437 19.082L34.1202 15.4902H50.0098L47.9863 19.082C47.4835 19.9745 46.5386 20.5266 45.5142 20.5266Z" stroke="#E03028" stroke-width="2" stroke-linecap="round" stroke-linejoin="round"/>
<path d="M73.9839 79.6626H78.2776C79.6715 79.6626 80.8015 78.5326 80.8015 77.1387V49.8882C80.8015 48.4943 79.6715 47.3643 78.2776 47.3643H30.8107C29.4169 47.3643 28.2869 48.4943 28.2869 49.8882V77.1387C28.2869 78.5326 29.4169 79.6626 30.8107 79.6626H69.7302" stroke="#E03028" stroke-width="2" stroke-linecap="round" stroke-linejoin="round"/>
<path d="M43.2409 60.1693V66.8576C43.2409 67.5547 42.676 68.1196 41.979 68.1196H35.2907C34.5937 68.1196 34.0288 67.5547 34.0288 66.8576V60.1693C34.0288 59.4723 34.5937 58.9073 35.2907 58.9073H41.9791C42.676 58.9073 43.2409 59.4724 43.2409 60.1693Z" stroke="#E03028" stroke-width="2" stroke-linecap="round" stroke-linejoin="round"/>
<path d="M34.0288 63.5135H36.0479" stroke="#E03028" stroke-width="2" stroke-linecap="round" stroke-linejoin="round"/>
<path d="M41.2218 63.5135H43.2409" stroke="#E03028" stroke-width="2" stroke-linecap="round" stroke-linejoin="round"/>
<path d="M34.0288 73.7104H59.6463" stroke="#E03028" stroke-width="2" stroke-linecap="round" stroke-linejoin="round"/>
<path d="M64.7482 73.7104H71.2498" stroke="#E03028" stroke-width="2" stroke-linecap="round" stroke-linejoin="round"/>
<path d="M42.065 42.5583C46.6631 42.5583 50.3906 38.8805 50.3906 34.3437C50.3906 29.8069 46.6631 26.1291 42.065 26.1291C37.467 26.1291 33.7395 29.8069 33.7395 34.3437C33.7395 38.8805 37.467 42.5583 42.065 42.5583Z" stroke="#E03028" stroke-width="2" stroke-linecap="round" stroke-linejoin="round"/>
<path d="M38.4303 34.6368L40.7905 36.997L45.6998 32.0875" stroke="#E03028" stroke-width="2" stroke-linecap="round" stroke-linejoin="round"/>
<path d="M63.6258 61.9267C65.7744 61.9267 67.5161 60.185 67.5161 58.0365C67.5161 55.888 65.7744 54.1462 63.6258 54.1462C61.4773 54.1462 59.7356 55.888 59.7356 58.0365C59.7356 60.185 61.4773 61.9267 63.6258 61.9267Z" stroke="#E03028" stroke-width="2" stroke-linecap="round" stroke-linejoin="round"/>
<path d="M56.9856 68.567C56.9856 64.8997 59.9586 61.9267 63.6259 61.9267C67.2933 61.9267 70.2662 64.8997 70.2662 68.567" stroke="#E03028" stroke-width="2" stroke-linecap="round" stroke-linejoin="round"/>
</svg>
