<svg width="100" height="100" viewBox="0 0 100 100" fill="none" xmlns="http://www.w3.org/2000/svg">
<path d="M17.8667 60.2667H26.8C28.4 60.2667 29.7333 61.6001 29.7333 63.2001V82.1334C29.7333 83.7334 28.4 85.0667 26.8 85.0667H17.8667C16.2667 85.0667 14.9333 83.7334 14.9333 82.1334V63.2001C14.9333 61.6001 16.2667 60.2667 17.8667 60.2667Z" stroke="#E03028" stroke-width="2" stroke-miterlimit="13.3333" stroke-linecap="round" stroke-linejoin="round"/>
<path d="M29.7738 63.2C34.5738 59.7333 41.1071 59.6 46.1738 62.9334L46.5738 63.2H58.1738C60.5738 63.2 62.5738 65.2 62.5738 67.6C62.5738 70 60.5738 72 58.1738 72H45.1071H59.2405C61.3738 72 63.5071 71.2 65.1071 69.7333L78.7071 57.4667C80.1738 56.1334 82.4405 56.1334 83.9071 57.6C85.3738 59.0667 85.3738 61.3334 84.0405 62.8L69.5071 78.4C67.3738 80.8 64.1738 82.1334 60.9738 82.1334H29.7738V63.2Z" stroke="#E03028" stroke-width="2" stroke-miterlimit="13.3333" stroke-linecap="round" stroke-linejoin="round"/>
<path d="M58.4521 17.2104L74.3188 46.0104C75.9188 48.9437 73.7854 52.4104 70.4521 52.4104H38.7188C35.3854 52.4104 33.2521 48.8104 34.8521 46.0104L50.7188 17.2104C52.4521 14.2771 56.7187 14.2771 58.4521 17.2104Z" stroke="#E03028" stroke-width="2" stroke-miterlimit="13.3333" stroke-linecap="round" stroke-linejoin="round"/>
<path d="M54.6287 36.5312V27.0646" stroke="#E03028" stroke-width="2" stroke-miterlimit="13.3333" stroke-linecap="round" stroke-linejoin="round"/>
<path d="M56.762 43.7312C56.762 44.9312 55.8287 45.8646 54.6287 45.8646C53.4287 45.8646 52.4954 44.9312 52.4954 43.7312C52.4954 42.5312 53.4287 41.5979 54.6287 41.5979C55.8287 41.5979 56.762 42.5312 56.762 43.7312Z" stroke="#E03028" stroke-width="2" stroke-miterlimit="13.3333" stroke-linecap="round" stroke-linejoin="round"/>
</svg>
