<svg width="100" height="100" viewBox="0 0 100 100" fill="none" xmlns="http://www.w3.org/2000/svg">
<path d="M49.3828 19.0326C48.8364 19.9462 48.1416 20.8427 47.309 21.6753C43.7638 25.2205 39.0609 26.2656 36.8049 24.0095C34.5488 21.7534 35.5939 17.0506 39.1391 13.5053C42.6844 9.96013 47.3873 8.91505 49.6433 11.1711C50.7353 12.2631 51.0539 13.9282 50.69 15.7578" stroke="#E03028" stroke-width="1.7" stroke-linecap="round" stroke-linejoin="round"/>
<path d="M49.6433 11.1711L51.9775 13.5054C54.2336 15.7614 53.1886 20.4643 49.6433 24.0096C46.098 27.5548 41.3952 28.5999 39.1391 26.3439L36.8048 24.0096" stroke="#E03028" stroke-width="1.7" stroke-linecap="round" stroke-linejoin="round"/>
<path d="M49.7348 47.3347C49.559 48.3847 49.2388 49.4728 48.767 50.5515C46.758 55.1451 42.7596 57.8325 39.8364 56.554C36.9132 55.2755 36.1721 50.5153 38.1811 45.9217C40.1903 41.3281 44.1887 38.6407 47.1118 39.9191C48.5268 40.538 49.4303 41.9724 49.7584 43.8088" stroke="#E03028" stroke-width="1.7" stroke-linecap="round" stroke-linejoin="round"/>
<path d="M47.1119 39.9191L50.1364 41.2419C53.0596 42.5204 53.8007 47.2807 51.7916 51.8743C49.7825 56.4679 45.7842 59.1553 42.8609 57.8769L39.8364 56.554" stroke="#E03028" stroke-width="1.7" stroke-linecap="round" stroke-linejoin="round"/>
<path d="M59.4069 35.9773C62.9522 39.5226 67.655 40.5676 69.9112 38.3116C72.1672 36.0556 71.1221 31.3527 67.5769 27.8075C64.0316 24.2622 59.3288 23.2171 57.0727 25.4731C54.8167 27.7292 55.8617 32.432 59.4069 35.9773Z" stroke="#E03028" stroke-width="1.7" stroke-linecap="round" stroke-linejoin="round"/>
<path d="M57.0726 25.4731L54.7383 27.8073C52.4823 30.0635 53.5273 34.7664 57.0726 38.3116C60.6179 41.8568 65.3207 42.9019 67.5768 40.6458L69.9111 38.3116" stroke="#E03028" stroke-width="1.7" stroke-linecap="round" stroke-linejoin="round"/>
<path d="M44.5988 15.0569C45.128 15.6674 45.3607 16.9674 44.5516 17.8768C44.0861 18.3999 43.3375 18.6179 42.6457 18.5099C41.9538 18.4019 40.8695 17.2863 40.339 16.8293C40.3715 18.3552 40.2461 20.2483 40.0994 22.0667" stroke="#E03028" stroke-width="1.7" stroke-linecap="round" stroke-linejoin="round"/>
<path d="M47.1093 18.2702L43.423 13.5517" stroke="#E03028" stroke-width="1.7" stroke-linecap="round" stroke-linejoin="round"/>
<path d="M44.9228 19.1086L42.7798 16.3022" stroke="#E03028" stroke-width="1.7" stroke-linecap="round" stroke-linejoin="round"/>
<path d="M60.7338 30.3752C61.3324 29.8441 62.6172 29.5988 63.527 30.3897C64.0504 30.8447 64.2749 31.5836 64.1758 32.27C64.0767 32.9564 62.9843 34.043 62.5378 34.5736C64.0486 34.524 65.9249 34.6266 67.7274 34.7511" stroke="#E03028" stroke-width="1.7" stroke-linecap="round" stroke-linejoin="round"/>
<path d="M63.8873 27.8523L59.2565 31.557" stroke="#E03028" stroke-width="1.7" stroke-linecap="round" stroke-linejoin="round"/>
<path d="M64.7427 30.008L61.9878 32.1624" stroke="#E03028" stroke-width="1.7" stroke-linecap="round" stroke-linejoin="round"/>
<path d="M42.9429 45.7062C43.5969 45.9108 44.3443 46.7451 44.1659 47.762C44.0632 48.347 43.6202 48.8381 43.0728 49.0685C42.5255 49.299 41.2457 48.9774 40.6592 48.8841C41.3629 49.9707 42.1163 51.3926 42.821 52.7702" stroke="#E03028" stroke-width="1.7" stroke-linecap="round" stroke-linejoin="round"/>
<path d="M46.1866 46.9058L41.4232 45.1443" stroke="#E03028" stroke-width="1.7" stroke-linecap="round" stroke-linejoin="round"/>
<path d="M44.9829 48.4854L42.1854 47.4156" stroke="#E03028" stroke-width="1.7" stroke-linecap="round" stroke-linejoin="round"/>
<path d="M32.4732 84.8307H79.3141C80.7457 84.8307 81.9078 85.9928 81.9078 87.4245C81.9078 88.1409 81.6176 88.7894 81.1476 89.2593C80.6777 89.7293 80.0305 90.0194 79.3141 90.0194H20.686C19.2543 90.0194 18.0923 88.8574 18.0923 87.4245C18.0923 86.708 18.3825 86.0608 18.8524 85.5909C19.3224 85.1209 19.9695 84.8307 20.686 84.8307H27.9792" stroke="#E03028" stroke-width="1.7" stroke-linecap="round" stroke-linejoin="round"/>
<path d="M77.8797 64.1855H22.1204C19.8957 64.1855 18.0923 65.989 18.0923 68.2136V80.8027C18.0923 83.0273 19.8957 84.8307 22.1204 84.8307H77.8797C80.1043 84.8307 81.9078 83.0273 81.9078 80.8027V68.2136C81.9078 65.989 80.1043 64.1855 77.8797 64.1855Z" stroke="#E03028" stroke-width="1.7" stroke-linecap="round" stroke-linejoin="round"/>
<path d="M49.4312 80.0194C48.1769 79.2697 47.1563 78.0025 46.3692 76.5356C45.5768 75.0579 45.1473 73.4975 45.1599 72.0253C45.1653 71.3728 45.3127 71.3008 45.8535 71.0096L50.0008 68.7715L54.1481 71.0096C54.689 71.3008 54.8345 71.3728 54.8399 72.0253C54.8543 73.4975 54.4231 75.0579 53.6306 76.5356C52.8436 78.0025 51.8247 79.2697 50.5704 80.0194C50.0673 80.3196 49.9325 80.3196 49.4312 80.0194Z" stroke="#E03028" stroke-width="1.7" stroke-linecap="round" stroke-linejoin="round"/>
<path d="M48.6315 74.3551L49.7204 75.3744L51.9773 73.059" stroke="#E03028" stroke-width="1.7" stroke-linecap="round" stroke-linejoin="round"/>
</svg>
