<svg width="100" height="100" viewBox="0 0 100 100" fill="none" xmlns="http://www.w3.org/2000/svg">
<path d="M66.0503 14.9542C62.717 14.9542 60.0503 17.6208 60.0503 20.9542C60.0503 24.2875 62.717 26.9542 66.0503 26.9542C69.3836 26.9542 72.0503 24.2875 72.0503 20.9542C72.0503 17.6208 69.3836 14.9542 66.0503 14.9542Z" stroke="#E03028" stroke-width="2" stroke-miterlimit="13.3333" stroke-linecap="round" stroke-linejoin="round"/>
<path d="M60.7025 35.0488V43.1821" stroke="#E03028" stroke-width="2" stroke-miterlimit="13.3333" stroke-linecap="round" stroke-linejoin="round"/>
<path d="M71.3992 35.0488V43.1821" stroke="#E03028" stroke-width="2" stroke-miterlimit="13.3333" stroke-linecap="round" stroke-linejoin="round"/>
<path d="M33.9497 56.682C30.6164 56.682 27.9497 59.3486 27.9497 62.682C27.9497 66.0153 30.6164 68.6819 33.9497 68.6819C37.283 68.6819 39.9497 66.0153 39.9497 62.682C39.9497 59.482 37.1497 56.682 33.9497 56.682Z" stroke="#E03028" stroke-width="2" stroke-miterlimit="13.3333" stroke-linecap="round" stroke-linejoin="round"/>
<path d="M28.6008 76.91V85.0433" stroke="#E03028" stroke-width="2" stroke-miterlimit="13.3333" stroke-linecap="round" stroke-linejoin="round"/>
<path d="M39.2974 76.91V85.0433" stroke="#E03028" stroke-width="2" stroke-miterlimit="13.3333" stroke-linecap="round" stroke-linejoin="round"/>
<path d="M38.7099 68.6409H29.1099C26.0432 68.6409 23.6432 71.1743 23.6432 74.1076V83.4409C23.6432 84.2409 24.3099 84.9076 25.1099 84.9076H42.7099C43.5099 84.9076 44.1765 84.2409 44.1765 83.4409V74.1076C44.1765 71.1743 41.7765 68.6409 38.7099 68.6409Z" stroke="#E03028" stroke-width="2" stroke-miterlimit="13.3333" stroke-linecap="round" stroke-linejoin="round"/>
<path d="M26.0968 48.3242H27.8301C28.2301 48.3242 28.4968 48.5909 28.4968 48.9909V53.9242C28.4968 54.4575 29.1634 54.7242 29.4301 54.3242L33.8301 48.9909C34.0968 48.5909 34.6301 48.3242 35.1634 48.3242H49.4301C50.7634 48.3242 51.8301 47.2575 51.8301 45.9242V29.6575C51.8301 28.3242 50.7634 27.2575 49.4301 27.2575H26.0968C24.7634 27.2575 23.6968 28.3242 23.6968 29.6575V45.9242C23.6968 47.1242 24.7634 48.3242 26.0968 48.3242Z" stroke="#E03028" stroke-width="2" stroke-miterlimit="13.3333" stroke-linecap="round" stroke-linejoin="round"/>
<path d="M53.7526 58.5445H70.8192" stroke="#E03028" stroke-width="2" stroke-miterlimit="13.3333" stroke-linecap="round" stroke-linejoin="round"/>
<path d="M53.7526 63.6056H70.8192" stroke="#E03028" stroke-width="2" stroke-miterlimit="13.3333" stroke-linecap="round" stroke-linejoin="round"/>
<path d="M53.7526 68.5333H70.8192" stroke="#E03028" stroke-width="2" stroke-miterlimit="13.3333" stroke-linecap="round" stroke-linejoin="round"/>
<path d="M29.2369 32.7189H46.3036" stroke="#E03028" stroke-width="2" stroke-miterlimit="13.3333" stroke-linecap="round" stroke-linejoin="round"/>
<path d="M29.2369 37.78H46.3036" stroke="#E03028" stroke-width="2" stroke-miterlimit="13.3333" stroke-linecap="round" stroke-linejoin="round"/>
<path d="M29.2369 42.8405H46.3036" stroke="#E03028" stroke-width="2" stroke-miterlimit="13.3333" stroke-linecap="round" stroke-linejoin="round"/>
<path d="M64.7563 74.066H73.9563C75.2896 74.066 76.3562 72.9994 76.3562 71.6661V55.3994C76.3562 54.066 75.2896 52.9994 73.9563 52.9994H72.2229C71.8229 52.9994 71.5562 52.7327 71.5562 52.3327V47.3994C71.5562 46.866 70.8896 46.5994 70.6229 46.9994L66.2229 52.3327C65.9562 52.7327 65.4229 52.9994 64.8896 52.9994H50.6229C49.2896 52.9994 48.2229 54.066 48.2229 55.3994V71.6661C48.2229 72.9994 49.2896 74.066 50.6229 74.066H59.9563" stroke="#E03028" stroke-width="2" stroke-miterlimit="13.3333" stroke-linecap="round" stroke-linejoin="round"/>
<path d="M76.2796 34.0629V32.3295C76.2796 29.2629 73.7462 26.8629 70.8129 26.8629H61.2129C58.1462 26.8629 55.7462 29.3962 55.7462 32.3295V41.6629C55.7462 42.4629 56.4129 43.1295 57.2129 43.1295H74.8129C75.6129 43.1295 76.2796 42.4629 76.2796 41.6629V38.8629" stroke="#E03028" stroke-width="2" stroke-miterlimit="13.3333" stroke-linecap="round" stroke-linejoin="round"/>
</svg>
