<svg width="100" height="100" viewBox="0 0 100 100" fill="none" xmlns="http://www.w3.org/2000/svg">
<path d="M14 64.8945C14 64.8945 24.0277 47.3668 48.4339 48.4744C72.8401 49.582 81.4238 64.8945 81.4238 64.8945C81.4238 64.8945 68.416 82.0342 47.5735 81.5633C23.066 81.0095 14 64.8945 14 64.8945Z" stroke="#E03028" stroke-width="1.7" stroke-linecap="round" stroke-linejoin="round"/>
<path d="M47.7119 81.1867C56.6687 81.1867 63.9296 73.9258 63.9296 64.969C63.9296 56.0122 56.6687 48.7513 47.7119 48.7513C38.7551 48.7513 31.4941 56.0122 31.4941 64.969C31.4941 73.9258 38.7551 81.1867 47.7119 81.1867Z" stroke="#E03028" stroke-width="1.7" stroke-linecap="round" stroke-linejoin="round"/>
<path d="M59.8109 64.969C59.8109 71.6511 54.394 77.068 47.712 77.068C41.0299 77.068 35.613 71.6511 35.613 64.969C35.613 58.287 41.0299 52.8701 47.712 52.8701V64.969H59.8109Z" stroke="#E03028" stroke-width="1.7" stroke-linecap="round" stroke-linejoin="round"/>
<path d="M47.7119 52.8701C47.7119 52.8701 44.9187 52.3826 42.3557 57.211C40.8554 60.0375 38.1237 72.5296 47.1235 77.0255" stroke="#E03028" stroke-width="1.7" stroke-linecap="round" stroke-linejoin="round"/>
<path d="M54.487 65.2265C54.487 65.2265 54.8653 74.7275 47.885 77.0679" stroke="#E03028" stroke-width="1.7" stroke-linecap="round" stroke-linejoin="round"/>
<path d="M47.712 76.7868V64.969H35.613" stroke="#E03028" stroke-width="1.7" stroke-linecap="round" stroke-linejoin="round"/>
<path d="M38.4282 57.211C38.4282 57.211 42.1221 59.5934 47.5735 59.1521" stroke="#E03028" stroke-width="1.7" stroke-linecap="round" stroke-linejoin="round"/>
<path d="M38.3875 72.3186C38.3875 72.3186 46.9764 68.1668 57.2302 72.3186" stroke="#E03028" stroke-width="1.7" stroke-linecap="round" stroke-linejoin="round"/>
<path d="M50.6193 52.6278C60.276 53.0085 60.3136 61.7983 60.3136 61.7983H50.6193V32.1063H57.0232V40.4824" stroke="#E03028" stroke-width="1.7" stroke-linecap="round" stroke-linejoin="round"/>
<path d="M50.6193 40.9669H85.6818" stroke="#E03028" stroke-width="1.7" stroke-linecap="round" stroke-linejoin="round"/>
<path d="M60.124 40.8335V19.8538H66.528V40.8335" stroke="#E03028" stroke-width="1.7" stroke-linecap="round" stroke-linejoin="round"/>
<path d="M79.278 40.8335V34.8752H85.6819V40.8335" stroke="#E03028" stroke-width="1.7" stroke-linecap="round" stroke-linejoin="round"/>
<path d="M69.6205 40.8335V27.6068H76.0244V40.8335" stroke="#E03028" stroke-width="1.7" stroke-linecap="round" stroke-linejoin="round"/>
</svg>
