<svg width="72" height="73" viewBox="0 0 72 73" fill="none" xmlns="http://www.w3.org/2000/svg">
<path d="M37.2406 13.5458H42.1633C42.696 13.5458 43.1268 13.9777 43.1268 14.5104V19.9689C43.1268 20.5005 42.696 20.9324 42.1633 20.9324H31.5964C31.0637 20.9324 30.6328 20.5005 30.6328 19.9689V14.5104C30.6328 13.9776 31.0636 13.5458 31.5964 13.5458H33.5266" stroke="#E03028" stroke-width="2" stroke-linecap="round" stroke-linejoin="round"/>
<path d="M34.3126 23.6757H39.4471" stroke="#E03028" stroke-width="2" stroke-linecap="round" stroke-linejoin="round"/>
<path d="M36.8798 23.1373V21.3849" stroke="#E03028" stroke-width="2" stroke-linecap="round" stroke-linejoin="round"/>
<path d="M54.4694 29.229L53.6842 28.4438C52.3958 27.1554 50.3069 27.1554 49.0185 28.4438C47.7301 29.7321 47.7301 31.8211 49.0185 33.1095L54.4694 38.5604L59.9204 33.1095C61.2088 31.8211 61.2088 29.7321 59.9204 28.4438C58.632 27.1554 56.543 27.1554 55.2547 28.4438L54.4694 29.229Z" stroke="#E03028" stroke-width="2" stroke-linecap="round" stroke-linejoin="round"/>
<path d="M17.1365 37.0571H19.0504" stroke="#E03028" stroke-width="2" stroke-linecap="round" stroke-linejoin="round"/>
<path d="M24.2211 33.0388L23.9687 32.3597C23.5497 31.2323 22.4738 30.4843 21.271 30.4843H14.9158C13.713 30.4843 12.6371 31.2323 12.2181 32.3597L10.7592 36.2853C10.182 37.8388 11.3309 39.4915 12.9882 39.4915C13.8128 39.4915 14.5785 39.0643 15.0116 38.3626L15.4251 37.6928" stroke="#E03028" stroke-width="2" stroke-linecap="round" stroke-linejoin="round"/>
<path d="M20.7618 37.6929L21.1752 38.3626C21.6083 39.0643 22.374 39.4915 23.1986 39.4915C24.8559 39.4915 26.0049 37.8388 25.4276 36.2853L25.1752 35.6063" stroke="#E03028" stroke-width="2" stroke-linecap="round" stroke-linejoin="round"/>
<path d="M17.1365 37.0571C17.1365 36.5193 16.7005 36.0834 16.1627 36.0834C15.6249 36.0834 15.1889 36.5193 15.1889 37.0571C15.1889 37.5949 15.6249 38.0309 16.1627 38.0309C16.7005 38.0309 17.1365 37.5949 17.1365 37.0571Z" stroke="#E03028" stroke-width="2" stroke-linecap="round" stroke-linejoin="round"/>
<path d="M19.0504 37.0571C19.0504 36.5193 19.4864 36.0834 20.0242 36.0834C20.5619 36.0834 20.9979 36.5193 20.9979 37.0571C20.9979 37.5949 20.5619 38.0309 20.0242 38.0309C19.4864 38.0309 19.0504 37.5949 19.0504 37.0571Z" stroke="#E03028" stroke-width="2" stroke-linecap="round" stroke-linejoin="round"/>
<path d="M18.8238 29.0236H17.3631C16.5564 29.0236 15.9025 29.6776 15.9025 30.4843H20.2844C20.2844 29.6776 19.6304 29.0236 18.8238 29.0236Z" fill="#E03028" stroke="#E03028" stroke-width="2" stroke-linecap="round" stroke-linejoin="round"/>
<path d="M18.0934 29.0236V28.4911C18.0934 27.76 17.5008 27.1674 16.7697 27.1674H13.5746C12.8435 27.1674 12.2509 26.5747 12.2509 25.8437C12.2509 25.1126 12.8435 24.52 13.5746 24.52H18.0973" stroke="#E03028" stroke-width="2" stroke-linecap="round" stroke-linejoin="round"/>
<path d="M41.0405 38.6852C41.0405 42.2233 39.1754 45.8084 36.8745 45.8084C34.5737 45.8084 32.7085 42.2233 32.7085 38.6852C32.7085 36.3843 34.5737 34.5192 36.8745 34.5192C39.1754 34.5192 41.0405 36.3843 41.0405 38.6852Z" stroke="#E03028" stroke-width="2" stroke-linecap="round" stroke-linejoin="round"/>
<path d="M46.9334 59.275C47.2586 55.2273 45.8491 50.6013 45.8491 50.6013C42.3007 49.3934 39.8136 47.8184 39.8136 47.8184L36.873 52.1553L33.9227 47.8184C31.9711 49.5893 27.7788 50.6013 27.7788 50.6013C26.1886 55.1188 26.9691 59.275 26.9691 59.275H46.9334Z" stroke="#E03028" stroke-width="2" stroke-linecap="round" stroke-linejoin="round"/>
<path d="M45.0654 18.5692C48.2801 20.1435 50.9748 22.6162 52.8223 25.6602" stroke="#E03028" stroke-width="2" stroke-linecap="round" stroke-linejoin="round"/>
<path d="M20.284 26.8295C22.1511 23.1854 25.1832 20.2368 28.8888 18.4753" stroke="#E03028" stroke-width="2" stroke-linecap="round" stroke-linejoin="round"/>
<path d="M25.5786 50.1337C22.2355 47.6651 19.9896 44.2887 18.8813 40.164" stroke="#E03028" stroke-width="2" stroke-linecap="round" stroke-linejoin="round"/>
<path d="M54.5095 41.3708C53.2215 45.1216 51.236 47.9925 48.0522 50.2312" stroke="#E03028" stroke-width="2" stroke-linecap="round" stroke-linejoin="round"/>
</svg>
