<svg width="140" height="134" viewBox="0 0 140 134" fill="none" xmlns="http://www.w3.org/2000/svg">
<path d="M106.81 121.692C118.675 121.692 128.292 112.074 128.292 100.21C128.292 88.3459 118.675 78.7281 106.81 78.7281C94.9464 78.7281 85.3286 88.3459 85.3286 100.21C85.3286 112.074 94.9464 121.692 106.81 121.692Z" stroke="#E03028" stroke-width="2" stroke-linecap="round" stroke-linejoin="round"/>
<path d="M123.772 113.39L137.275 126.893C138.584 128.202 138.584 130.326 137.275 131.636C135.965 132.945 133.841 132.945 132.532 131.636L118.878 117.982" stroke="#E03028" stroke-width="2" stroke-linecap="round" stroke-linejoin="round"/>
<path d="M48.8802 1.38232H7.3507C4.25361 1.38232 1.74292 3.89301 1.74292 6.9901V96.4885C1.74292 99.5856 4.25361 102.096 7.3507 102.096H48.8802C51.9773 102.096 54.488 99.5856 54.488 96.4885V6.9901C54.488 3.89301 51.9773 1.38232 48.8802 1.38232Z" stroke="#E03028" stroke-width="2" stroke-linecap="round" stroke-linejoin="round"/>
<path d="M79.7531 102.097H60.0985C57.0014 102.097 54.4907 99.5859 54.4907 96.4888V40.3822C54.4907 37.2851 57.0014 34.7744 60.0985 34.7744H101.628C104.725 34.7744 107.236 37.2851 107.236 40.3822V72.569" stroke="#E03028" stroke-width="2" stroke-linecap="round" stroke-linejoin="round"/>
<path d="M23.6513 14.9901H12.8291V23.2571H23.6513V14.9901Z" stroke="#E03028" stroke-width="2" stroke-linecap="round" stroke-linejoin="round"/>
<path d="M43.4072 14.9901H32.585V23.2571H43.4072V14.9901Z" stroke="#E03028" stroke-width="2" stroke-linecap="round" stroke-linejoin="round"/>
<path d="M23.6513 32.4636H12.8291V40.7306H23.6513V32.4636Z" stroke="#E03028" stroke-width="2" stroke-linecap="round" stroke-linejoin="round"/>
<path d="M43.4072 32.4636H32.585V40.7306H43.4072V32.4636Z" stroke="#E03028" stroke-width="2" stroke-linecap="round" stroke-linejoin="round"/>
<path d="M23.6513 49.937H12.8291V58.204H23.6513V49.937Z" stroke="#E03028" stroke-width="2" stroke-linecap="round" stroke-linejoin="round"/>
<path d="M43.4072 49.937H32.585V58.204H43.4072V49.937Z" stroke="#E03028" stroke-width="2" stroke-linecap="round" stroke-linejoin="round"/>
<path d="M76.3994 46.8282H65.5771V55.0952H76.3994V46.8282Z" stroke="#E03028" stroke-width="2" stroke-linecap="round" stroke-linejoin="round"/>
<path d="M96.1508 46.8282H85.3286V55.0952H96.1508V46.8282Z" stroke="#E03028" stroke-width="2" stroke-linecap="round" stroke-linejoin="round"/>
<path d="M76.3994 64.3018H65.5771V72.5687H76.3994V64.3018Z" stroke="#E03028" stroke-width="2" stroke-linecap="round" stroke-linejoin="round"/>
<path d="M96.1508 64.3018H85.3286V72.5687H96.1508V64.3018Z" stroke="#E03028" stroke-width="2" stroke-linecap="round" stroke-linejoin="round"/>
<path d="M22.6394 71.5579H33.59C36.0197 71.5579 37.9923 73.5305 37.9923 75.9602V102.097H18.2371V75.9602C18.2371 73.5305 20.2097 71.5579 22.6394 71.5579Z" stroke="#E03028" stroke-width="2" stroke-linecap="round" stroke-linejoin="round"/>
<path d="M79.1373 102.096H71.7011C71.3055 102.096 70.9849 101.776 70.9849 101.38V87.4595C70.9849 84.6326 73.2765 82.3409 76.1034 82.3409H85.6216" stroke="#E03028" stroke-width="2" stroke-linecap="round" stroke-linejoin="round"/>
</svg>
