<svg width="25" height="26" viewBox="0 0 25 26" fill="none" xmlns="http://www.w3.org/2000/svg">
<path d="M3.8 10.8471H2.33333C1.6 10.8471 1 11.4471 1 12.1805V23.6471C1 24.3805 1.6 24.9805 2.33333 24.9805H19.8C20.5333 24.9805 21.1333 24.3805 21.1333 23.6471V13.4471V10.7805V9.44714C21.1333 8.71381 20.5333 8.11381 19.8 8.11381H13.6667C12.9333 8.11381 12.3333 8.71381 12.3333 9.44714C12.3333 10.1805 11.7333 10.7805 11 10.7805H5.33333" stroke="#E03028" stroke-miterlimit="13.3333" stroke-linecap="round" stroke-linejoin="round"/>
<path d="M22.4501 8.11282H22.6501C23.3835 8.11282 23.9835 8.71282 23.9835 9.44616V10.7795V13.4462V23.6462C23.9835 24.3795 23.3835 24.9795 22.6501 24.9795H19.7168" stroke="#E03028" stroke-miterlimit="13.3333" stroke-linecap="round" stroke-linejoin="round"/>
<path d="M17.7621 8.11263V4.64597H7.82878H5.49544H3.16211V10.7793" stroke="#E03028" stroke-miterlimit="13.3333" stroke-linecap="round" stroke-linejoin="round"/>
<path d="M20.0766 8.15332V1.01999H17.7432H7.8099H5.47656V4.68666" stroke="#E03028" stroke-miterlimit="13.3333" stroke-linecap="round" stroke-linejoin="round"/>
<path d="M22.4505 13.711V23.4443H21.1172" stroke="#E03028" stroke-miterlimit="13.3333" stroke-linecap="round" stroke-linejoin="round"/>
<path d="M20.0762 4.71276H22.4095V12.2461" stroke="#E03028" stroke-miterlimit="13.3333" stroke-linecap="round" stroke-linejoin="round"/>
<path d="M5.33008 6.58008H14.1301" stroke="#E03028" stroke-miterlimit="13.3333" stroke-linecap="round" stroke-linejoin="round"/>
<path d="M5.33008 8.44531H10.3967" stroke="#E03028" stroke-miterlimit="13.3333" stroke-linecap="round" stroke-linejoin="round"/>
</svg>
