<svg width="26" height="26" viewBox="0 0 26 26" fill="none" xmlns="http://www.w3.org/2000/svg">
<path d="M16.5504 19.2883C16.5504 19.2883 16.2504 20.3383 15.2004 20.0883C14.1504 19.8383 11.6504 19.2383 11.6504 19.2383" stroke="#E03028" stroke-miterlimit="13.3333" stroke-linecap="round" stroke-linejoin="round"/>
<path d="M16.5504 19.2883C16.5504 19.2883 16.2504 20.3383 15.2004 20.0883C14.1504 19.8383 11.6504 19.2383 11.6504 19.2383" stroke="#E03028" stroke-miterlimit="13.3333" stroke-linecap="round" stroke-linejoin="round"/>
<path d="M10.9004 15.8885C11.8004 15.8885 12.2004 16.1385 15.7004 17.5385C16.9504 18.0385 16.5504 19.2885 16.5504 19.2885L20.7504 18.0385C23.2504 16.3885 24.9504 13.5885 24.9504 10.3385C24.9504 5.28848 20.8504 1.18848 15.8004 1.18848C10.7504 1.18848 6.65039 5.28848 6.65039 10.3385C6.65039 12.4385 7.35039 14.3885 8.55039 15.9385C9.15039 15.9385 9.85039 15.8885 10.9004 15.8885Z" stroke="#E03028" stroke-miterlimit="13.3333" stroke-linecap="round" stroke-linejoin="round"/>
<path d="M24.9498 10.3387C24.9498 8.08867 24.1498 5.98867 22.7498 4.38867C22.2498 4.73867 21.6998 5.38867 22.0498 6.33867C22.6498 8.03867 22.5498 8.73867 21.9498 8.83867C21.3498 8.93867 18.8498 8.18867 18.4498 10.9387C18.0498 13.6887 20.1998 12.8387 20.5498 14.5887C20.7998 15.7387 20.6998 16.8387 21.3498 17.5887C23.5498 15.9387 24.9498 13.3387 24.9498 10.3387Z" stroke="#E03028" stroke-miterlimit="13.3333" stroke-linecap="round" stroke-linejoin="round"/>
<path d="M15.7996 1.18848C15.6996 1.18848 15.5996 1.18848 15.4496 1.18848C15.2996 1.98848 15.5496 2.88848 15.7996 3.63848C16.0496 4.28848 16.8496 4.58848 17.4496 4.18848C17.8496 3.93848 18.2496 3.73848 18.5996 3.58848C19.3996 3.28848 19.2996 4.28848 20.3996 4.13848C20.9996 4.03848 21.3496 3.58848 21.5496 3.23848C20.0496 1.98848 17.9996 1.18848 15.7996 1.18848Z" stroke="#E03028" stroke-miterlimit="13.3333" stroke-linecap="round" stroke-linejoin="round"/>
<path d="M20.55 21.6887C22.25 20.9387 23.8 20.2387 23.95 20.1887C24.2 20.0887 25.4 19.3387 24.85 18.1387C24.25 16.8387 22.8 17.4387 22.65 17.4887L16.55 19.2887C16.55 19.2887 16.95 18.0887 15.7 17.5387C12.2 16.1387 11.8 15.8887 10.9 15.8887C8.15 15.8887 7.65 15.9387 6.3 16.5387C5.6 16.8387 4.9 17.2387 4.3 17.6887C3.9 17.9887 3.45 18.1887 2.95 18.3387L1.3 18.7887C1.1 18.8387 1 19.0387 1 19.1887V24.6887C1 24.9887 1.3 25.1887 1.6 25.0887L7.35 22.8887C8.6 22.4887 9.95 22.4387 11 22.8387L13.25 23.7387C13.75 23.8887 14.9 24.1887 16.05 23.5887C16.15 23.5387 17.15 23.0887 18.4 22.5387L19 22.2887" stroke="#E03028" stroke-miterlimit="13.3333" stroke-linecap="round" stroke-linejoin="round"/>
<path d="M16.0992 13.7885C15.2492 11.4885 13.6492 12.1385 12.0492 12.4385C10.4492 12.7385 9.44922 11.8385 9.44922 10.6385C9.44922 9.43848 11.2492 9.23848 12.1492 8.83848C12.9992 8.48848 13.1492 7.43848 12.6492 6.63848C12.1492 5.83848 12.5992 5.78848 12.9992 4.43848C13.2492 3.58848 12.7492 2.58848 12.2992 1.93848C8.99922 3.33848 6.69922 6.58848 6.69922 10.3885C6.69922 10.9885 6.74922 11.5385 6.84922 12.0885C7.29922 12.0385 8.24922 12.0885 8.79922 12.9885C9.34922 13.9885 9.94922 14.7385 9.29922 15.9885C9.74922 15.9885 10.2992 15.9885 10.9992 15.9885C11.8492 15.9885 12.2992 16.2385 15.4992 17.5385C15.6992 16.8385 16.0492 16.1885 16.1992 15.5885" stroke="#E03028" stroke-miterlimit="13.3333" stroke-linecap="round" stroke-linejoin="round"/>
</svg>
