<svg width="72" height="73" viewBox="0 0 72 73" fill="none" xmlns="http://www.w3.org/2000/svg">
<path d="M26.7289 61.2823H14.4409C13.9609 61.2823 13.5769 60.8983 13.5769 60.4183V57.7303C13.5769 57.2503 13.9609 56.8663 14.4409 56.8663H26.7289C27.2089 56.8663 27.5929 57.2503 27.5929 57.7303V60.4183C27.5929 60.8983 27.2089 61.2823 26.7289 61.2823Z" stroke="#E03028" stroke-width="1.7" stroke-miterlimit="13.3333" stroke-linecap="round" stroke-linejoin="round"/>
<path d="M14.0523 52.1277C14.4363 52.8957 14.7243 53.6637 14.9163 54.2397C15.1083 54.6237 15.1083 55.1037 15.1083 55.4877V56.8317" stroke="#E03028" stroke-width="1.7" stroke-miterlimit="13.3333" stroke-linecap="round" stroke-linejoin="round"/>
<path d="M26.2061 56.8121C26.2061 56.7161 26.3021 56.6201 26.3021 56.5241L28.4141 52.3961C29.0861 51.0521 29.2781 49.6121 29.1821 48.1721L28.7981 44.6201V35.4041C28.7981 34.3481 28.4141 33.4841 27.3581 33.4841C25.4381 33.2921 23.2301 37.1321 23.2301 40.1081C23.2301 41.5481 23.2301 43.0841 23.2301 43.9481C23.2301 44.3321 23.0381 44.8121 22.7501 45.1001C22.2701 45.5801 21.1181 45.6761 20.5421 45.3881L17.3741 42.2201C16.7021 41.5481 16.3181 40.5881 16.3181 39.6281V37.9961V31.3721C14.7821 32.6201 13.3421 33.8681 12.7661 34.3481C12.0941 34.8281 11.9021 35.5961 11.8061 36.4601L10.9421 44.0441C10.8461 45.1001 11.0381 46.2521 11.6141 47.2121C11.9021 47.7881 12.2861 48.4601 12.6701 49.1321" stroke="#E03028" stroke-width="1.7" stroke-miterlimit="13.3333" stroke-linecap="round" stroke-linejoin="round"/>
<path d="M46.7042 15.3998H45.2642C44.7842 15.3998 44.4002 15.0158 44.4002 14.5358V11.7518C44.4002 11.2718 44.7842 10.8878 45.2642 10.8878H57.5522C58.0322 10.8878 58.4162 11.2718 58.4162 11.7518V14.4398C58.4162 14.9198 58.0322 15.3038 57.5522 15.3038H50.2562" stroke="#E03028" stroke-width="1.7" stroke-miterlimit="13.3333" stroke-linecap="round" stroke-linejoin="round"/>
<path d="M45.794 15.3998C45.794 15.4958 45.6979 15.5918 45.6979 15.6878L43.5859 19.8158C42.9139 21.1598 42.7219 22.5998 42.8179 24.0398L43.2019 27.5918V36.8078C43.2019 37.8638 43.5859 38.7278 44.6419 38.7278C46.5619 38.9198 48.7699 35.0798 48.7699 32.1038C48.7699 30.6638 48.7699 29.1278 48.7699 28.2638C48.7699 27.8798 48.9619 27.3998 49.2499 27.1118C49.7299 26.6318 50.8819 26.5358 51.4579 26.8238L54.6259 29.9918C55.2979 30.6638 55.6819 31.6238 55.6819 32.5838V34.2158V40.9358C57.2179 39.6878 58.658 38.4398 59.234 37.9598C59.906 37.4798 60.098 36.7118 60.194 35.8478L61.0579 28.2638C61.1539 27.2078 60.9619 26.0558 60.3859 25.0958C59.3299 23.1758 57.602 19.9118 56.834 17.8958C56.642 17.5118 56.6419 17.0318 56.6419 16.6478V15.3038" stroke="#E03028" stroke-width="1.7" stroke-miterlimit="13.3333" stroke-linecap="round" stroke-linejoin="round"/>
<path d="M36.0047 32.0364V26.8524C36.0047 26.5644 35.7167 26.2764 35.4287 26.2764H30.8207C30.5327 26.2764 30.2447 26.0844 30.2447 25.7964C29.9567 23.7804 28.2287 22.2444 26.1167 22.2444C24.0047 22.2444 22.2767 23.7804 21.9887 25.7964C21.9887 26.0844 21.7007 26.2764 21.4127 26.2764H16.8047C16.5167 26.2764 16.2287 26.5644 16.2287 26.8524V31.2684" stroke="#E03028" stroke-width="1.7" stroke-miterlimit="13.3333" stroke-linecap="round" stroke-linejoin="round"/>
<path d="M28.8707 46.1066H35.3987C35.6867 46.1066 35.9747 45.8187 35.9747 45.5307V40.3466" stroke="#E03028" stroke-width="1.7" stroke-miterlimit="13.3333" stroke-linecap="round" stroke-linejoin="round"/>
<path d="M43.1673 26.1971H36.6394C36.3514 26.1971 36.0634 26.4851 36.0634 26.7731V31.9571C33.7594 31.9571 31.9354 33.7811 31.9354 36.0851C31.9354 38.3891 33.7594 40.2131 36.0634 40.2131V45.3971C36.0634 45.6851 36.3514 45.9731 36.6394 45.9731H41.8234C41.8234 48.2771 43.6474 50.1011 45.9514 50.1011C48.2554 50.1011 50.0794 48.2771 50.0794 45.9731H55.2634C55.5514 45.9731 55.8394 45.6851 55.8394 45.3971V40.8851" stroke="#E03028" stroke-width="1.7" stroke-miterlimit="13.3333" stroke-linecap="round" stroke-linejoin="round"/>
</svg>
