<?xml version="1.0" encoding="UTF-8"?>
<svg version="1.1" xmlns="http://www.w3.org/2000/svg" width="48" height="48">
<path d="M0 0 C3.66752005 1.5391801 5.98580573 3.75485452 8.765625 6.5703125 C10.09980469 7.91416016 10.09980469 7.91416016 11.4609375 9.28515625 C12.38132813 10.22230469 13.30171875 11.15945313 14.25 12.125 C15.19484856 13.07988637 16.14015633 14.03431859 17.0859375 14.98828125 C19.39518338 17.32109087 21.69963203 19.65844086 24 22 C22.4608199 25.66752005 20.24514548 27.98580573 17.4296875 30.765625 C16.08583984 32.09980469 16.08583984 32.09980469 14.71484375 33.4609375 C13.77769531 34.38132813 12.84054688 35.30171875 11.875 36.25 C10.92011363 37.19484856 9.96568141 38.14015633 9.01171875 39.0859375 C6.67890913 41.39518338 4.34155914 43.69963203 2 46 C-1.66752005 44.4608199 -3.98580573 42.24514548 -6.765625 39.4296875 C-7.65507812 38.53378906 -8.54453125 37.63789062 -9.4609375 36.71484375 C-10.38132812 35.77769531 -11.30171875 34.84054688 -12.25 33.875 C-13.19484856 32.92011363 -14.14015633 31.96568141 -15.0859375 31.01171875 C-17.39518338 28.67890913 -19.69963203 26.34155914 -22 24 C-20.4608199 20.33247995 -18.24514548 18.01419427 -15.4296875 15.234375 C-14.08583984 13.90019531 -14.08583984 13.90019531 -12.71484375 12.5390625 C-11.77769531 11.61867188 -10.84054687 10.69828125 -9.875 9.75 C-8.92011363 8.80515144 -7.96568141 7.85984367 -7.01171875 6.9140625 C-4.67890913 4.60481662 -2.34155914 2.30036797 0 0 Z " fill="#EE373E" transform="translate(23,2)"/>
<path d="M0 0 C3.66752005 1.5391801 5.98580573 3.75485452 8.765625 6.5703125 C10.09980469 7.91416016 10.09980469 7.91416016 11.4609375 9.28515625 C12.38132812 10.22230469 13.30171875 11.15945313 14.25 12.125 C15.19484856 13.07988637 16.14015633 14.03431859 17.0859375 14.98828125 C19.39518338 17.32109087 21.69963203 19.65844086 24 22 C22.51854822 25.09893473 20.9930886 27.30373018 18.5625 29.75 C17.96566406 30.36359375 17.36882813 30.9771875 16.75390625 31.609375 C15 33 15 33 12 33 C11.505 23.1 11.505 23.1 11 13 C9.68 14.32 8.36 15.64 7 17 C1.41220997 17 -3.92305547 14.15719975 -9 12 C-9 9 -9 9 -7.03125 6.73828125 C-5.77828125 5.53751953 -5.77828125 5.53751953 -4.5 4.3125 C-3.6646875 3.50425781 -2.829375 2.69601563 -1.96875 1.86328125 C-1.3190625 1.24839844 -0.669375 0.63351563 0 0 Z " fill="#ED2830" transform="translate(23,2)"/>
<path d="M0 0 C6 1 6 1 9.5625 2.625 C13.17310827 4.06924331 14.4312205 4.350349 18 3 C19.32 2.01 20.64 1.02 22 0 C22 6.93 22 13.86 22 21 C22.66 21.33 23.32 21.66 24 22 C19.51173542 22 16.03872161 19.86001037 12.0078125 17.99609375 C8.6906204 16.89754312 7.26070546 16.84314905 4 18 C2.68 18.99 1.36 19.98 0 21 C0 14.07 0 7.14 0 0 Z " fill="#FEFBFB" transform="translate(13,14)"/>
<path d="M0 0 C4.22784833 3.62387 8.15867097 7.04226706 12 11 C10.60807296 14.13010458 8.97357774 16.32336692 6.5625 18.75 C5.96566406 19.36359375 5.36882813 19.9771875 4.75390625 20.609375 C3 22 3 22 0 22 C0 14.74 0 7.48 0 0 Z " fill="#EF434A" transform="translate(35,13)"/>
<path d="M0 0 C0 6.27 0 12.54 0 19 C-4.12592993 17.96851752 -4.97070497 17.37713898 -7.75 14.4375 C-8.36359375 13.79683594 -8.9771875 13.15617187 -9.609375 12.49609375 C-10.06828125 12.00238281 -10.5271875 11.50867187 -11 11 C-9.60249952 7.84164893 -7.94801766 5.67727175 -5.5 3.25 C-4.8915625 2.63640625 -4.283125 2.0228125 -3.65625 1.390625 C-2 0 -2 0 0 0 Z " fill="#ED343C" transform="translate(12,15)"/>
<path d="M0 0 C0.66 0.33 1.32 0.66 2 1 C2 8.92 2 16.84 2 25 C0.68 23.68 -0.64 22.36 -2 21 C-1.34 21 -0.68 21 0 21 C-0.03552979 20.39937744 -0.07105957 19.79875488 -0.10766602 19.17993164 C-0.26468681 16.47440314 -0.41369797 13.76849243 -0.5625 11.0625 C-0.61857422 10.11697266 -0.67464844 9.17144531 -0.73242188 8.19726562 C-0.78076172 7.29814453 -0.82910156 6.39902344 -0.87890625 5.47265625 C-0.9260376 4.64000244 -0.97316895 3.80734863 -1.02172852 2.94946289 C-1 1 -1 1 0 0 Z " fill="#F6979B" transform="translate(12,13)"/>
</svg>
