<svg width="142" height="136" viewBox="0 0 142 136" fill="none" xmlns="http://www.w3.org/2000/svg">
<path d="M14.405 1.98279H82.2794C89.0288 2.50027 91.9529 6.62095 92.033 13.4249V112.532H21.5149V43.2471" stroke="#E03028" stroke-width="2" stroke-miterlimit="10"/>
<path d="M21.3462 43.7834H1.39844V11.048C1.39844 5.77739 5.86465 1.50338 11.3723 1.50338C11.3723 1.50338 21.3462 1.31172 21.3462 12.5621C21.3462 23.8125 21.3462 43.7643 21.3462 43.7643V43.7834Z" stroke="#E03028" stroke-width="2" stroke-miterlimit="10"/>
<path d="M135.281 96.1265H35.9426V134.497H135.281V96.1265Z" fill="white" stroke="#E03028" stroke-width="2" stroke-miterlimit="10"/>
<path d="M105.036 96.1265H66.1616V134.497H105.036V96.1265Z" fill="white" stroke="#E03028" stroke-width="2" stroke-miterlimit="10"/>
<path d="M135.515 86.1239H35.6764C32.889 86.1239 30.6294 88.2863 30.6294 90.9537V91.2987C30.6294 93.9661 32.889 96.1285 35.6764 96.1285H135.515C138.303 96.1285 140.562 93.9661 140.562 91.2987V90.9537C140.562 88.2863 138.303 86.1239 135.515 86.1239Z" fill="white" stroke="#E03028" stroke-width="2" stroke-miterlimit="10"/>
<path d="M119.547 105.097H119.988C123.272 105.097 125.936 107.646 125.936 110.789V134.478H113.599V110.789C113.599 107.646 116.262 105.097 119.547 105.097Z" fill="white" stroke="#E03028" stroke-width="2" stroke-miterlimit="10"/>
<path d="M50.3836 105.097H50.8242C54.1088 105.097 56.7725 107.646 56.7725 110.789V134.478H44.4353V110.789C44.4353 107.646 47.099 105.097 50.3836 105.097Z" stroke="#E03028" stroke-width="2" stroke-miterlimit="10"/>
<path d="M106.511 73.0894H64.6731V86.103H106.511V73.0894Z" fill="white" stroke="#E03028" stroke-width="2" stroke-miterlimit="10"/>
<path d="M82.6982 54.6132H88.4862C98.44 54.6132 106.511 62.337 106.511 71.8625V73.0891H64.6731V71.8625C64.6731 62.337 72.7443 54.6132 82.6982 54.6132Z" fill="white" stroke="#E03028" stroke-width="2" stroke-miterlimit="10"/>
<path d="M92.5695 73.0894H78.6301C78.6301 73.0894 79.0307 54.6134 85.5998 54.6134C92.169 54.6134 92.5695 73.0894 92.5695 73.0894Z" stroke="#E03028" stroke-width="2" stroke-miterlimit="10"/>
<path d="M105.036 104.981H66.1616V134.497H105.036V104.981Z" fill="white" stroke="#E03028" stroke-width="2" stroke-miterlimit="10"/>
<path d="M93.5139 104.981H77.6919V134.497H93.5139V104.981Z" stroke="#E03028" stroke-width="2" stroke-miterlimit="10"/>
<path d="M31.8074 41.1395H81.4764" stroke="#E03028" stroke-width="2" stroke-miterlimit="10"/>
<path d="M31.9041 52.6967H63.0674" stroke="#E03028" stroke-width="2" stroke-miterlimit="10"/>
<path d="M32.0051 64.1382H52.9142" stroke="#E03028" stroke-width="2" stroke-miterlimit="10"/>
<path d="M32.5056 75.2168H50.9112" stroke="#E03028" stroke-width="2" stroke-miterlimit="10"/>
<path d="M60.2476 73.281H110.137" stroke="#E03028" stroke-width="2" stroke-miterlimit="10"/>
<path d="M49.1887 27.0904L52.0126 29.697L64.6702 15.5525" stroke="#E03028" stroke-width="2" stroke-miterlimit="10"/>
<path d="M105.169 96.1269H66.0146L85.722 82.2699L105.169 96.1269Z" fill="white" stroke="#E03028" stroke-width="2" stroke-miterlimit="10"/>
</svg>
