<svg width="72" height="73" viewBox="0 0 72 73" fill="none" xmlns="http://www.w3.org/2000/svg">
<path d="M46.1396 44.9147L40.6676 41.6507" stroke="#E03028" stroke-width="1.7" stroke-miterlimit="13.3333" stroke-linecap="round" stroke-linejoin="round"/>
<path d="M42.7511 47.3349L38.7191 44.9349" stroke="#E03028" stroke-width="1.7" stroke-miterlimit="13.3333" stroke-linecap="round" stroke-linejoin="round"/>
<path d="M38.6099 49.3738L37.0739 48.4138" stroke="#E03028" stroke-width="1.7" stroke-miterlimit="13.3333" stroke-linecap="round" stroke-linejoin="round"/>
<path d="M35.8761 31.5853L35.5881 31.3933C33.9561 30.4333 33.2841 30.3373 31.8441 30.9133L30.3081 31.4893C29.3481 31.8733 28.2921 31.7773 27.4281 31.2013L26.4681 30.6253" stroke="#E03028" stroke-width="1.7" stroke-miterlimit="13.3333" stroke-linecap="round" stroke-linejoin="round"/>
<path d="M20.4125 40.6284L22.0445 41.5884" stroke="#E03028" stroke-width="1.7" stroke-miterlimit="13.3333" stroke-linecap="round" stroke-linejoin="round"/>
<path d="M34.0354 51.1466L36.6274 52.6826C37.4914 53.2586 38.7394 52.8746 39.2194 52.0106C39.7954 51.1466 39.4114 49.8986 38.5474 49.4186L40.6594 50.6666C41.5234 51.2426 42.7714 50.8586 43.2514 49.9946C43.8274 49.1306 43.4434 47.8826 42.5794 47.4026L44.0194 48.2666C44.8834 48.8426 46.1314 48.4586 46.6114 47.5946C47.1874 46.7306 46.8034 45.4826 45.9394 45.0026L47.6674 46.0586C48.5314 46.6346 49.7794 46.2506 50.2594 45.3866C50.8354 44.5226 50.4514 43.2746 49.5874 42.7946" stroke="#E03028" stroke-width="1.7" stroke-miterlimit="13.3333" stroke-linecap="round" stroke-linejoin="round"/>
<path d="M45.7719 31.0885L45.5799 31.1844C44.7159 31.6644 43.6599 31.7605 42.6999 31.4725L40.9719 30.8005C40.3959 30.6085 39.8199 30.5124 39.2439 30.7044L36.5559 31.3764C35.3079 31.6644 34.4439 32.8165 34.4439 34.1605V37.7125C34.4439 38.1925 34.8279 38.6725 35.4039 38.6725C36.9399 38.6725 38.1879 37.4245 38.1879 35.8885V35.6964L49.8039 42.5125C49.9959 42.3205 50.2839 42.1284 50.5719 41.9364L52.1079 41.0725" stroke="#E03028" stroke-width="1.7" stroke-miterlimit="13.3333" stroke-linecap="round" stroke-linejoin="round"/>
<path d="M23.9303 45.636C23.3543 46.5 22.1063 46.692 21.2423 46.116C20.3783 45.54 20.1863 44.292 20.7623 43.428L21.8183 41.892C22.3943 41.028 23.6423 40.836 24.5063 41.412C25.3703 41.988 25.5623 43.236 24.9863 44.1" stroke="#E03028" stroke-width="1.7" stroke-miterlimit="13.3333" stroke-linecap="round" stroke-linejoin="round"/>
<path d="M29.3065 44.6556L27.0025 47.8236C26.4265 48.6876 25.1785 48.8796 24.3145 48.3036C23.4505 47.7276 23.2585 46.4796 23.8345 45.6156L26.1385 42.4476C26.7145 41.5836 27.9625 41.3916 28.8265 41.9676C29.6905 42.5436 29.8825 43.7916 29.3065 44.6556Z" stroke="#E03028" stroke-width="1.7" stroke-miterlimit="13.3333" stroke-linecap="round" stroke-linejoin="round"/>
<path d="M29.3065 44.6555C29.8825 43.7915 31.1305 43.5995 31.9945 44.1755C32.8585 44.7515 33.0505 45.9995 32.4745 46.8635L30.1705 50.0315C29.5945 50.8955 28.3465 51.0875 27.4825 50.5115C26.6185 49.9355 26.4265 48.6875 27.0025 47.8235" stroke="#E03028" stroke-width="1.7" stroke-miterlimit="13.3333" stroke-linecap="round" stroke-linejoin="round"/>
<path d="M31.4074 48.2697C31.9834 47.4057 33.2315 47.2137 34.0955 47.7897C34.9595 48.3657 35.1515 49.6138 34.5755 50.4778L33.8074 51.5338C33.2314 52.3978 31.9834 52.5898 31.1194 52.0138C30.2554 51.4378 30.0634 50.1898 30.6394 49.3258" stroke="#E03028" stroke-width="1.7" stroke-miterlimit="13.3333" stroke-linecap="round" stroke-linejoin="round"/>
<path d="M58.6954 39.0901L60.1354 38.2261C60.8074 37.8421 61.1914 37.0741 61.1914 36.3061V21.0421C61.1914 20.3701 60.4233 19.9861 59.8473 20.2741L46.2154 28.4341C45.4474 28.9141 45.1594 29.8741 45.6394 30.6421L51.8794 41.2021C52.3594 41.9701 53.3193 42.2582 54.0873 41.7782L55.5273 40.9141" stroke="#E03028" stroke-width="1.7" stroke-miterlimit="13.3333" stroke-linecap="round" stroke-linejoin="round"/>
<path d="M12.0584 20.3642L25.6904 28.5242C26.4584 29.0042 26.7464 29.9642 26.2664 30.7322L20.0264 41.2922C19.5464 42.0602 18.5864 42.3482 17.8184 41.8682L11.8664 38.3162C11.1944 37.9322 10.8104 37.1642 10.8104 36.3962V21.1322C10.8104 20.4602 11.4824 19.9802 12.0584 20.3642Z" stroke="#E03028" stroke-width="1.7" stroke-miterlimit="13.3333" stroke-linecap="round" stroke-linejoin="round"/>
</svg>
