<svg width="55" height="56" viewBox="0 0 55 56" fill="none" xmlns="http://www.w3.org/2000/svg">
<mask id="path-1-inside-1_3420_1725" fill="white">
<path d="M51.7236 38.5964L44.0967 23.1169C43.4736 21.8601 41.959 21.3445 40.7022 21.9675L37.4902 23.5466C36.4053 24.0837 35.8467 25.3191 36.1689 26.49C34.0635 25.5662 31.668 25.8562 28.8535 26.6941C25.2764 26.1785 21.624 25.6951 18.6055 27.0701L18.6699 26.9412C19.2822 25.6843 18.7666 24.1697 17.5205 23.5466L14.3086 21.9675C13.0518 21.3552 11.5371 21.8708 10.9141 23.1169L3.27637 38.5964C2.66406 39.8533 3.17969 41.3679 4.42578 41.991L7.6377 43.5701C7.98145 43.7419 8.36817 43.8279 8.75488 43.8279C9.03418 43.8279 9.31348 43.7849 9.57129 43.6882C10.1191 43.5056 10.5918 43.1296 10.8926 42.6462C11.1182 43.2156 11.4189 43.7419 11.7949 44.2146C11.0967 45.1814 11.0645 45.2458 11.0215 45.3103C10.1191 46.8357 10.3662 48.071 10.7314 48.8337C11.1289 49.6824 12.1172 50.9714 14.3516 50.8425C14.5879 51.6589 14.9854 52.282 15.5332 52.7117C16.2314 53.2488 17.123 53.4421 18.1973 53.2917C18.917 53.1951 19.5938 52.8728 20.2061 52.5291C20.335 53.0339 20.5928 53.4958 20.9688 53.8611C21.5703 54.4519 22.4297 54.7419 23.5147 54.7419C23.8799 54.7419 24.2451 54.7097 24.6104 54.656C25.6631 54.5056 26.6406 54.0222 27.3926 53.2703L29.4229 54.3767C29.9922 54.699 30.6475 54.8708 31.3027 54.8816C31.8506 54.8816 32.3984 54.7419 32.8711 54.4626C33.5586 54.0437 34.0742 53.4099 34.3428 52.6472C35.6641 53.3347 37.2754 53.6677 38.6182 53.0984C39.2197 52.8406 40.1865 52.2068 40.5947 50.6814C42.6895 50.8318 43.9785 49.7361 44.3438 48.4255C44.6982 47.158 44.2578 45.5681 42.8721 44.4509C43.3232 44.075 43.6885 43.613 43.957 43.0974C44.0107 42.99 44.0645 42.8718 44.1182 42.7644C44.4297 43.2048 44.8701 43.5378 45.375 43.7097C45.6436 43.7957 45.9121 43.8494 46.1914 43.8494C46.5781 43.8494 46.9541 43.7634 47.3086 43.5916L50.5205 42.0125C51.7773 41.3894 52.293 39.8748 51.6699 38.6179L51.7236 38.5964ZM38.6397 31.614C38.6397 31.614 38.6397 31.614 38.6397 31.6248L42.3027 39.0583C42.3027 39.0583 42.3027 39.0583 42.3027 39.0691C42.5391 39.5417 42.6572 40.0681 42.6465 40.5945C33.8916 35.2126 29.4981 32.5164 29.4981 32.5164C29.2725 32.3767 28.9932 32.3337 28.7354 32.4089C26.0176 33.1609 23.9658 33.4509 22.6553 33.2683C22.6123 33.2683 22.5693 33.2683 22.5156 33.2683C21.957 33.2683 21.4522 32.7849 21.3662 32.3445C21.2588 31.7322 22.0215 31.3455 22.4834 31.1736L29.2188 28.6062C34.2031 27.0808 36.4053 27.7898 38.6182 31.6248L38.6397 31.614ZM9.30274 41.5613C9.15235 41.8513 8.79785 41.9802 8.49707 41.8298L5.28516 40.2507C4.99512 40.1003 4.86621 39.7458 5.0166 39.4451L12.6436 23.9656C12.751 23.7615 12.9551 23.6326 13.1914 23.6326C13.2773 23.6326 13.374 23.6541 13.4492 23.697L16.6611 25.2761C16.9512 25.4265 17.0801 25.781 16.9297 26.0818L9.30274 41.5613ZM12.5039 48.0173C12.5039 48.0173 12.5039 48.0173 12.5039 48.0066C12.3535 47.6951 12.2031 47.1687 12.6973 46.3201C12.7617 46.2234 13.0195 45.8582 13.2451 45.5574L15.6943 46.8894C15.4473 47.3083 15.082 47.9421 14.5449 48.8982C13.0088 49.0916 12.665 48.3503 12.5147 48.0281L12.5039 48.0173ZM17.9609 51.3689C17.4238 51.4441 17.0156 51.3796 16.7471 51.1755C16.4141 50.9177 16.2422 50.4128 16.1563 49.9509C16.7471 48.9089 17.1338 48.2322 17.3916 47.8025L20.625 49.5535C20.5391 49.7361 20.4531 49.9509 20.3564 50.198C20.2275 50.2732 20.0986 50.3484 19.9805 50.4236C19.293 50.8425 18.5947 51.2722 17.9717 51.3582L17.9609 51.3689ZM24.3633 52.7332C23.3965 52.8835 22.6768 52.7869 22.3545 52.4646C22.043 52.1638 22.0215 51.5837 22.0645 51.1003C22.1611 50.8425 22.2471 50.6384 22.3223 50.4773L25.6094 52.2605C25.2334 52.5076 24.8145 52.6687 24.3633 52.7332ZM42.5283 47.8884C42.3135 48.6296 41.4219 48.9197 40.1865 48.6511L26.9199 41.1853C26.458 40.9275 25.8672 41.0886 25.5986 41.5505C25.3408 42.0125 25.502 42.6033 25.9639 42.8718L38.79 50.0906C38.6504 50.7136 38.3496 51.1218 37.9092 51.3152C37.0176 51.6912 35.4492 51.2507 34.332 50.3054C34.2998 50.2732 34.2676 50.2517 34.2246 50.2302H34.2139C34.2031 50.2195 34.1924 50.2087 34.1816 50.198L24.7715 44.9451C24.3096 44.6765 23.7188 44.8484 23.4502 45.3103C23.1816 45.7722 23.3535 46.363 23.8154 46.6316C23.8154 46.6316 23.8154 46.6316 23.8262 46.6316L32.6885 51.5837C32.5811 52.1316 32.3125 52.572 31.9365 52.7869C31.4102 53.0984 30.8086 52.8943 30.3897 52.6687L14.0615 43.8064C12.5254 42.4421 12.1064 40.9167 12.7188 39.0154L16.4033 31.5281C18.4336 28.3591 21.4199 27.8972 24.9326 28.1765L21.8066 29.3689C19.25 30.3464 19.3789 32.1619 19.4756 32.699C19.7334 34.0847 21.0332 35.1697 22.4619 35.2019C23.9766 35.406 26.0713 35.1375 28.8535 34.3962C30.0889 35.1482 34.4932 37.866 42.0879 42.5281C41.7979 42.9363 41.3789 43.2371 40.8955 43.366L28.6387 37.3503C28.1553 37.114 27.5752 37.3181 27.3496 37.7908C27.1133 38.2742 27.3174 38.8435 27.79 39.0798L40.3477 45.2458H40.3584C40.3799 45.2566 40.4014 45.2673 40.4229 45.2781C40.4229 45.2781 40.4443 45.2781 40.4551 45.2888C40.4551 45.2888 40.4551 45.2888 40.4658 45.2888C42.0772 45.8152 42.7861 47.0291 42.5391 47.8992L42.5283 47.8884ZM50.0156 39.907C49.9619 40.0574 49.8545 40.1863 49.7148 40.2507L46.5029 41.8298C46.2022 41.9695 45.8477 41.8513 45.6973 41.5613L38.0703 26.0818C37.9307 25.781 38.0488 25.4265 38.3389 25.2761L41.5508 23.697C41.8516 23.5574 42.2061 23.6755 42.3564 23.9656L49.9834 39.4451C50.0586 39.5847 50.0586 39.7566 50.0156 39.907ZM27.5 21.7527C33.1289 21.7527 37.6836 17.1873 37.6836 11.5583C37.6836 5.92944 33.1182 1.37476 27.4893 1.37476C21.8604 1.37476 17.3057 5.94019 17.3057 11.5691C17.3057 14.2654 18.3799 16.865 20.292 18.7664C22.2041 20.6785 24.793 21.7527 27.5 21.7419V21.7527ZM21.6563 5.72534C24.8789 2.50269 30.1104 2.50269 33.333 5.72534C36.5557 8.948 36.5557 14.1794 33.333 17.4021C30.1104 20.6248 24.8789 20.6248 21.6563 17.4021C20.1094 15.8552 19.2393 13.7498 19.2393 11.5583C19.2393 9.36694 20.1094 7.27222 21.6563 5.7146V5.72534Z"/>
</mask>
<path d="M51.7236 38.5964L44.0967 23.1169C43.4736 21.8601 41.959 21.3445 40.7022 21.9675L37.4902 23.5466C36.4053 24.0837 35.8467 25.3191 36.1689 26.49C34.0635 25.5662 31.668 25.8562 28.8535 26.6941C25.2764 26.1785 21.624 25.6951 18.6055 27.0701L18.6699 26.9412C19.2822 25.6843 18.7666 24.1697 17.5205 23.5466L14.3086 21.9675C13.0518 21.3552 11.5371 21.8708 10.9141 23.1169L3.27637 38.5964C2.66406 39.8533 3.17969 41.3679 4.42578 41.991L7.6377 43.5701C7.98145 43.7419 8.36817 43.8279 8.75488 43.8279C9.03418 43.8279 9.31348 43.7849 9.57129 43.6882C10.1191 43.5056 10.5918 43.1296 10.8926 42.6462C11.1182 43.2156 11.4189 43.7419 11.7949 44.2146C11.0967 45.1814 11.0645 45.2458 11.0215 45.3103C10.1191 46.8357 10.3662 48.071 10.7314 48.8337C11.1289 49.6824 12.1172 50.9714 14.3516 50.8425C14.5879 51.6589 14.9854 52.282 15.5332 52.7117C16.2314 53.2488 17.123 53.4421 18.1973 53.2917C18.917 53.1951 19.5938 52.8728 20.2061 52.5291C20.335 53.0339 20.5928 53.4958 20.9688 53.8611C21.5703 54.4519 22.4297 54.7419 23.5147 54.7419C23.8799 54.7419 24.2451 54.7097 24.6104 54.656C25.6631 54.5056 26.6406 54.0222 27.3926 53.2703L29.4229 54.3767C29.9922 54.699 30.6475 54.8708 31.3027 54.8816C31.8506 54.8816 32.3984 54.7419 32.8711 54.4626C33.5586 54.0437 34.0742 53.4099 34.3428 52.6472C35.6641 53.3347 37.2754 53.6677 38.6182 53.0984C39.2197 52.8406 40.1865 52.2068 40.5947 50.6814C42.6895 50.8318 43.9785 49.7361 44.3438 48.4255C44.6982 47.158 44.2578 45.5681 42.8721 44.4509C43.3232 44.075 43.6885 43.613 43.957 43.0974C44.0107 42.99 44.0645 42.8718 44.1182 42.7644C44.4297 43.2048 44.8701 43.5378 45.375 43.7097C45.6436 43.7957 45.9121 43.8494 46.1914 43.8494C46.5781 43.8494 46.9541 43.7634 47.3086 43.5916L50.5205 42.0125C51.7773 41.3894 52.293 39.8748 51.6699 38.6179L51.7236 38.5964ZM38.6397 31.614C38.6397 31.614 38.6397 31.614 38.6397 31.6248L42.3027 39.0583C42.3027 39.0583 42.3027 39.0583 42.3027 39.0691C42.5391 39.5417 42.6572 40.0681 42.6465 40.5945C33.8916 35.2126 29.4981 32.5164 29.4981 32.5164C29.2725 32.3767 28.9932 32.3337 28.7354 32.4089C26.0176 33.1609 23.9658 33.4509 22.6553 33.2683C22.6123 33.2683 22.5693 33.2683 22.5156 33.2683C21.957 33.2683 21.4522 32.7849 21.3662 32.3445C21.2588 31.7322 22.0215 31.3455 22.4834 31.1736L29.2188 28.6062C34.2031 27.0808 36.4053 27.7898 38.6182 31.6248L38.6397 31.614ZM9.30274 41.5613C9.15235 41.8513 8.79785 41.9802 8.49707 41.8298L5.28516 40.2507C4.99512 40.1003 4.86621 39.7458 5.0166 39.4451L12.6436 23.9656C12.751 23.7615 12.9551 23.6326 13.1914 23.6326C13.2773 23.6326 13.374 23.6541 13.4492 23.697L16.6611 25.2761C16.9512 25.4265 17.0801 25.781 16.9297 26.0818L9.30274 41.5613ZM12.5039 48.0173C12.5039 48.0173 12.5039 48.0173 12.5039 48.0066C12.3535 47.6951 12.2031 47.1687 12.6973 46.3201C12.7617 46.2234 13.0195 45.8582 13.2451 45.5574L15.6943 46.8894C15.4473 47.3083 15.082 47.9421 14.5449 48.8982C13.0088 49.0916 12.665 48.3503 12.5147 48.0281L12.5039 48.0173ZM17.9609 51.3689C17.4238 51.4441 17.0156 51.3796 16.7471 51.1755C16.4141 50.9177 16.2422 50.4128 16.1563 49.9509C16.7471 48.9089 17.1338 48.2322 17.3916 47.8025L20.625 49.5535C20.5391 49.7361 20.4531 49.9509 20.3564 50.198C20.2275 50.2732 20.0986 50.3484 19.9805 50.4236C19.293 50.8425 18.5947 51.2722 17.9717 51.3582L17.9609 51.3689ZM24.3633 52.7332C23.3965 52.8835 22.6768 52.7869 22.3545 52.4646C22.043 52.1638 22.0215 51.5837 22.0645 51.1003C22.1611 50.8425 22.2471 50.6384 22.3223 50.4773L25.6094 52.2605C25.2334 52.5076 24.8145 52.6687 24.3633 52.7332ZM42.5283 47.8884C42.3135 48.6296 41.4219 48.9197 40.1865 48.6511L26.9199 41.1853C26.458 40.9275 25.8672 41.0886 25.5986 41.5505C25.3408 42.0125 25.502 42.6033 25.9639 42.8718L38.79 50.0906C38.6504 50.7136 38.3496 51.1218 37.9092 51.3152C37.0176 51.6912 35.4492 51.2507 34.332 50.3054C34.2998 50.2732 34.2676 50.2517 34.2246 50.2302H34.2139C34.2031 50.2195 34.1924 50.2087 34.1816 50.198L24.7715 44.9451C24.3096 44.6765 23.7188 44.8484 23.4502 45.3103C23.1816 45.7722 23.3535 46.363 23.8154 46.6316C23.8154 46.6316 23.8154 46.6316 23.8262 46.6316L32.6885 51.5837C32.5811 52.1316 32.3125 52.572 31.9365 52.7869C31.4102 53.0984 30.8086 52.8943 30.3897 52.6687L14.0615 43.8064C12.5254 42.4421 12.1064 40.9167 12.7188 39.0154L16.4033 31.5281C18.4336 28.3591 21.4199 27.8972 24.9326 28.1765L21.8066 29.3689C19.25 30.3464 19.3789 32.1619 19.4756 32.699C19.7334 34.0847 21.0332 35.1697 22.4619 35.2019C23.9766 35.406 26.0713 35.1375 28.8535 34.3962C30.0889 35.1482 34.4932 37.866 42.0879 42.5281C41.7979 42.9363 41.3789 43.2371 40.8955 43.366L28.6387 37.3503C28.1553 37.114 27.5752 37.3181 27.3496 37.7908C27.1133 38.2742 27.3174 38.8435 27.79 39.0798L40.3477 45.2458H40.3584C40.3799 45.2566 40.4014 45.2673 40.4229 45.2781C40.4229 45.2781 40.4443 45.2781 40.4551 45.2888C40.4551 45.2888 40.4551 45.2888 40.4658 45.2888C42.0772 45.8152 42.7861 47.0291 42.5391 47.8992L42.5283 47.8884ZM50.0156 39.907C49.9619 40.0574 49.8545 40.1863 49.7148 40.2507L46.5029 41.8298C46.2022 41.9695 45.8477 41.8513 45.6973 41.5613L38.0703 26.0818C37.9307 25.781 38.0488 25.4265 38.3389 25.2761L41.5508 23.697C41.8516 23.5574 42.2061 23.6755 42.3564 23.9656L49.9834 39.4451C50.0586 39.5847 50.0586 39.7566 50.0156 39.907ZM27.5 21.7527C33.1289 21.7527 37.6836 17.1873 37.6836 11.5583C37.6836 5.92944 33.1182 1.37476 27.4893 1.37476C21.8604 1.37476 17.3057 5.94019 17.3057 11.5691C17.3057 14.2654 18.3799 16.865 20.292 18.7664C22.2041 20.6785 24.793 21.7527 27.5 21.7419V21.7527ZM21.6563 5.72534C24.8789 2.50269 30.1104 2.50269 33.333 5.72534C36.5557 8.948 36.5557 14.1794 33.333 17.4021C30.1104 20.6248 24.8789 20.6248 21.6563 17.4021C20.1094 15.8552 19.2393 13.7498 19.2393 11.5583C19.2393 9.36694 20.1094 7.27222 21.6563 5.7146V5.72534Z" fill="#E03028" stroke="white" stroke-width="0.4" mask="url(#path-1-inside-1_3420_1725)"/>
<path d="M24.5988 11.5564C24.2196 11.5564 23.9481 11.4821 23.7841 11.3335C23.6252 11.1849 23.5458 10.9928 23.5458 10.7571C23.5458 10.5265 23.6278 10.3395 23.7918 10.196C23.9609 10.0474 24.2299 9.97308 24.5988 9.97308H27.681C27.5939 9.84498 27.4863 9.73225 27.3582 9.63489C27.2352 9.53753 27.0994 9.45554 26.9508 9.38893C26.8073 9.32232 26.6561 9.27108 26.4973 9.23521C26.3385 9.19934 26.1822 9.1814 26.0284 9.1814H24.5988C23.8968 9.1814 23.5458 8.91751 23.5458 8.38973C23.5458 7.86194 23.8968 7.59805 24.5988 7.59805H30.1021C30.4813 7.59805 30.7503 7.66979 30.9092 7.81326C31.0731 7.95674 31.1551 8.14633 31.1551 8.38204C31.1551 8.61775 31.0731 8.80991 30.9092 8.95851C30.7503 9.1071 30.4813 9.1814 30.1021 9.1814H29.0568C29.2003 9.42224 29.3104 9.68613 29.3873 9.97308H30.1021C30.4813 9.97308 30.7503 10.0448 30.9092 10.1883C31.0731 10.3318 31.1551 10.5214 31.1551 10.7571C31.1551 10.9928 31.0731 11.1849 30.9092 11.3335C30.7503 11.4821 30.4813 11.5564 30.1021 11.5564H29.3796C29.2925 11.8588 29.1618 12.1355 28.9876 12.3865C28.8134 12.6376 28.6059 12.8605 28.365 13.0552C28.1293 13.25 27.8654 13.4165 27.5734 13.5548C27.2813 13.6881 26.9738 13.788 26.651 13.8546L28.9184 15.438C29.1183 15.5763 29.2618 15.7147 29.3489 15.853C29.4411 15.9862 29.4872 16.1195 29.4872 16.2527C29.4872 16.35 29.4667 16.4448 29.4257 16.5371C29.3847 16.6242 29.3284 16.7036 29.2566 16.7753C29.19 16.8471 29.1132 16.9035 29.0261 16.9444C28.9389 16.9906 28.8467 17.0136 28.7494 17.0136C28.6469 17.0136 28.5341 16.9906 28.4112 16.9444C28.2933 16.9035 28.1626 16.8343 28.0192 16.7369L24.0992 13.993C23.9506 13.8905 23.8199 13.7803 23.7072 13.6624C23.5996 13.5395 23.5458 13.3729 23.5458 13.1628C23.5458 12.6402 23.8968 12.3789 24.5988 12.3789H25.6749C25.8491 12.3789 26.0284 12.3635 26.2129 12.3327C26.3974 12.2969 26.5767 12.2456 26.7509 12.179C26.9252 12.1073 27.0866 12.0202 27.2352 11.9177C27.3838 11.8152 27.5119 11.6948 27.6195 11.5564H24.5988Z" fill="#E03028"/>
</svg>
