<svg width="168" height="167" viewBox="0 0 168 167" fill="none" xmlns="http://www.w3.org/2000/svg">
<path d="M74.4197 72.646H60.4609" stroke="#E03028" stroke-width="2" stroke-linecap="round" stroke-linejoin="round"/>
<path d="M42.1528 72.646H27.2422V35.5779C27.2422 29.9944 31.7685 25.468 37.352 25.468H74.4202V40.6802" stroke="#E03028" stroke-width="2" stroke-linecap="round" stroke-linejoin="round"/>
<path d="M60.4626 72.526C60.9663 71.3352 61.2448 70.026 61.2448 68.6517C61.2448 63.1545 56.7885 58.6982 51.2913 58.6982C45.7942 58.6982 41.3379 63.1545 41.3379 68.6517C41.3379 69.9469 41.5853 71.1843 42.0354 72.3192" stroke="#E03028" stroke-width="2" stroke-linecap="round" stroke-linejoin="round"/>
<path d="M74.4199 72.646V58.6873" stroke="#E03028" stroke-width="2" stroke-linecap="round" stroke-linejoin="round"/>
<path d="M74.4199 40.3786V25.468H111.488C117.072 25.468 121.598 29.9944 121.598 35.5779V72.646H106.687" stroke="#E03028" stroke-width="2" stroke-linecap="round" stroke-linejoin="round"/>
<path d="M74.541 58.6872C75.7318 59.1909 77.0411 59.4694 78.4153 59.4694C83.9125 59.4694 88.3688 55.0131 88.3688 49.5159C88.3688 44.0188 83.9125 39.5625 78.4153 39.5625C77.1201 39.5625 75.8827 39.8099 74.7478 40.26" stroke="#E03028" stroke-width="2" stroke-linecap="round" stroke-linejoin="round"/>
<path d="M61.6797 72.5259H74.4197V86.4846" stroke="#E03028" stroke-width="2" stroke-linecap="round" stroke-linejoin="round"/>
<path d="M60.4614 119.704H37.352C31.7685 119.704 27.2422 115.178 27.2422 109.594V72.5259" stroke="#E03028" stroke-width="2" stroke-linecap="round" stroke-linejoin="round"/>
<path d="M74.3005 86.4847C73.1097 85.981 71.8005 85.7025 70.4262 85.7025C64.9291 85.7025 60.4728 90.1588 60.4728 95.656C60.4728 99.0917 62.2135 102.121 64.8611 103.909" stroke="#E03028" stroke-width="2" stroke-linecap="round" stroke-linejoin="round"/>
<path d="M82.6193 92.9088L69.7131 98.2263L75.0307 111.133" stroke="#E03028" stroke-width="2" stroke-linecap="round" stroke-linejoin="round"/>
<path d="M128.212 118.011C128.17 116.846 127.924 115.668 127.454 114.527L113.333 80.2539L99.5469 85.934" stroke="#E03028" stroke-width="2" stroke-linecap="round" stroke-linejoin="round"/>
<path d="M81.8906 127.782L87.6856 141.847L116.099 130.14" stroke="#E03028" stroke-width="2" stroke-linecap="round" stroke-linejoin="round"/>
<path d="M82.6645 93.0198C82.6524 94.3127 82.8937 95.6293 83.4172 96.8999C85.5113 101.983 91.3292 104.405 96.4118 102.311C101.494 100.217 103.917 94.3991 101.823 89.3165C101.33 88.1189 100.63 87.0691 99.781 86.1912" stroke="#E03028" stroke-width="2" stroke-linecap="round" stroke-linejoin="round"/>
<path d="M74.9196 111.178C73.6267 111.166 72.3101 111.407 71.0394 111.931C65.9568 114.025 63.5341 119.843 65.6283 124.926C67.7224 130.008 73.5403 132.431 78.6229 130.337C79.8204 129.843 80.8703 129.143 81.7482 128.295" stroke="#E03028" stroke-width="2" stroke-linecap="round" stroke-linejoin="round"/>
<path d="M74.4199 72.5259H88.3677C88.3677 72.5259 84.9656 82.1407 94.4469 85.7024" stroke="#E03028" stroke-width="2" stroke-linecap="round" stroke-linejoin="round"/>
<path d="M106.945 72.646C106.945 72.646 107.772 74.2445 108.184 76.6757" stroke="#E03028" stroke-width="2" stroke-linecap="round" stroke-linejoin="round"/>
<path d="M120.721 98.1819C120.721 98.1819 139.861 109.789 140.831 112.536C141.801 115.284 141.639 141.735 141.639 141.735" stroke="#E03028" stroke-width="2" stroke-linecap="round" stroke-linejoin="round"/>
<path d="M107.926 133.507C107.926 133.507 110.204 138.475 113.194 139.687" stroke="#E03028" stroke-width="2" stroke-linecap="round" stroke-linejoin="round"/>
<path d="M129.559 139.687C129.559 139.687 119.983 140.091 118.448 128.455L110.786 120.401C108.906 118.425 108.938 115.313 110.857 113.375C112.817 111.395 116.012 111.379 117.992 113.341L131.457 127.243" stroke="#E03028" stroke-width="2" stroke-linecap="round" stroke-linejoin="round"/>
</svg>
