<svg width="72" height="73" viewBox="0 0 72 73" fill="none" xmlns="http://www.w3.org/2000/svg">
<path d="M36 23.7018C28.872 23.7018 23.112 29.4618 23.112 36.5898C23.112 43.7178 28.872 49.4778 36 49.4778C43.128 49.4778 48.888 43.7178 48.888 36.5898C48.888 29.4618 43.128 23.7018 36 23.7018Z" stroke="#E03028" stroke-width="1.5" stroke-miterlimit="13.3333" stroke-linecap="round" stroke-linejoin="round"/>
<path d="M44.064 42.2058C45.216 40.6218 45.864 38.6778 45.864 36.5898C45.864 31.1178 41.472 26.7258 36 26.7258C30.528 26.7258 26.136 31.1178 26.136 36.5898C26.136 42.0618 30.528 46.4538 36 46.4538C38.232 46.4538 40.32 45.7338 41.976 44.4378" stroke="#E03028" stroke-width="1.5" stroke-miterlimit="13.3333" stroke-linecap="round" stroke-linejoin="round"/>
<path d="M42.12 35.5818C38.736 32.1978 33.336 32.1978 29.952 35.5818" stroke="#E03028" stroke-width="1.5" stroke-miterlimit="13.3333" stroke-linecap="round" stroke-linejoin="round"/>
<path d="M39.816 37.8858C37.728 35.7978 34.344 35.7978 32.256 37.8858" stroke="#E03028" stroke-width="1.5" stroke-miterlimit="13.3333" stroke-linecap="round" stroke-linejoin="round"/>
<path d="M37.584 40.1178C36.72 39.2538 35.352 39.2538 34.488 40.1178" stroke="#E03028" stroke-width="1.5" stroke-miterlimit="13.3333" stroke-linecap="round" stroke-linejoin="round"/>
<path d="M36 23.7018V18.6618" stroke="#E03028" stroke-width="1.5" stroke-miterlimit="13.3333" stroke-linecap="round" stroke-linejoin="round"/>
<path d="M36 18.7338C38.028 18.7338 39.672 17.0898 39.672 15.0618C39.672 13.0339 38.028 11.3898 36 11.3898C33.972 11.3898 32.328 13.0339 32.328 15.0618C32.328 17.0898 33.972 18.7338 36 18.7338Z" stroke="#E03028" stroke-width="1.5" stroke-miterlimit="13.3333" stroke-linecap="round" stroke-linejoin="round"/>
<path d="M36 49.6218V56.5338" stroke="#E03028" stroke-width="1.5" stroke-miterlimit="13.3333" stroke-linecap="round" stroke-linejoin="round"/>
<path d="M36 61.7898C37.4315 61.7898 38.592 60.6294 38.592 59.1978C38.592 57.7663 37.4315 56.6058 36 56.6058C34.5685 56.6058 33.408 57.7663 33.408 59.1978C33.408 60.6294 34.5685 61.7898 36 61.7898Z" stroke="#E03028" stroke-width="1.5" stroke-miterlimit="13.3333" stroke-linecap="round" stroke-linejoin="round"/>
<path d="M45.144 27.4458L50.184 22.4058" stroke="#E03028" stroke-width="1.5" stroke-miterlimit="13.3333" stroke-linecap="round" stroke-linejoin="round"/>
<path d="M52.056 23.1258C53.4875 23.1258 54.648 21.9654 54.648 20.5338C54.648 19.1023 53.4875 17.9418 52.056 17.9418C50.6245 17.9418 49.464 19.1023 49.464 20.5338C49.464 21.9654 50.6245 23.1258 52.056 23.1258Z" stroke="#E03028" stroke-width="1.5" stroke-miterlimit="13.3333" stroke-linecap="round" stroke-linejoin="round"/>
<path d="M26.856 45.7338L21.528 51.0618" stroke="#E03028" stroke-width="1.5" stroke-miterlimit="13.3333" stroke-linecap="round" stroke-linejoin="round"/>
<path d="M18 59.1978C20.5449 59.1978 22.608 57.1348 22.608 54.5898C22.608 52.0449 20.5449 49.9818 18 49.9818C15.455 49.9818 13.392 52.0449 13.392 54.5898C13.392 57.1348 15.455 59.1978 18 59.1978Z" stroke="#E03028" stroke-width="1.5" stroke-miterlimit="13.3333" stroke-linecap="round" stroke-linejoin="round"/>
<path d="M48.888 36.5898H53.928" stroke="#E03028" stroke-width="1.5" stroke-miterlimit="13.3333" stroke-linecap="round" stroke-linejoin="round"/>
<path d="M57.528 40.2618C59.556 40.2618 61.2 38.6178 61.2 36.5898C61.2 34.5619 59.556 32.9178 57.528 32.9178C55.5 32.9178 53.856 34.5619 53.856 36.5898C53.856 38.6178 55.5 40.2618 57.528 40.2618Z" stroke="#E03028" stroke-width="1.5" stroke-miterlimit="13.3333" stroke-linecap="round" stroke-linejoin="round"/>
<path d="M23.112 36.5898H16.056" stroke="#E03028" stroke-width="1.5" stroke-miterlimit="13.3333" stroke-linecap="round" stroke-linejoin="round"/>
<path d="M13.392 39.1818C14.8235 39.1818 15.984 38.0214 15.984 36.5898C15.984 35.1583 14.8235 33.9978 13.392 33.9978C11.9605 33.9978 10.8 35.1583 10.8 36.5898C10.8 38.0214 11.9605 39.1818 13.392 39.1818Z" stroke="#E03028" stroke-width="1.5" stroke-miterlimit="13.3333" stroke-linecap="round" stroke-linejoin="round"/>
<path d="M45.144 45.7338L50.256 50.8458" stroke="#E03028" stroke-width="1.5" stroke-miterlimit="13.3333" stroke-linecap="round" stroke-linejoin="round"/>
<path d="M52.848 57.1098C54.876 57.1098 56.52 55.4658 56.52 53.4378C56.52 51.4099 54.876 49.7658 52.848 49.7658C50.82 49.7658 49.176 51.4099 49.176 53.4378C49.176 55.4658 50.82 57.1098 52.848 57.1098Z" stroke="#E03028" stroke-width="1.5" stroke-miterlimit="13.3333" stroke-linecap="round" stroke-linejoin="round"/>
<path d="M26.496 27.0858L22.608 23.1978" stroke="#E03028" stroke-width="1.5" stroke-miterlimit="13.3333" stroke-linecap="round" stroke-linejoin="round"/>
<path d="M15.048 22.9098C15.984 23.9898 17.424 24.7098 18.936 24.7098C21.816 24.7098 24.12 22.4058 24.12 19.5258C24.12 16.6458 21.816 14.3418 18.936 14.3418C16.056 14.3418 13.752 16.6458 13.752 19.5258C13.752 19.7418 13.752 19.9578 13.752 20.1018" stroke="#E03028" stroke-width="1.5" stroke-miterlimit="13.3333" stroke-linecap="round" stroke-linejoin="round"/>
</svg>
