<svg width="19" height="15" viewBox="0 0 19 15" fill="none" xmlns="http://www.w3.org/2000/svg">
<path d="M0.436433 8.12604C0.0464569 7.73496 0.0473457 7.1018 0.438418 6.71182L6.81131 0.356802C7.20238 -0.0331734 7.83554 -0.0322846 8.22552 0.358788C8.61549 0.74986 8.61461 1.38302 8.22353 1.773L2.55874 7.42191L8.20765 13.0867C8.59763 13.4778 8.59674 14.1109 8.20567 14.5009C7.81459 14.8909 7.18143 14.89 6.79145 14.4989L0.436433 8.12604ZM13.0107 7.43658L13.0107 8.43658L13.0093 8.43658L13.0107 7.43658ZM1.14594 6.41992L13.0121 6.43658L13.0093 8.43658L1.14313 8.41992L1.14594 6.41992ZM13.0107 6.43658L18.9931 6.43658L18.9931 8.43658L13.0107 8.43658L13.0107 6.43658Z" fill="#E03028"/>
</svg>
