<svg version="1.1" id="Layer_1" xmlns="http://www.w3.org/2000/svg" xmlns:xlink="http://www.w3.org/1999/xlink" x="0px" y="0px"
	 width="100%" viewBox="0 0 256 256" enable-background="new 0 0 256 256" xml:space="preserve">
<path fill="#FEFEFE" opacity="1.000000" stroke="none" 
	d="
M257.000000,100.000000 
	C257.000000,152.292923 257.000000,204.585831 257.000000,256.939392 
	C171.773010,256.939392 86.545959,256.939392 1.000000,256.939392 
	C1.000000,205.979553 1.000000,154.958435 1.322960,103.568306 
	C20.719212,117.945572 39.782410,132.704956 58.886681,147.410980 
	C60.279877,148.483429 61.970898,149.168961 63.499306,150.018738 
	C63.475166,150.003113 63.499165,149.951813 63.535061,150.321732 
	C64.791313,151.792999 65.945511,152.979858 67.242043,153.982727 
	C84.064041,166.994720 100.905670,179.981339 117.743889,192.972336 
	C121.002213,195.486191 124.267250,197.991318 127.428749,200.423218 
	C128.228531,199.985779 128.701981,199.803055 129.086624,199.505539 
	C149.194565,183.951782 169.300720,168.395691 189.379486,152.804337 
	C190.396622,152.014526 191.170746,150.911758 192.030182,149.973999 
	C192.002319,149.993286 191.955719,150.042465 192.309418,150.038269 
	C213.354553,134.072266 234.050766,118.116623 254.711716,102.115448 
	C255.263245,101.688301 255.432404,100.767441 256.084686,100.054413 
	C256.593018,100.021332 256.796509,100.010666 257.000000,100.000000 
M30.514221,234.098175 
	C22.887575,228.436691 15.260929,222.775208 7.192265,216.785599 
	C7.192265,229.470001 7.192265,241.079391 7.192265,252.953247 
	C10.166818,252.953247 12.895515,252.953247 16.293577,252.953247 
	C16.293577,246.595245 16.293577,240.441544 16.293577,233.587296 
	C26.062046,240.769302 35.051262,247.378387 44.364655,254.225815 
	C44.364655,241.682251 44.364655,230.098938 44.364655,218.454483 
	C41.261776,218.454483 38.511879,218.454483 35.097954,218.454483 
	C35.097954,224.708939 35.097954,230.691650 35.097954,237.317780 
	C33.253250,236.040726 32.175991,235.294952 30.514221,234.098175 
M104.207260,217.321976 
	C102.948387,217.741013 101.615120,218.013168 100.444366,218.606201 
	C96.687637,220.509094 93.850288,223.189224 93.873077,227.781616 
	C93.894524,232.105331 96.923271,234.196609 100.302551,235.874771 
	C102.382896,236.907883 104.778015,237.430237 106.644440,238.735703 
	C108.441086,239.992386 109.739372,241.961563 111.256607,243.617676 
	C109.036598,245.027710 106.882446,247.449463 104.580406,247.599319 
	C101.495583,247.800125 98.296288,246.242462 93.339523,244.979477 
	C95.072266,248.228317 96.054314,252.262955 97.538605,252.457047 
	C102.794228,253.144348 108.375954,253.253113 113.536583,252.167221 
	C117.948074,251.238968 120.810738,247.301422 120.785767,242.486954 
	C120.762436,237.987595 117.553490,235.364716 113.782043,233.580429 
	C111.537727,232.518661 108.929558,232.116974 106.868385,230.812637 
	C105.300507,229.820450 104.336540,227.873962 103.103874,226.352066 
	C104.993759,225.310410 106.874001,223.442520 108.775787,223.420319 
	C111.642754,223.386856 114.524788,224.642776 117.391525,225.348450 
	C118.203239,218.933884 118.000710,218.524857 111.984909,217.529648 
	C109.712700,217.153732 107.355598,217.291000 104.207260,217.321976 
M153.451431,242.601028 
	C152.331619,244.112564 151.278152,246.850021 150.080048,246.914841 
	C145.812790,247.145737 141.496338,246.467422 136.143967,246.051361 
	C137.100143,248.084808 137.593216,251.562836 139.314453,252.347778 
	C144.945572,254.915756 151.288925,255.291031 156.550797,251.720627 
	C159.380020,249.800888 161.873718,246.128937 162.678284,242.802460 
	C163.676117,238.676910 160.190567,235.804550 156.639206,233.976608 
	C154.138062,232.689194 151.240051,232.141678 148.815140,230.748703 
	C147.287384,229.871109 146.305679,228.042923 145.079041,226.641159 
	C146.907364,225.496979 148.713013,223.459717 150.569183,223.412598 
	C153.544632,223.337051 156.553543,224.579758 159.497101,225.253601 
	C161.268433,219.910110 158.556931,217.860550 153.740448,217.440781 
	C151.754852,217.267746 149.739563,217.021652 147.767838,217.180908 
	C141.782394,217.664368 136.748932,221.693863 136.026367,226.362198 
	C135.338669,230.805069 137.821152,233.765701 144.292053,236.799484 
	C147.368942,238.242035 150.234970,240.134338 153.451431,242.601028 
M199.750900,228.716537 
	C197.616821,224.869431 195.482758,221.022308 192.973373,216.498611 
	C186.139877,229.046082 179.753036,240.773392 173.225586,252.758911 
	C182.752670,253.852173 182.739822,253.845810 186.459290,246.332336 
	C188.492508,242.225250 190.577805,238.143951 193.070358,233.195923 
	C195.522736,238.177216 197.545364,242.299194 199.579926,246.415237 
	C203.342163,254.026520 203.345078,254.025085 212.737915,252.641968 
	C208.442001,244.746552 204.260803,237.061951 199.750900,228.716537 
M230.077927,242.665192 
	C230.077927,246.092453 230.077927,249.519699 230.077927,252.944275 
	C233.534317,252.944275 236.301392,252.944275 239.561295,252.944275 
	C239.561295,250.380676 239.830841,248.047150 239.510468,245.797653 
	C238.570862,239.200531 240.753403,233.914459 245.306091,229.175751 
	C248.299026,226.060547 250.729172,222.404678 253.299301,219.133484 
	C242.051575,214.214981 239.901749,224.383270 234.676575,229.610153 
	C232.007385,225.960175 230.247665,221.859894 227.136826,219.803894 
	C224.346786,217.959869 220.070419,218.364761 216.449753,217.777542 
	C219.748444,223.694305 223.656219,228.035965 226.865417,232.843933 
	C228.563522,235.388000 229.046387,238.743195 230.077927,242.665192 
M74.926468,227.552048 
	C74.926468,224.598602 74.926468,221.645157 74.926468,218.467163 
	C71.663536,218.467163 68.929230,218.467163 66.061874,218.467163 
	C66.061874,230.117615 66.061874,241.495712 66.061874,252.808258 
	C69.152138,252.808258 71.879601,252.808258 74.926437,252.808258 
	C74.926437,244.481293 74.926437,236.508636 74.926468,227.552048 
z"/>
<path fill="#FFFFFF" opacity="1.000000" stroke="none" 
	d="
M257.000000,99.531342 
	C256.796509,100.010666 256.593018,100.021332 255.767212,99.957336 
	C235.607803,84.729538 216.085541,69.557220 196.503510,54.462410 
	C195.051987,53.343491 193.171188,52.781456 191.328293,51.964996 
	C190.950851,51.972980 190.735733,51.986961 190.820618,51.672592 
	C189.682114,49.848629 188.394180,48.172703 186.783630,46.907417 
	C167.752533,31.956095 148.673203,17.066164 129.894836,2.040915 
	C130.455399,1.614497 130.727692,1.307248 131.000000,0.999999 
	C172.354233,1.000000 213.708450,1.000000 255.637482,1.220926 
	C256.409637,1.719931 256.672211,1.905980 257.000000,2.000000 
	C257.000000,34.354229 257.000000,66.708458 257.000000,99.531342 
z"/>
<path fill="#FFFFFF" opacity="1.000000" stroke="none" 
	d="
M1.000000,95.000000 
	C1.000000,64.312439 1.000000,33.624878 1.221570,2.363742 
	C1.717018,1.588985 1.902638,1.325595 2.000000,1.000000 
	C42.354229,1.000000 82.708458,1.000000 123.684692,1.514092 
	C124.426689,2.365107 124.546677,2.702030 124.491920,3.298944 
	C121.700821,5.601670 119.084679,7.644700 116.468048,9.687099 
	C98.809860,23.470102 81.151566,37.252972 63.297089,51.033699 
	C62.763622,51.203152 62.426373,51.374794 61.848183,51.810219 
	C42.522987,66.768219 23.438730,81.462433 4.021608,96.022079 
	C2.792495,95.591682 1.896247,95.295845 1.000000,95.000000 
z"/>
<path fill="#ED2330" opacity="1.000000" stroke="none" 
	d="
M4.354477,96.156647 
	C23.438730,81.462433 42.522987,66.768219 62.218094,52.085838 
	C62.907108,53.915016 63.052505,55.732323 63.053394,57.549706 
	C63.067631,86.582100 63.055241,115.614510 63.083080,144.646881 
	C63.084801,146.442841 63.370094,148.238556 63.523453,150.034378 
	C61.970898,149.168961 60.279877,148.483429 58.886681,147.410980 
	C39.782410,132.704956 20.719212,117.945572 1.322960,103.099648 
	C1.000000,101.933327 1.000000,100.866661 1.276479,99.244873 
	C2.486799,97.845398 3.420640,97.001022 4.354477,96.156647 
z"/>
<path fill="#FFFCFD" opacity="1.000000" stroke="none" 
	d="
M4.021611,96.022079 
	C3.420640,97.001022 2.486799,97.845398 1.276479,98.844879 
	C1.000000,97.933327 1.000000,96.866661 1.000000,95.399994 
	C1.896247,95.295845 2.792495,95.591682 4.021611,96.022079 
z"/>
<path fill="#F5F3F3" opacity="1.000000" stroke="none" 
	d="
M124.666656,3.038954 
	C124.546677,2.702030 124.426689,2.365107 124.153351,1.514092 
	C126.041664,1.000000 128.083328,1.000000 130.562500,0.999999 
	C130.727692,1.307248 130.455399,1.614497 129.528015,1.941002 
	C127.470848,2.319823 126.068748,2.679388 124.666656,3.038954 
z"/>
<path fill="#F5F5F5" opacity="1.000000" stroke="none" 
	d="
M257.000000,1.500000 
	C256.672211,1.905980 256.409637,1.719931 256.106140,1.220926 
	C256.333344,1.000000 256.666656,1.000000 257.000000,1.500000 
z"/>
<path fill="#F5F3F3" opacity="1.000000" stroke="none" 
	d="
M1.500000,1.000000 
	C1.902638,1.325595 1.717018,1.588985 1.221570,1.895085 
	C1.000000,1.666667 1.000000,1.333333 1.500000,1.000000 
z"/>
<path fill="#FFFCFD" opacity="1.000000" stroke="none" 
	d="
M63.499310,150.018738 
	C63.370094,148.238556 63.084801,146.442841 63.083080,144.646881 
	C63.055241,115.614510 63.067631,86.582100 63.053394,57.549706 
	C63.052505,55.732323 62.907108,53.915016 62.459034,51.822052 
	C62.426373,51.374794 62.763622,51.203152 63.684261,51.135712 
	C93.092499,60.475319 121.902412,69.758263 150.777740,78.833046 
	C152.592377,79.403336 155.441086,79.046280 156.922760,77.937126 
	C168.246170,69.460724 179.349518,60.690353 190.521301,52.011406 
	C190.735733,51.986961 190.950851,51.972980 191.564911,52.382637 
	C191.960678,85.211365 191.958206,117.626915 191.955719,150.042465 
	C191.955719,150.042465 192.002319,149.993286 191.656097,150.162628 
	C189.543945,149.868057 187.751740,149.485855 186.016006,148.927994 
	C159.727371,140.478836 133.395706,132.157471 107.209435,123.401520 
	C102.465042,121.815125 99.366356,122.500893 95.586266,125.519516 
	C85.084152,133.906036 74.220177,141.839417 63.499161,149.951813 
	C63.499165,149.951813 63.475166,150.003113 63.499310,150.018738 
z"/>
<path fill="#ED2330" opacity="1.000000" stroke="none" 
	d="
M63.535057,150.321732 
	C74.220177,141.839417 85.084152,133.906036 95.586266,125.519516 
	C99.366356,122.500893 102.465042,121.815125 107.209435,123.401520 
	C133.395706,132.157471 159.727371,140.478836 186.016006,148.927994 
	C187.751740,149.485855 189.543945,149.868057 191.683960,150.143341 
	C191.170746,150.911758 190.396622,152.014526 189.379486,152.804337 
	C169.300720,168.395691 149.194565,183.951782 129.086624,199.505539 
	C128.701981,199.803055 128.228531,199.985779 127.428749,200.423218 
	C124.267250,197.991318 121.002213,195.486191 117.743889,192.972336 
	C100.905670,179.981339 84.064041,166.994720 67.242043,153.982727 
	C65.945511,152.979858 64.791313,151.792999 63.535057,150.321732 
z"/>
<path fill="#ED2431" opacity="1.000000" stroke="none" 
	d="
M192.309418,150.038269 
	C191.958206,117.626915 191.960678,85.211365 191.726562,52.378174 
	C193.171188,52.781456 195.051987,53.343491 196.503510,54.462410 
	C216.085541,69.557220 235.607803,84.729538 255.462372,99.979744 
	C255.432404,100.767441 255.263245,101.688301 254.711716,102.115448 
	C234.050766,118.116623 213.354553,134.072266 192.309418,150.038269 
z"/>
<path fill="#636263" opacity="1.000000" stroke="none" 
	d="
M30.806477,234.323685 
	C32.175991,235.294952 33.253250,236.040726 35.097954,237.317780 
	C35.097954,230.691650 35.097954,224.708939 35.097954,218.454483 
	C38.511879,218.454483 41.261776,218.454483 44.364655,218.454483 
	C44.364655,230.098938 44.364655,241.682251 44.364655,254.225815 
	C35.051262,247.378387 26.062046,240.769302 16.293577,233.587296 
	C16.293577,240.441544 16.293577,246.595245 16.293577,252.953247 
	C12.895515,252.953247 10.166818,252.953247 7.192265,252.953247 
	C7.192265,241.079391 7.192265,229.470001 7.192265,216.785599 
	C15.260929,222.775208 22.887575,228.436691 30.806477,234.323685 
z"/>
<path fill="#636263" opacity="1.000000" stroke="none" 
	d="
M104.622223,217.258148 
	C107.355598,217.291000 109.712700,217.153732 111.984909,217.529648 
	C118.000710,218.524857 118.203239,218.933884 117.391525,225.348450 
	C114.524788,224.642776 111.642754,223.386856 108.775787,223.420319 
	C106.874001,223.442520 104.993759,225.310410 103.103882,226.352066 
	C104.336540,227.873962 105.300507,229.820450 106.868385,230.812637 
	C108.929558,232.116974 111.537727,232.518661 113.782043,233.580429 
	C117.553490,235.364716 120.762436,237.987595 120.785767,242.486954 
	C120.810738,247.301422 117.948074,251.238968 113.536583,252.167221 
	C108.375954,253.253113 102.794228,253.144348 97.538605,252.457047 
	C96.054314,252.262955 95.072266,248.228317 93.339523,244.979477 
	C98.296288,246.242462 101.495583,247.800125 104.580406,247.599319 
	C106.882446,247.449463 109.036598,245.027710 111.256607,243.617676 
	C109.739372,241.961563 108.441086,239.992386 106.644440,238.735703 
	C104.778015,237.430237 102.382896,236.907883 100.302551,235.874771 
	C96.923271,234.196609 93.894524,232.105331 93.873077,227.781616 
	C93.850288,223.189224 96.687637,220.509094 100.444366,218.606201 
	C101.615120,218.013168 102.948387,217.741013 104.622223,217.258148 
z"/>
<path fill="#636263" opacity="1.000000" stroke="none" 
	d="
M153.323975,242.211975 
	C150.234970,240.134338 147.368942,238.242035 144.292053,236.799484 
	C137.821152,233.765701 135.338669,230.805069 136.026367,226.362198 
	C136.748932,221.693863 141.782394,217.664368 147.767838,217.180908 
	C149.739563,217.021652 151.754852,217.267746 153.740448,217.440781 
	C158.556931,217.860550 161.268433,219.910110 159.497101,225.253601 
	C156.553543,224.579758 153.544632,223.337051 150.569183,223.412598 
	C148.713013,223.459717 146.907364,225.496979 145.079041,226.641144 
	C146.305679,228.042923 147.287384,229.871109 148.815140,230.748703 
	C151.240051,232.141678 154.138062,232.689194 156.639206,233.976608 
	C160.190567,235.804550 163.676117,238.676910 162.678284,242.802460 
	C161.873718,246.128937 159.380020,249.800888 156.550797,251.720627 
	C151.288925,255.291031 144.945572,254.915756 139.314453,252.347778 
	C137.593216,251.562836 137.100143,248.084808 136.143967,246.051361 
	C141.496338,246.467422 145.812790,247.145737 150.080048,246.914841 
	C151.278152,246.850021 152.331619,244.112564 153.323975,242.211975 
z"/>
<path fill="#616061" opacity="1.000000" stroke="none" 
	d="
M199.915253,229.046951 
	C204.260803,237.061951 208.442001,244.746552 212.737915,252.641968 
	C203.345078,254.025085 203.342163,254.026520 199.579926,246.415237 
	C197.545364,242.299194 195.522736,238.177216 193.070358,233.195923 
	C190.577805,238.143951 188.492508,242.225250 186.459290,246.332336 
	C182.739822,253.845810 182.752670,253.852173 173.225586,252.758911 
	C179.753036,240.773392 186.139877,229.046082 192.973373,216.498611 
	C195.482758,221.022308 197.616821,224.869431 199.915253,229.046951 
z"/>
<path fill="#626162" opacity="1.000000" stroke="none" 
	d="
M230.077896,242.198700 
	C229.046387,238.743195 228.563522,235.388000 226.865417,232.843933 
	C223.656219,228.035965 219.748444,223.694305 216.449753,217.777542 
	C220.070419,218.364761 224.346786,217.959869 227.136826,219.803894 
	C230.247665,221.859894 232.007385,225.960175 234.676575,229.610153 
	C239.901749,224.383270 242.051575,214.214981 253.299301,219.133484 
	C250.729172,222.404678 248.299026,226.060547 245.306091,229.175751 
	C240.753403,233.914459 238.570862,239.200531 239.510468,245.797653 
	C239.830841,248.047150 239.561295,250.380676 239.561295,252.944275 
	C236.301392,252.944275 233.534317,252.944275 230.077927,252.944275 
	C230.077927,249.519699 230.077927,246.092453 230.077896,242.198700 
z"/>
<path fill="#605F60" opacity="1.000000" stroke="none" 
	d="
M74.926453,228.044006 
	C74.926437,236.508636 74.926437,244.481293 74.926437,252.808258 
	C71.879601,252.808258 69.152138,252.808258 66.061874,252.808258 
	C66.061874,241.495712 66.061874,230.117615 66.061874,218.467163 
	C68.929230,218.467163 71.663536,218.467163 74.926468,218.467163 
	C74.926468,221.645157 74.926468,224.598602 74.926453,228.044006 
z"/>
<path fill="#ED2330" opacity="1.000000" stroke="none" 
	d="
M190.820618,51.672592 
	C179.349518,60.690353 168.246170,69.460724 156.922760,77.937126 
	C155.441086,79.046280 152.592377,79.403336 150.777740,78.833046 
	C121.902412,69.758263 93.092499,60.475319 63.880474,51.137901 
	C81.151566,37.252972 98.809860,23.470102 116.468048,9.687099 
	C119.084679,7.644700 121.700821,5.601670 124.491920,3.298944 
	C126.068748,2.679388 127.470848,2.319823 129.239746,2.060171 
	C148.673203,17.066164 167.752533,31.956095 186.783630,46.907417 
	C188.394180,48.172703 189.682114,49.848629 190.820618,51.672592 
z"/>
</svg>