<svg width="50" height="51" viewBox="0 0 50 51" fill="none" xmlns="http://www.w3.org/2000/svg">
<g clip-path="url(#clip0_3420_1805)">
<path fill-rule="evenodd" clip-rule="evenodd" d="M48.605 50.5457H10.8507C10.3625 50.5457 9.99634 50.1389 9.99634 49.6507V46.0299C4.54475 47.0063 -0.5 42.8159 -0.5 37.2422C-0.5 31.6686 2.46989 29.431 6.41619 28.536L2.83605 7.09578C2.75468 6.5669 3.16151 6.0787 3.73108 6.0787H10.037V1.48146C10.037 0.993261 10.4032 0.586426 10.8914 0.586426H48.605C49.0932 0.586426 49.5 0.952577 49.5 1.48146V49.6507C49.5 50.1389 49.0932 50.5457 48.605 50.5457ZM11.7457 48.7964H47.7099V2.3765H11.7457V28.9835C19.2315 31.9534 19.2315 42.6125 11.7457 45.5824V48.837V48.7964ZM9.99634 28.4546V7.82808H4.70749L8.16558 28.3326L9.99634 28.4953V28.4546ZM8.45037 30.0819C4.50407 30.0819 1.29007 33.2959 1.29007 37.2422C1.29007 41.1885 4.50407 44.4025 8.45037 44.4025C12.3967 44.4025 15.6107 41.1885 15.6107 37.2422C15.6107 33.2959 12.3153 30.0819 8.45037 30.0819ZM44.1705 33.0518H19.4756C18.3365 33.0518 18.3365 31.3025 19.4756 31.3025H44.1705C45.3096 31.3025 45.3096 33.0518 44.1705 33.0518ZM44.1705 37.405H19.4756C18.3365 37.405 18.3365 35.6556 19.4756 35.6556H44.1705C45.3096 35.6556 45.3096 37.405 44.1705 37.405ZM44.1705 41.7988H19.4756C18.3365 41.7988 18.3365 40.0494 19.4756 40.0494H44.1705C45.3096 40.0494 45.3096 41.7988 44.1705 41.7988ZM44.1705 46.1926H15.3259C14.1461 46.1926 14.1461 44.4432 15.3259 44.4432H44.1705C45.3096 44.4432 45.3096 46.1926 44.1705 46.1926ZM44.1705 15.3138H33.43C32.9418 15.3138 32.535 14.907 32.535 14.4188V10.2284C32.535 9.74021 32.9011 9.33337 33.43 9.33337H44.1705C44.6587 9.33337 45.0655 9.69953 45.0655 10.2284V14.4188C45.0655 14.907 44.6587 15.3138 44.1705 15.3138ZM34.2844 13.5645H43.2754V11.1234H34.2844V13.5645ZM44.1705 28.658H27.6937C27.2055 28.658 26.7986 28.2919 26.7986 27.763V23.5726C26.7986 23.0844 27.2055 22.6776 27.6937 22.6776H44.1705C44.6587 22.6776 45.0248 23.0844 45.0248 23.5726V27.763C45.0248 28.2512 44.6587 28.658 44.1705 28.658ZM28.5887 26.9086H43.2754V24.4676H28.5887V26.9086ZM24.2762 28.2105H15.3259C14.1461 28.2105 14.1461 26.4611 15.3259 26.4611H24.2762C25.4561 26.4611 25.4561 28.2105 24.2762 28.2105ZM24.2762 24.9151H15.3259C14.1461 24.9151 14.1461 23.1658 15.3259 23.1658H24.2762C25.4561 23.1658 25.4561 24.9151 24.2762 24.9151ZM22.4048 20.6841C21.8352 20.6841 14.4308 17.8362 14.4308 7.7874C14.4308 -2.26142 14.9597 6.72963 15.6513 6.97373C15.6513 6.97373 18.9874 8.23492 21.7132 4.61409C22.0793 4.12589 22.771 4.12589 23.1371 4.61409C25.8222 8.23492 29.1989 6.97373 29.1989 6.97373C29.8092 6.72963 30.4194 7.21783 30.4194 7.7874C30.4194 17.8362 23.0151 20.6841 22.4455 20.6841H22.4048ZM16.2209 8.88586C16.6684 16.0055 21.1843 18.3651 22.4048 18.894C23.5846 18.4058 28.1412 16.0055 28.5887 8.88586C27.1648 9.04859 24.6831 8.92654 22.4048 6.52621C20.1672 8.92654 17.6448 9.04859 16.2209 8.88586Z" fill="#E03028"/>
<path d="M14.797 30.9363C13.0883 29.2276 10.8507 28.2919 8.45037 28.2919C6.05004 28.2919 3.81245 29.2276 2.10374 30.9363C0.395037 32.645 -0.5 34.8826 -0.5 37.2422C-0.5 39.6019 0.43572 41.8802 2.14443 43.5889C3.85313 45.2976 6.09072 46.2333 8.49105 46.2333C10.8914 46.2333 13.129 45.2976 14.8377 43.5889C16.5464 41.8802 17.4821 39.6426 17.4821 37.2422C17.4821 34.8419 16.5464 32.6043 14.8377 30.8956L14.797 30.9363ZM3.36493 43.3448C3.64971 40.7817 5.84662 38.8289 8.45037 38.8289C11.0541 38.8289 11.0948 39.3578 12.0712 40.3342C12.8849 41.1479 13.4137 42.2056 13.5358 43.3448C12.1526 44.4839 10.4032 45.1755 8.45037 45.1755C6.49756 45.1755 4.74817 44.4839 3.36493 43.3448ZM8.45037 37.7304C6.94508 37.7304 5.72457 36.5099 5.72457 35.0046C5.72457 33.4994 6.94508 32.2789 8.45037 32.2789C9.95565 32.2789 11.1762 33.4994 11.1762 35.0046C11.1762 36.5099 9.95565 37.7304 8.45037 37.7304ZM14.4308 42.4497C14.1461 41.3513 13.6172 40.3749 12.8035 39.5612C11.9898 38.7475 11.3796 38.4221 10.5659 38.1373C11.583 37.4457 12.2339 36.3065 12.2339 35.0046C12.2339 32.9298 10.5252 31.2211 8.45037 31.2211C6.37551 31.2211 4.6668 32.9298 4.6668 35.0046C4.6668 37.0795 5.31774 37.4457 6.33482 38.1373C5.56184 38.4221 4.87022 38.8289 4.25997 39.3985C3.36493 40.2121 2.75468 41.2699 2.46989 42.409C1.24939 41.0258 0.517087 39.195 0.517087 37.2422C0.517087 32.8891 4.05655 29.309 8.45037 29.309C12.8442 29.309 16.3836 32.8484 16.3836 37.2422C16.3836 41.6361 15.6513 41.0258 14.4308 42.409V42.4497Z" fill="#E03028"/>
</g>
<defs>
<clipPath id="clip0_3420_1805">
<rect width="50" height="50" fill="white" transform="translate(-0.5 0.586426)"/>
</clipPath>
</defs>
</svg>
