<svg width="72" height="73" viewBox="0 0 72 73" fill="none" xmlns="http://www.w3.org/2000/svg">
<path d="M28.701 50.2198V46.3798C28.701 45.0358 30.333 43.8838 32.253 43.2118M39.453 43.0198C41.469 43.6918 43.293 44.9398 43.293 46.2838V50.1238" stroke="#E03028" stroke-width="2" stroke-miterlimit="13.3333" stroke-linecap="round" stroke-linejoin="round"/>
<path d="M21.12 62.0322H50.88V54.4482H21.12V62.0322Z" stroke="#E03028" stroke-width="2" stroke-miterlimit="13.3333" stroke-linecap="round" stroke-linejoin="round"/>
<path d="M10.848 51.8626V46.7746C10.848 45.3346 11.904 44.1826 13.248 43.9906M21.12 52.7266V62.1346H10.848V55.3186" stroke="#E03028" stroke-width="2" stroke-miterlimit="13.3333" stroke-linecap="round" stroke-linejoin="round"/>
<path d="M61.248 51.8626V46.7746C61.248 45.3346 60.192 44.1826 58.848 43.9906M50.88 52.7266V62.1346H61.152V55.3186" stroke="#E03028" stroke-width="2" stroke-miterlimit="13.3333" stroke-linecap="round" stroke-linejoin="round"/>
<path d="M18.7822 43.8886C19.4542 43.8886 20.0302 44.1766 20.5102 44.7526L24.6382 50.1286H29.9182C31.0702 50.1286 32.1262 51.0886 32.1262 52.3366C32.1262 53.4886 31.1662 54.5446 29.9182 54.5446H23.5822C22.9102 54.5446 22.2382 54.2566 21.8542 53.6806L18.4942 49.1686" stroke="#E03028" stroke-width="2" stroke-miterlimit="13.3333" stroke-linecap="round" stroke-linejoin="round"/>
<path d="M53.3471 43.8886C52.6751 43.8886 52.0031 44.1766 51.5231 44.7526L47.3951 50.1286H42.1151C40.9631 50.1286 39.9071 51.0886 39.9071 52.3366C39.9071 53.4886 40.8671 54.5446 42.1151 54.5446H48.4511C49.1231 54.5446 49.7951 54.2566 50.1791 53.6806L53.5391 49.1686" stroke="#E03028" stroke-width="2" stroke-miterlimit="13.3333" stroke-linecap="round" stroke-linejoin="round"/>
<path d="M18.783 27.8783H31.839C33.951 27.8783 35.679 26.1503 35.679 24.0383V15.4943C35.679 13.3823 33.951 11.6543 31.839 11.6543H15.135C13.023 11.6543 11.295 13.3823 11.295 15.4943V24.0383C11.295 26.1503 13.023 27.8783 15.135 27.8783V31.5263L18.783 27.8783Z" stroke="#E03028" stroke-width="2" stroke-miterlimit="13.3333" stroke-linecap="round" stroke-linejoin="round"/>
<path d="M41.1262 30.8135H45.6382L49.2862 34.4615V30.8135C50.9182 30.8135 52.1662 29.4695 52.1662 27.9335V20.6375C52.1662 19.0055 50.8222 17.7575 49.2862 17.7575H35.6542M30.3742 27.9335C30.3742 29.5655 31.6222 30.8135 33.2542 30.8135H37.7662" stroke="#E03028" stroke-width="2" stroke-miterlimit="13.3333" stroke-linecap="round" stroke-linejoin="round"/>
<path d="M16.4085 19.8219H30.5205M16.4085 23.7579H23.4165M16.4085 15.7899H30.5205" stroke="#E03028" stroke-width="2" stroke-miterlimit="13.3333" stroke-linecap="round" stroke-linejoin="round"/>
<path d="M39.9393 40.7757C39.9393 43.0797 38.1154 44.9037 35.8114 44.9037C33.5074 44.9037 31.6833 43.0797 31.6833 40.7757V36.3597C31.6833 35.1117 32.7393 34.0557 33.9873 34.0557H39.9393V40.7757Z" stroke="#E03028" stroke-width="2" stroke-miterlimit="13.3333" stroke-linecap="round" stroke-linejoin="round"/>
<path d="M11.8538 40.7757C11.8538 43.0797 13.6778 44.9037 15.9818 44.9037C18.2858 44.9037 20.1098 43.0797 20.1098 40.7757V36.3597C20.1098 35.1117 19.0538 34.0557 17.8058 34.0557H14.1578C12.9098 34.0557 11.8538 35.1117 11.8538 36.3597V40.7757Z" stroke="#E03028" stroke-width="2" stroke-miterlimit="13.3333" stroke-linecap="round" stroke-linejoin="round"/>
<path d="M60.12 40.7757C60.12 43.0797 58.296 44.9037 55.992 44.9037C53.688 44.9037 51.864 43.0797 51.864 40.7757V36.3597C51.864 35.1117 52.92 34.0557 54.168 34.0557H57.816C59.064 34.0557 60.12 35.1117 60.12 36.3597V40.7757Z" stroke="#E03028" stroke-width="2" stroke-miterlimit="13.3333" stroke-linecap="round" stroke-linejoin="round"/>
<path d="M11.8538 40.985C15.7898 42.233 16.7498 39.737 16.8458 37.433C16.8458 37.433 18.1898 38.681 20.0138 38.009" stroke="#E03028" stroke-width="2" stroke-miterlimit="13.3333" stroke-linecap="round" stroke-linejoin="round"/>
<path d="M60.12 40.985C56.184 42.233 55.224 39.737 55.128 37.433C55.128 37.433 53.784 38.681 51.96 38.009" stroke="#E03028" stroke-width="2" stroke-miterlimit="13.3333" stroke-linecap="round" stroke-linejoin="round"/>
<path d="M31.7246 37.7012H39.9806" stroke="#E03028" stroke-width="2" stroke-miterlimit="13.3333" stroke-linecap="round" stroke-linejoin="round"/>
</svg>
