<svg width="72" height="73" viewBox="0 0 72 73" fill="none" xmlns="http://www.w3.org/2000/svg">
<path d="M18.864 20.8962C18.288 20.8962 17.784 20.8962 17.136 20.8962C14.832 20.8962 12.888 20.9682 11.304 21.1122C11.016 21.1122 10.872 21.3282 10.872 21.6162V42.4242C10.872 42.7122 11.16 42.9282 11.448 42.9282C13.032 42.7842 14.904 42.7122 17.208 42.7122C29.592 42.7122 29.88 45.3762 41.688 45.5202" stroke="#E03028" stroke-width="2" stroke-miterlimit="10" stroke-linecap="round" stroke-linejoin="round"/>
<path d="M52.992 36.3763V44.1523C52.992 44.3683 52.848 44.5843 52.56 44.6563C50.616 45.0163 48.312 45.3763 45.144 45.4483" stroke="#E03028" stroke-width="2" stroke-miterlimit="10" stroke-linecap="round" stroke-linejoin="round"/>
<path d="M13.896 30.4002V26.5122C15.264 26.5122 16.416 25.3602 16.416 23.9922C16.632 23.9922 16.92 23.9922 17.136 23.9922C17.712 23.9922 18.288 23.9922 18.864 23.9922" stroke="#E03028" stroke-width="2" stroke-miterlimit="10" stroke-linecap="round" stroke-linejoin="round"/>
<path d="M49.968 36.5202V39.7602C48.672 39.8322 47.664 40.9842 47.664 42.2802C46.224 42.4242 44.568 42.4962 42.552 42.4962C36.504 42.4962 33.624 41.8482 30.528 41.2002C27.216 40.4802 23.832 39.7602 17.136 39.7602C16.92 39.7602 16.704 39.7602 16.416 39.7602C16.416 38.3202 15.264 37.2402 13.896 37.2402V34.0002" stroke="#E03028" stroke-width="2" stroke-miterlimit="10" stroke-linecap="round" stroke-linejoin="round"/>
<path d="M37.08 34.8642C36.648 38.4642 34.488 41.3442 31.896 41.3442C29.016 41.3442 26.64 37.8162 26.64 33.5682" stroke="#E03028" stroke-width="2" stroke-miterlimit="10" stroke-linecap="round" stroke-linejoin="round"/>
<path d="M60.624 13.6242C58.176 14.0562 55.296 14.4162 50.76 14.4162C38.088 14.4162 38.088 11.6082 25.344 11.6082C23.04 11.6082 21.096 11.6802 19.512 11.8242C19.224 11.8242 19.08 12.0402 19.08 12.3282V33.1362C19.08 33.4242 19.368 33.6402 19.656 33.6402C21.24 33.4962 23.112 33.4242 25.416 33.4242C38.088 33.4242 38.088 36.2322 50.832 36.2322C55.44 36.2322 58.392 35.8722 60.912 35.3682C61.128 35.2962 61.344 35.0802 61.344 34.8642V14.2002C61.2 13.8402 60.912 13.6242 60.624 13.6242Z" stroke="#E03028" stroke-width="2" stroke-miterlimit="10" stroke-linecap="round" stroke-linejoin="round"/>
<path d="M31.752 30.6882C34.56 30.9762 36.648 31.4082 38.664 31.8402C41.76 32.4882 44.712 33.1362 50.688 33.1362C52.704 33.1362 54.36 33.0642 55.8 32.9202C55.8 31.6242 56.808 30.4722 58.104 30.4002V19.9602C56.664 20.0322 55.368 18.8802 55.44 17.4402C54.072 17.5122 52.488 17.5842 50.688 17.5842C43.992 17.5842 40.608 16.8642 37.296 16.1442C34.2 15.4962 31.248 14.8482 25.272 14.8482C25.056 14.8482 24.768 14.8482 24.552 14.8482C24.552 16.2162 23.4 17.3682 22.032 17.3682V27.9522C23.472 27.9522 24.552 29.1042 24.552 30.4722C24.768 30.4722 24.984 30.4722 25.272 30.4722C26.28 30.4722 27.288 30.4722 28.152 30.5442" stroke="#E03028" stroke-width="2" stroke-miterlimit="10" stroke-linecap="round" stroke-linejoin="round"/>
<path d="M45.288 24.8562C45.144 28.8162 42.84 32.1282 40.104 32.1282C37.224 32.1282 34.848 28.6002 34.848 24.3522C34.848 20.1042 37.224 16.7202 40.104 16.7202C42.264 16.7202 44.064 18.5922 44.856 21.2562" stroke="#E03028" stroke-width="2" stroke-miterlimit="10" stroke-linecap="round" stroke-linejoin="round"/>
<path d="M50.112 25.2162H53.28" stroke="#E03028" stroke-width="2" stroke-miterlimit="10" stroke-linecap="round" stroke-linejoin="round"/>
<path d="M26.856 22.6242H30.024" stroke="#E03028" stroke-width="2" stroke-miterlimit="10" stroke-linecap="round" stroke-linejoin="round"/>
<path d="M23.5783 42.8711C23.5783 45.9431 24.7303 48.7271 26.5543 50.8391C27.3223 51.7031 27.6103 52.7591 27.6103 53.8151V55.8311H43.8343V53.8151C43.8343 52.7591 44.2183 51.6071 44.8903 50.8391C46.7143 48.7271 47.8663 45.9431 47.8663 42.8711V32.9831C47.8663 31.6391 46.8103 30.5831 45.4663 30.5831C44.1223 30.5831 43.0663 31.6391 43.0663 32.9831V30.5831C43.0663 29.2391 42.0103 28.1831 40.6663 28.1831C39.3223 28.1831 38.2663 29.2391 38.2663 30.5831V29.9111C38.2663 28.5671 37.2103 27.5111 35.8663 27.5111C34.5223 27.5111 33.4663 28.5671 33.4663 29.9111V30.7751C33.4663 29.4311 32.4103 28.3751 31.0663 28.3751C29.7223 28.3751 28.6663 29.4311 28.6663 30.7751V34.0391H26.2663C24.9223 34.0391 23.8663 35.0951 23.8663 36.4391V42.8711H23.5783Z" fill="#F5F5F5" stroke="#E03028" stroke-width="2" stroke-miterlimit="13.3333" stroke-linecap="round" stroke-linejoin="round"/>
<path d="M43.1115 35.7166V33.0286V35.7166Z" fill="#F5F5F5"/>
<path d="M43.1115 35.7166V33.0286" stroke="#E03028" stroke-width="2" stroke-miterlimit="13.3333" stroke-linecap="round" stroke-linejoin="round"/>
<path d="M38.2155 35.7053V30.6173V35.7053Z" fill="#F5F5F5"/>
<path d="M38.2155 35.7053V30.6173" stroke="#E03028" stroke-width="2" stroke-miterlimit="13.3333" stroke-linecap="round" stroke-linejoin="round"/>
<path d="M33.3076 30.7981V35.7901V30.7981Z" fill="#F5F5F5"/>
<path d="M33.3076 30.7981V35.7901" stroke="#E03028" stroke-width="2" stroke-miterlimit="13.3333" stroke-linecap="round" stroke-linejoin="round"/>
<path d="M28.4325 34.0503V43.0743V34.0503Z" fill="#F5F5F5"/>
<path d="M28.4325 34.0503V43.0743" stroke="#E03028" stroke-width="2" stroke-miterlimit="13.3333" stroke-linecap="round" stroke-linejoin="round"/>
<path d="M31.6565 62.0981H45.1925V55.8581H26.3765V62.0981H28.2005" fill="#F5F5F5"/>
<path d="M31.6565 62.0981H45.1925V55.8581H26.3765V62.0981H28.2005" stroke="#E03028" stroke-width="2" stroke-miterlimit="13.3333" stroke-linecap="round" stroke-linejoin="round"/>
</svg>
