<svg width="336" height="281" viewBox="0 0 336 281" fill="none" xmlns="http://www.w3.org/2000/svg">
<path d="M329.934 269.731L332.766 264.7L326.993 264.762L329.934 269.731ZM281.802 153.531L281.449 153.884L281.802 153.531ZM165.603 105.399V104.899V105.399ZM49.403 153.531L49.7566 153.884L49.403 153.531ZM1.77148 269.731C1.77148 268.538 1.78449 267.346 1.81044 266.156L0.810674 266.134C0.784574 267.332 0.771485 268.53 0.771484 269.731H1.77148ZM2.12203 259.015C2.27806 256.633 2.48586 254.259 2.74479 251.894L1.75073 251.785C1.49022 254.164 1.28115 256.553 1.12417 258.949L2.12203 259.015ZM3.67762 244.808C4.04052 242.45 4.45447 240.103 4.91882 237.769L3.93804 237.573C3.47085 239.922 3.05437 242.283 2.68926 244.655L3.67762 244.808ZM6.46613 230.79C7.03297 228.474 7.64993 226.172 8.31635 223.886L7.35631 223.606C6.68582 225.906 6.06509 228.222 5.49479 230.552L6.46613 230.79ZM10.4659 217.069C11.2321 214.812 12.0472 212.572 12.9107 210.352L11.9787 209.99C11.11 212.223 10.2898 214.477 9.519 216.747L10.4659 217.069ZM15.6461 203.748C16.6056 201.568 17.6127 199.408 18.6668 197.27L17.7699 196.828C16.7094 198.978 15.6961 201.152 14.7308 203.345L15.6461 203.748ZM21.9671 190.93C23.1124 188.842 24.3039 186.778 25.5409 184.739L24.6859 184.221C23.4414 186.272 22.2427 188.348 21.0904 190.449L21.9671 190.93ZM29.3814 178.711C30.7037 176.732 32.0705 174.779 33.4811 172.856L32.6747 172.264C31.2554 174.2 29.8803 176.164 28.55 178.155L29.3814 178.711ZM37.8323 167.185C39.3214 165.33 40.8531 163.504 42.427 161.71L41.6752 161.05C40.0917 162.856 38.5506 164.693 37.0524 166.559L37.8323 167.185ZM47.2565 156.44C48.0797 155.58 48.913 154.728 49.7566 153.884L49.0495 153.177C48.2008 154.026 47.3623 154.883 46.5342 155.748L47.2565 156.44ZM49.7566 153.884C50.6001 153.041 51.4518 152.208 52.3117 151.384L51.6201 150.662C50.7551 151.49 49.8981 152.329 49.0495 153.177L49.7566 153.884ZM57.5819 146.555C59.3764 144.981 61.202 143.449 63.0573 141.96L62.4313 141.18C60.5648 142.678 58.728 144.22 56.9225 145.803L57.5819 146.555ZM68.7277 137.609C70.6515 136.198 72.6037 134.832 74.5827 133.509L74.0271 132.678C72.0361 134.008 70.072 135.383 68.1364 136.803L68.7277 137.609ZM80.6115 129.669C82.6501 128.432 84.7141 127.24 86.8019 126.095L86.3209 125.218C84.2204 126.371 82.1438 127.569 80.0927 128.814L80.6115 129.669ZM93.1421 122.795C95.2797 121.741 97.4397 120.733 99.6203 119.774L99.2175 118.859C97.0236 119.824 94.8505 120.837 92.6998 121.898L93.1421 122.795ZM106.224 117.039C108.444 116.175 110.684 115.36 112.941 114.594L112.619 113.647C110.349 114.418 108.096 115.238 105.862 116.107L106.224 117.039ZM119.758 112.444C122.044 111.778 124.346 111.161 126.662 110.594L126.424 109.623C124.094 110.193 121.778 110.814 119.478 111.484L119.758 112.444ZM133.641 109.047C135.975 108.582 138.322 108.168 140.68 107.806L140.528 106.817C138.155 107.182 135.794 107.599 133.446 108.066L133.641 109.047ZM147.766 106.873C150.131 106.614 152.505 106.406 154.887 106.25L154.821 105.252C152.425 105.409 150.036 105.618 147.657 105.879L147.766 106.873ZM162.028 105.938C163.218 105.912 164.41 105.899 165.603 105.899V104.899C164.403 104.899 163.204 104.913 162.006 104.939L162.028 105.938ZM165.603 105.899C166.796 105.899 167.987 105.912 169.177 105.938L169.199 104.939C168.002 104.913 166.803 104.899 165.603 104.899V105.899ZM176.319 106.25C178.701 106.406 181.075 106.614 183.439 106.873L183.548 105.879C181.169 105.618 178.781 105.409 176.384 105.252L176.319 106.25ZM190.526 107.806C192.884 108.168 195.231 108.582 197.565 109.047L197.76 108.066C195.411 107.599 193.05 107.182 190.678 106.817L190.526 107.806ZM204.544 110.594C206.86 111.161 209.162 111.778 211.448 112.444L211.728 111.484C209.428 110.814 207.112 110.193 204.781 109.623L204.544 110.594ZM218.265 114.594C220.522 115.36 222.761 116.175 224.981 117.039L225.344 116.107C223.11 115.238 220.857 114.418 218.586 113.647L218.265 114.594ZM231.585 119.774C233.766 120.733 235.926 121.741 238.063 122.795L238.506 121.898C236.355 120.837 234.182 119.824 231.988 118.859L231.585 119.774ZM244.404 126.095C246.491 127.24 248.555 128.432 250.594 129.669L251.113 128.814C249.062 127.569 246.985 126.371 244.885 125.218L244.404 126.095ZM256.623 133.509C258.602 134.832 260.554 136.198 262.478 137.609L263.069 136.803C261.134 135.383 259.169 134.008 257.178 132.678L256.623 133.509ZM268.148 141.96C270.003 143.449 271.829 144.981 273.624 146.555L274.283 145.803C272.478 144.22 270.641 142.678 268.774 141.18L268.148 141.96ZM278.894 151.384C279.754 152.208 280.605 153.041 281.449 153.884L282.156 153.177C281.307 152.329 280.45 151.49 279.585 150.662L278.894 151.384ZM281.449 153.884C282.292 154.728 283.126 155.58 283.949 156.44L284.671 155.748C283.843 154.883 283.005 154.026 282.156 153.177L281.449 153.884ZM288.779 161.71C290.352 163.504 291.884 165.33 293.373 167.185L294.153 166.559C292.655 164.693 291.114 162.856 289.53 161.05L288.779 161.71ZM297.724 172.856C299.135 174.779 300.502 176.732 301.824 178.711L302.656 178.155C301.325 176.164 299.95 174.2 298.531 172.264L297.724 172.856ZM305.665 184.739C306.902 186.778 308.093 188.842 309.238 190.93L310.115 190.449C308.963 188.348 307.764 186.272 306.52 184.221L305.665 184.739ZM312.539 197.27C313.593 199.408 314.6 201.568 315.559 203.748L316.475 203.345C315.509 201.152 314.496 198.978 313.436 196.828L312.539 197.27ZM318.295 210.352C319.158 212.572 319.973 214.812 320.74 217.069L321.686 216.747C320.916 214.477 320.096 212.223 319.227 209.99L318.295 210.352ZM322.889 223.886C323.556 226.172 324.173 228.474 324.739 230.79L325.711 230.552C325.14 228.222 324.52 225.906 323.849 223.606L322.889 223.886ZM326.287 237.769C326.751 240.103 327.165 242.45 327.528 244.808L328.516 244.655C328.151 242.283 327.735 239.922 327.267 237.573L326.287 237.769ZM328.461 251.894C328.72 254.259 328.927 256.633 329.083 259.015L330.081 258.949C329.924 256.553 329.715 254.164 329.455 251.785L328.461 251.894ZM329.934 269.731L332.766 264.7L326.993 264.762L329.934 269.731ZM281.802 153.531L281.449 153.884L281.802 153.531ZM165.603 105.399V104.899V105.399ZM49.403 153.531L49.7566 153.884L49.403 153.531ZM1.77148 269.731C1.77148 268.538 1.78449 267.346 1.81044 266.156L0.810674 266.134C0.784574 267.332 0.771485 268.53 0.771484 269.731H1.77148ZM2.12203 259.015C2.27806 256.633 2.48586 254.259 2.74479 251.894L1.75073 251.785C1.49022 254.164 1.28115 256.553 1.12417 258.949L2.12203 259.015ZM3.67762 244.808C4.04052 242.45 4.45447 240.103 4.91882 237.769L3.93804 237.573C3.47085 239.922 3.05437 242.283 2.68926 244.655L3.67762 244.808ZM6.46613 230.79C7.03297 228.474 7.64993 226.172 8.31635 223.886L7.35631 223.606C6.68582 225.906 6.06509 228.222 5.49479 230.552L6.46613 230.79ZM10.4659 217.069C11.2321 214.812 12.0472 212.572 12.9107 210.352L11.9787 209.99C11.11 212.223 10.2898 214.477 9.519 216.747L10.4659 217.069ZM15.6461 203.748C16.6056 201.568 17.6127 199.408 18.6668 197.27L17.7699 196.828C16.7094 198.978 15.6961 201.152 14.7308 203.345L15.6461 203.748ZM21.9671 190.93C23.1124 188.842 24.3039 186.778 25.5409 184.739L24.6859 184.221C23.4414 186.272 22.2427 188.348 21.0904 190.449L21.9671 190.93ZM29.3814 178.711C30.7037 176.732 32.0705 174.779 33.4811 172.856L32.6747 172.264C31.2554 174.2 29.8803 176.164 28.55 178.155L29.3814 178.711ZM37.8323 167.185C39.3214 165.33 40.8531 163.504 42.427 161.71L41.6752 161.05C40.0917 162.856 38.5506 164.693 37.0524 166.559L37.8323 167.185ZM47.2565 156.44C48.0797 155.58 48.913 154.728 49.7566 153.884L49.0495 153.177C48.2008 154.026 47.3623 154.883 46.5342 155.748L47.2565 156.44ZM49.7566 153.884C50.6001 153.041 51.4518 152.208 52.3117 151.384L51.6201 150.662C50.7551 151.49 49.8981 152.329 49.0495 153.177L49.7566 153.884ZM57.5819 146.555C59.3764 144.981 61.202 143.449 63.0573 141.96L62.4313 141.18C60.5648 142.678 58.728 144.22 56.9225 145.803L57.5819 146.555ZM68.7277 137.609C70.6515 136.198 72.6037 134.832 74.5827 133.509L74.0271 132.678C72.0361 134.008 70.072 135.383 68.1364 136.803L68.7277 137.609ZM80.6115 129.669C82.6501 128.432 84.7141 127.24 86.8019 126.095L86.3209 125.218C84.2204 126.371 82.1438 127.569 80.0927 128.814L80.6115 129.669ZM93.1421 122.795C95.2797 121.741 97.4397 120.733 99.6203 119.774L99.2175 118.859C97.0236 119.824 94.8505 120.837 92.6998 121.898L93.1421 122.795ZM106.224 117.039C108.444 116.175 110.684 115.36 112.941 114.594L112.619 113.647C110.349 114.418 108.096 115.238 105.862 116.107L106.224 117.039ZM119.758 112.444C122.044 111.778 124.346 111.161 126.662 110.594L126.424 109.623C124.094 110.193 121.778 110.814 119.478 111.484L119.758 112.444ZM133.641 109.047C135.975 108.582 138.322 108.168 140.68 107.806L140.528 106.817C138.155 107.182 135.794 107.599 133.446 108.066L133.641 109.047ZM147.766 106.873C150.131 106.614 152.505 106.406 154.887 106.25L154.821 105.252C152.425 105.409 150.036 105.618 147.657 105.879L147.766 106.873ZM162.028 105.938C163.218 105.912 164.41 105.899 165.603 105.899V104.899C164.403 104.899 163.204 104.913 162.006 104.939L162.028 105.938ZM165.603 105.899C166.796 105.899 167.987 105.912 169.177 105.938L169.199 104.939C168.002 104.913 166.803 104.899 165.603 104.899V105.899ZM176.319 106.25C178.701 106.406 181.075 106.614 183.439 106.873L183.548 105.879C181.169 105.618 178.781 105.409 176.384 105.252L176.319 106.25ZM190.526 107.806C192.884 108.168 195.231 108.582 197.565 109.047L197.76 108.066C195.411 107.599 193.05 107.182 190.678 106.817L190.526 107.806ZM204.544 110.594C206.86 111.161 209.162 111.778 211.448 112.444L211.728 111.484C209.428 110.814 207.112 110.193 204.781 109.623L204.544 110.594ZM218.265 114.594C220.522 115.36 222.761 116.175 224.981 117.039L225.344 116.107C223.11 115.238 220.857 114.418 218.586 113.647L218.265 114.594ZM231.585 119.774C233.766 120.733 235.926 121.741 238.063 122.795L238.506 121.898C236.355 120.837 234.182 119.824 231.988 118.859L231.585 119.774ZM244.404 126.095C246.491 127.24 248.555 128.432 250.594 129.669L251.113 128.814C249.062 127.569 246.985 126.371 244.885 125.218L244.404 126.095ZM256.623 133.509C258.602 134.832 260.554 136.198 262.478 137.609L263.069 136.803C261.134 135.383 259.169 134.008 257.178 132.678L256.623 133.509ZM268.148 141.96C270.003 143.449 271.829 144.981 273.624 146.555L274.283 145.803C272.478 144.22 270.641 142.678 268.774 141.18L268.148 141.96ZM278.894 151.384C279.754 152.208 280.605 153.041 281.449 153.884L282.156 153.177C281.307 152.329 280.45 151.49 279.585 150.662L278.894 151.384ZM281.449 153.884C282.292 154.728 283.126 155.58 283.949 156.44L284.671 155.748C283.843 154.883 283.005 154.026 282.156 153.177L281.449 153.884ZM288.779 161.71C290.352 163.504 291.884 165.33 293.373 167.185L294.153 166.559C292.655 164.693 291.114 162.856 289.53 161.05L288.779 161.71ZM297.724 172.856C299.135 174.779 300.502 176.732 301.824 178.711L302.656 178.155C301.325 176.164 299.95 174.2 298.531 172.264L297.724 172.856ZM305.665 184.739C306.902 186.778 308.093 188.842 309.238 190.93L310.115 190.449C308.963 188.348 307.764 186.272 306.52 184.221L305.665 184.739ZM312.539 197.27C313.593 199.408 314.6 201.568 315.559 203.748L316.475 203.345C315.509 201.152 314.496 198.978 313.436 196.828L312.539 197.27ZM318.295 210.352C319.158 212.572 319.973 214.812 320.74 217.069L321.686 216.747C320.916 214.477 320.096 212.223 319.227 209.99L318.295 210.352ZM322.889 223.886C323.556 226.172 324.173 228.474 324.739 230.79L325.711 230.552C325.14 228.222 324.52 225.906 323.849 223.606L322.889 223.886ZM326.287 237.769C326.751 240.103 327.165 242.45 327.528 244.808L328.516 244.655C328.151 242.283 327.735 239.922 327.267 237.573L326.287 237.769ZM328.461 251.894C328.72 254.259 328.927 256.633 329.083 259.015L330.081 258.949C329.924 256.553 329.715 254.164 329.455 251.785L328.461 251.894Z" fill="#515151"/>
<line x1="329" y1="274.76" y2="274.76" stroke="#767676"/>
<line x1="1.15234" y1="-2.18557e-08" x2="1.15236" y2="274.731" stroke="url(#paint0_linear_4380_11943)"/>
<circle cx="329.935" cy="274.731" r="5.31799" fill="#E03028"/>
<defs>
<linearGradient id="paint0_linear_4380_11943" x1="0.652344" y1="0" x2="0.652322" y2="274.731" gradientUnits="userSpaceOnUse">
<stop stop-color="#898989"/>
<stop offset="1" stop-color="#898989" stop-opacity="0"/>
</linearGradient>
</defs>
</svg>
