<svg width="168" height="167" viewBox="0 0 168 167" fill="none" xmlns="http://www.w3.org/2000/svg">
<path d="M64.6863 124.341C64.6863 133.947 56.8988 141.735 47.2925 141.735C37.6862 141.735 29.8987 133.947 29.8987 124.341C29.8987 114.734 37.6862 106.947 47.2925 106.947C56.8988 106.947 64.6863 114.734 64.6863 124.341Z" stroke="#E03028" stroke-width="2" stroke-linecap="round" stroke-linejoin="round"/>
<path d="M84.9803 71.8695H51.6417C49.2402 71.8695 47.2932 73.8165 47.2932 76.218V106.947" stroke="#E03028" stroke-width="2" stroke-linecap="round" stroke-linejoin="round"/>
<path d="M47.2932 141.735H95.1261C97.5276 141.735 99.4746 139.788 99.4746 137.386V86.3647" stroke="#E03028" stroke-width="2" stroke-linecap="round" stroke-linejoin="round"/>
<path d="M84.979 71.8695V81.4747C84.979 84.1752 87.1681 86.3643 89.8686 86.3643H99.4738" stroke="#E03028" stroke-width="2" stroke-linecap="round" stroke-linejoin="round"/>
<path d="M58.7952 111.295H89.3268" stroke="#E03028" stroke-width="2" stroke-linecap="round" stroke-linejoin="round"/>
<path d="M57.4397 98.2501H89.3283" stroke="#E03028" stroke-width="2" stroke-linecap="round" stroke-linejoin="round"/>
<path d="M64.6858 124.341H89.327" stroke="#E03028" stroke-width="2" stroke-linecap="round" stroke-linejoin="round"/>
<path d="M47.2932 124.341V115.644" stroke="#E03028" stroke-width="2" stroke-linecap="round" stroke-linejoin="round"/>
<path d="M47.2932 124.341H53.0911" stroke="#E03028" stroke-width="2" stroke-linecap="round" stroke-linejoin="round"/>
<path d="M119.669 52.4061H134.919C136.842 52.4061 138.417 53.9816 138.417 55.9044C138.417 57.8303 136.842 59.4026 134.919 59.4026C136.842 59.4026 138.417 60.9781 138.417 62.9009C138.417 64.8268 136.842 66.3991 134.919 66.3991C136.842 66.3991 138.417 67.9746 138.417 69.8973C138.417 71.8233 136.842 73.3989 134.919 73.3989H132.257C134.18 73.3989 135.755 74.9712 135.755 76.8971C135.755 78.8199 134.18 80.3954 132.257 80.3954H116.434C112.769 80.3954 106.29 78.5691 103.467 76.1833" stroke="#E03028" stroke-width="2" stroke-linecap="round" stroke-linejoin="round"/>
<path d="M103.467 55.9269C110.161 51.657 112.21 46.567 113.496 38.4451C113.901 35.8728 114.656 33.4228 118.325 35.2555C120.733 36.458 122.82 40.5158 121.637 44.9787L119.669 52.4061" stroke="#E03028" stroke-width="2" stroke-linecap="round" stroke-linejoin="round"/>
<path d="M134.919 59.4027H130.15" stroke="#E03028" stroke-width="2" stroke-linecap="round" stroke-linejoin="round"/>
<path d="M134.919 66.3992H130.15" stroke="#E03028" stroke-width="2" stroke-linecap="round" stroke-linejoin="round"/>
<path d="M132.256 73.399H130.15" stroke="#E03028" stroke-width="2" stroke-linecap="round" stroke-linejoin="round"/>
<path d="M101.455 79.4792H93.7863C92.6802 79.4792 91.7734 78.5725 91.7734 77.4664V54.6441C91.7734 53.538 92.6802 52.6312 93.7863 52.6312H101.455C102.561 52.6312 103.468 53.538 103.468 54.6441V77.4665C103.468 78.5726 102.561 79.4792 101.455 79.4792Z" stroke="#E03028" stroke-width="2" stroke-linecap="round" stroke-linejoin="round"/>
<path d="M103.467 55.927V76.1836" stroke="#E03028" stroke-width="2" stroke-linecap="round" stroke-linejoin="round"/>
<path d="M97.8848 58.9204V58.9268" stroke="#E03028" stroke-width="2" stroke-linecap="round" stroke-linejoin="round"/>
<path d="M107.264 29.9856L105.248 28.1979M127.816 29.9856L129.833 28.1979" stroke="#E03028" stroke-width="2" stroke-linecap="round" stroke-linejoin="round"/>
<path d="M117.541 27.2815V24.587" stroke="#E03028" stroke-width="2" stroke-linecap="round" stroke-linejoin="round"/>
<path d="M100.895 38.011L103.589 38.1235" stroke="#E03028" stroke-width="2" stroke-linecap="round" stroke-linejoin="round"/>
<path d="M134.187 38.011L131.492 38.1235" stroke="#E03028" stroke-width="2" stroke-linecap="round" stroke-linejoin="round"/>
</svg>
