<svg width="72" height="73" viewBox="0 0 72 73" fill="none" xmlns="http://www.w3.org/2000/svg">
<path d="M21.2158 36.3499L14.1118 29.2459" stroke="#E03028" stroke-width="1.5" stroke-miterlimit="13.3333" stroke-linecap="round" stroke-linejoin="round"/>
<path d="M23.376 33.95L16.656 27.23" stroke="#E03028" stroke-width="1.5" stroke-miterlimit="13.3333" stroke-linecap="round" stroke-linejoin="round"/>
<path d="M29.5682 21.0855C29.5682 21.1815 29.5682 21.2775 29.6642 21.3735C29.8562 21.8535 30.2402 22.3335 30.7202 22.5255C31.7762 23.0055 33.0242 22.5255 33.5042 21.4695C33.8882 20.7015 34.7522 20.4135 35.5202 20.7015C36.2882 21.0855 36.5762 21.9495 36.2882 22.7175C35.4242 24.6375 33.6002 25.6935 31.5842 25.6935C30.9122 25.6935 30.1442 25.5015 29.4722 25.2135C28.2242 24.6375 27.2642 23.6775 26.7842 22.3335C26.6882 22.0455 26.5922 21.6615 26.5922 21.1815" stroke="#E03028" stroke-width="1.5" stroke-miterlimit="13.3333" stroke-linecap="round" stroke-linejoin="round"/>
<path d="M26.6113 15.7771C26.7073 15.2011 26.8033 14.7211 26.8993 14.4331C27.4753 13.1851 28.4353 12.2251 29.6833 11.7451C32.2753 10.6891 35.2513 12.0331 36.3073 14.6251C36.5953 15.3931 36.2113 16.2571 35.4433 16.6411C34.6753 16.9291 33.8113 16.5451 33.4273 15.7771C33.0433 14.7211 31.7953 14.2411 30.7393 14.6251C30.2593 14.8171 29.8753 15.2011 29.5873 15.6811C29.5873 15.7771 29.4913 15.8731 29.4913 16.1611" stroke="#E03028" stroke-width="1.5" stroke-miterlimit="13.3333" stroke-linecap="round" stroke-linejoin="round"/>
<path d="M26.0832 21.0859L16.9632 26.3659" stroke="#E03028" stroke-width="1.5" stroke-miterlimit="13.3333" stroke-linecap="round" stroke-linejoin="round"/>
<path d="M19.6762 20.9377L15.3562 23.4337" stroke="#E03028" stroke-width="1.5" stroke-miterlimit="13.3333" stroke-linecap="round" stroke-linejoin="round"/>
<path d="M24.8546 17.9655L22.5506 19.3095" stroke="#E03028" stroke-width="1.5" stroke-miterlimit="13.3333" stroke-linecap="round" stroke-linejoin="round"/>
<path d="M21.1586 36.8778C21.1586 35.1498 22.5026 33.8058 24.2306 33.8058C25.9586 33.8058 27.3026 35.1498 27.3026 36.8778" stroke="#E03028" stroke-width="1.5" stroke-miterlimit="13.3333" stroke-linecap="round" stroke-linejoin="round"/>
<path d="M30.8258 18.6285C30.8258 20.3565 29.4818 21.7005 27.7538 21.7005C27.0818 21.7005 26.5058 21.5085 25.9298 21.1245C25.1618 20.5485 24.6818 19.6845 24.6818 18.6285C24.6818 18.4365 24.6818 18.2445 24.7778 18.0525C25.0658 16.6125 26.3138 15.6525 27.7538 15.6525C29.4818 15.5565 30.8258 16.9005 30.8258 18.6285Z" stroke="#E03028" stroke-width="1.5" stroke-miterlimit="13.3333" stroke-linecap="round" stroke-linejoin="round"/>
<path d="M16.896 26.2142C16.896 27.9422 15.552 29.2862 13.824 29.2862C12.096 29.2862 10.752 27.9422 10.752 26.2142C10.752 24.4862 12.096 23.1422 13.824 23.1422C15.552 23.1422 16.896 24.4862 16.896 26.2142Z" stroke="#E03028" stroke-width="1.5" stroke-miterlimit="13.3333" stroke-linecap="round" stroke-linejoin="round"/>
<path d="M47.8071 30.4388C48.4791 31.3988 48.8631 32.5508 48.8631 33.8948" stroke="#E03028" stroke-width="1.5" stroke-miterlimit="13.3333" stroke-linecap="round" stroke-linejoin="round"/>
<path d="M36.96 33.8059C36.96 30.5419 39.648 27.8539 42.912 27.8539C43.776 27.8539 44.64 28.0459 45.408 28.3339" stroke="#E03028" stroke-width="1.5" stroke-miterlimit="13.3333" stroke-linecap="round" stroke-linejoin="round"/>
<path d="M18.24 46.5925V38.3365C18.24 37.5685 18.912 36.8965 19.68 36.8965H52.32C53.088 36.8965 53.76 37.5685 53.76 38.3365V46.5925" stroke="#E03028" stroke-width="1.5" stroke-miterlimit="13.3333" stroke-linecap="round" stroke-linejoin="round"/>
<path d="M19.7541 61.7419H18.4101C14.1861 61.7419 10.826 58.3818 10.826 54.1578C10.826 49.9338 14.1861 46.5738 18.4101 46.5738H53.6421C57.8661 46.5738 61.2261 49.9338 61.2261 54.1578C61.2261 58.3818 57.8661 61.7419 53.6421 61.7419H23.1141" stroke="#E03028" stroke-width="1.5" stroke-miterlimit="13.3333" stroke-linecap="round" stroke-linejoin="round"/>
<path d="M18.432 58.7659C15.936 58.7659 13.824 56.7499 13.824 54.1579C13.824 51.5659 15.84 49.5499 18.432 49.5499H53.664C56.16 49.5499 58.272 51.5659 58.272 54.1579C58.272 56.7499 56.256 58.7659 53.664 58.7659H18.432Z" stroke="#E03028" stroke-width="1.5" stroke-miterlimit="13.3333" stroke-linecap="round" stroke-linejoin="round"/>
<path d="M22.944 54.1578C22.944 56.6538 20.928 58.7658 18.336 58.7658C15.744 58.7658 13.728 56.7498 13.728 54.1578C13.728 51.5658 15.744 49.5498 18.336 49.5498C20.928 49.5498 22.944 51.6618 22.944 54.1578Z" stroke="#E03028" stroke-width="1.5" stroke-miterlimit="13.3333" stroke-linecap="round" stroke-linejoin="round"/>
<path d="M58.176 54.1578C58.176 56.6538 56.16 58.7658 53.568 58.7658C51.072 58.7658 48.96 56.7498 48.96 54.1578C48.96 51.5658 50.976 49.5498 53.568 49.5498C56.16 49.6458 58.176 51.6618 58.176 54.1578Z" stroke="#E03028" stroke-width="1.5" stroke-miterlimit="13.3333" stroke-linecap="round" stroke-linejoin="round"/>
<path d="M37.632 54.1578C37.632 55.0218 36.864 55.7899 36 55.7899C35.136 55.7899 34.368 55.0218 34.368 54.1578C34.368 53.2938 35.136 52.5259 36 52.5259C36.864 52.5259 37.632 53.2938 37.632 54.1578Z" stroke="#E03028" stroke-width="1.5" stroke-miterlimit="13.3333" stroke-linecap="round" stroke-linejoin="round"/>
<path d="M50.496 36.8779H35.328V33.8059H50.496V36.8779Z" stroke="#E03028" stroke-width="1.5" stroke-miterlimit="13.3333" stroke-linecap="round" stroke-linejoin="round"/>
<path d="M42.048 46.5738H29.856C28.032 46.5738 26.592 45.1338 26.592 43.3098C26.592 41.4858 28.032 40.0458 29.856 40.0458H42.048C43.872 40.0458 45.312 41.4858 45.312 43.3098C45.312 45.1338 43.872 46.5738 42.048 46.5738Z" stroke="#E03028" stroke-width="1.5" stroke-miterlimit="13.3333" stroke-linecap="round" stroke-linejoin="round"/>
<path d="M20.064 54.1578C20.064 55.0218 19.296 55.7899 18.432 55.7899C17.568 55.7899 16.8 55.0218 16.8 54.1578C16.8 53.2938 17.568 52.5259 18.432 52.5259C19.296 52.5259 20.064 53.2938 20.064 54.1578Z" stroke="#E03028" stroke-width="1.5" stroke-miterlimit="13.3333" stroke-linecap="round" stroke-linejoin="round"/>
<path d="M55.392 54.1578C55.392 55.0218 54.624 55.7899 53.76 55.7899C52.896 55.7899 52.128 55.0218 52.128 54.1578C52.128 53.2938 52.896 52.5259 53.76 52.5259C54.624 52.5259 55.392 53.2938 55.392 54.1578Z" stroke="#E03028" stroke-width="1.5" stroke-miterlimit="13.3333" stroke-linecap="round" stroke-linejoin="round"/>
<path d="M37.92 46.5739H34.56V40.0459H37.92V46.5739Z" stroke="#E03028" stroke-width="1.5" stroke-miterlimit="13.3333" stroke-linecap="round" stroke-linejoin="round"/>
</svg>
