<svg width="95" height="94" viewBox="0 0 95 94" fill="none" xmlns="http://www.w3.org/2000/svg">
<path d="M20.3921 17.8606L20.3218 33.4856C20.3205 33.7758 20.2384 34.0599 20.0847 34.3061C19.9309 34.5523 19.7117 34.7508 19.4514 34.8794C19.1912 35.008 18.9003 35.0615 18.6114 35.034C18.3225 35.0066 18.0469 34.8991 17.8156 34.7238L16.3406 33.6061C14.0759 38.912 13.1949 44.7059 13.7802 50.4451C14.3655 56.1843 16.3978 61.6811 19.6868 66.4207L17.121 68.2043C13.3288 62.7412 11.0702 56.3614 10.5804 49.7291C10.0906 43.0969 11.3874 36.4546 14.3359 30.4936C14.438 30.2875 14.5844 30.1065 14.7645 29.9636C14.9447 29.8206 15.1542 29.7191 15.378 29.6665C15.6019 29.6138 15.8346 29.6112 16.0596 29.6589C16.2846 29.7065 16.4963 29.8033 16.6796 29.9422L17.2111 30.3447L17.2579 19.9299L7.24739 22.801L8.82552 23.9951C9.12439 24.2213 9.332 24.5474 9.41048 24.9139C9.48897 25.2804 9.43309 25.6629 9.25306 25.9916C8.21116 27.8956 7.31295 29.8747 6.56595 31.9125L3.63177 30.8383C4.27714 29.0777 5.02791 27.3576 5.88001 25.6873L2.86907 23.4082C2.63768 23.2331 2.45962 22.997 2.35486 22.7264C2.2501 22.4558 2.22277 22.1613 2.27594 21.876C2.32911 21.5907 2.46067 21.3259 2.65588 21.1112C2.85109 20.8965 3.10224 20.7404 3.38118 20.6604L18.3988 16.3516C18.6319 16.2847 18.8775 16.273 19.116 16.3175C19.3544 16.3619 19.5793 16.4613 19.7727 16.6077C19.9661 16.7541 20.1228 16.9436 20.2303 17.161C20.3378 17.3785 20.3932 17.618 20.3921 17.8606ZM5.73899 68.0143L8.53196 66.6107C4.52956 58.6653 3.0605 49.6834 4.32298 40.8768C4.57475 39.0966 4.93446 37.3334 5.40013 35.5969L2.38196 34.7863C1.8836 36.6457 1.49878 38.5336 1.22962 40.4397C-0.123512 49.8761 1.4504 59.5005 5.73899 68.0143ZM40.1491 33.0947C39.1548 33.5785 38.2093 34.1567 37.3257 34.8215L39.2046 37.3186C39.9277 36.7744 40.7016 36.3012 41.5154 35.9053L40.1491 33.0947ZM30.4527 50.125H33.5777V48.5625C33.5765 45.0784 34.8724 41.7187 37.2128 39.1377L34.8958 37.0412C32.0349 40.1963 30.451 44.3035 30.4527 48.5625V50.125ZM89.8277 92.3125V78.25H86.7027V90.75H71.0777V72H72.6402V68.875H69.9159C66.3707 66.9296 62.3929 65.9073 58.349 65.9024C54.305 65.8974 50.3248 66.9099 46.7747 68.8467L46.7222 68.875H35.1402C34.1801 68.8761 33.2332 69.098 32.3726 69.5237C31.5121 69.9494 30.7611 70.5673 30.1776 71.3297C29.5942 72.0922 29.1939 72.9786 29.0079 73.9205C28.822 74.8623 28.8552 75.8344 29.105 76.7613L23.0197 73.9727C23.145 73.753 23.299 73.5509 23.4775 73.3717L26.87 69.9791C27.1629 69.6863 27.3275 69.2891 27.3277 68.875V48.5625C27.3357 44.1242 28.7933 39.81 31.4786 36.2763C34.1639 32.7426 37.9301 30.1827 42.204 28.9861C42.4352 28.9221 42.6485 28.8057 42.8274 28.6459C43.0063 28.4861 43.1461 28.2873 43.2358 28.0649C43.3255 27.8424 43.3628 27.6023 43.3448 27.3631C43.3268 27.1239 43.254 26.8921 43.132 26.6856L39.4407 20.4375H55.8396L52.1482 26.6856C52.0261 26.8921 51.9533 27.1239 51.9353 27.3631C51.9173 27.6023 51.9546 27.8424 52.0443 28.0649C52.1341 28.2873 52.2738 28.4861 52.4527 28.6459C52.6316 28.8057 52.8449 28.9221 53.0761 28.9861C57.3501 30.1827 61.1163 32.7425 63.8016 36.2763C66.487 39.81 67.9446 44.1242 67.9527 48.5625V65.75H71.0777V48.5625C71.0681 43.7859 69.6039 39.1255 66.8801 35.2016C64.1563 31.2777 60.302 28.2764 55.8302 26.5973L59.923 19.6697C60.0632 19.4324 60.1381 19.1623 60.1401 18.8867C60.1422 18.6111 60.0713 18.3399 59.9347 18.1005C59.7981 17.8612 59.6006 17.6622 59.3623 17.5238C59.124 17.3854 58.8533 17.3125 58.5777 17.3125H36.7027C36.4271 17.3125 36.1564 17.3854 35.918 17.5238C35.6797 17.6622 35.4822 17.8612 35.3456 18.1005C35.209 18.3399 35.1381 18.6111 35.1402 18.8867C35.1423 19.1623 35.2172 19.4324 35.3573 19.6697L39.4501 26.5973C34.9784 28.2764 31.1241 31.2777 28.4003 35.2016C25.6764 39.1255 24.2123 43.7859 24.2027 48.5625V68.2279L21.2677 71.1627C20.8257 71.6042 20.4559 72.1124 20.1716 72.6688L14.8982 70.2535C13.3561 69.5668 11.6126 69.4834 10.012 70.0198C8.41149 70.5562 7.07031 71.6734 6.25345 73.1506C4.45657 76.4949 5.73333 80.9174 9.1386 82.6232L27.3577 91.7326C30.1796 93.1381 33.2885 93.8714 36.4409 93.875H58.5777V90.75H36.4409C33.7734 90.7467 31.1428 90.126 28.7552 88.9365L10.5368 79.8275C8.7388 78.9291 8.06184 76.3797 9.00481 74.6322C9.4385 73.847 10.1512 73.2532 11.0019 72.9685C11.8526 72.6838 12.7792 72.7289 13.5982 73.0949L31.3644 81.233C31.5686 81.3266 31.7906 81.375 32.0152 81.375H49.2027V78.25H35.1402C34.3114 78.25 33.5165 77.9208 32.9305 77.3347C32.3444 76.7487 32.0152 75.9538 32.0152 75.125C32.0152 74.2962 32.3444 73.5013 32.9305 72.9153C33.5165 72.3292 34.3114 72 35.1402 72H47.1187C47.3786 72 47.6345 71.9352 47.863 71.8113L48.2673 71.5924C51.2801 69.9484 54.65 69.0681 58.0819 69.0287C61.5137 68.9893 64.903 69.792 67.9527 71.3664V90.75H61.7027V93.875H88.2652C88.6796 93.875 89.077 93.7104 89.37 93.4174C89.663 93.1243 89.8277 92.7269 89.8277 92.3125ZM80.4527 84.5C80.4527 83.8819 80.2694 83.2777 79.926 82.7638C79.5826 82.2499 79.0946 81.8494 78.5235 81.6129C77.9525 81.3764 77.3242 81.3145 76.718 81.4351C76.1118 81.5556 75.555 81.8533 75.118 82.2903C74.6809 82.7273 74.3833 83.2842 74.2627 83.8903C74.1421 84.4965 74.204 85.1249 74.4405 85.6959C74.6771 86.2669 75.0776 86.755 75.5915 87.0984C76.1054 87.4417 76.7096 87.625 77.3277 87.625C78.1562 87.624 78.9504 87.2945 79.5363 86.7086C80.1221 86.1228 80.4517 85.3285 80.4527 84.5ZM49.2027 42.3125V48.5625C50.8603 48.5625 52.45 49.221 53.6221 50.3931C54.7942 51.5652 55.4527 53.1549 55.4527 54.8125C55.4527 56.4701 54.7942 58.0598 53.6221 59.2319C52.45 60.404 50.8603 61.0625 49.2027 61.0625V64.1875H46.0777V61.0625C44.4206 61.0606 42.832 60.4016 41.6603 59.2299C40.4886 58.0582 39.8295 56.4695 39.8277 54.8125H42.9527C42.9536 55.641 43.2832 56.4353 43.869 57.0211C44.4549 57.607 45.2492 57.9365 46.0777 57.9375V51.6875C44.4201 51.6875 42.8303 51.029 41.6582 49.8569C40.4861 48.6848 39.8277 47.0951 39.8277 45.4375C39.8277 43.7799 40.4861 42.1902 41.6582 41.0181C42.8303 39.846 44.4201 39.1875 46.0777 39.1875V36.0625H49.2027V39.1875C50.8597 39.1894 52.4483 39.8484 53.62 41.0201C54.7917 42.1918 55.4508 43.7805 55.4527 45.4375H52.3277C52.3267 44.609 51.9971 43.8147 51.4113 43.2289C50.8255 42.643 50.0312 42.3135 49.2027 42.3125ZM46.0777 42.3125C45.2489 42.3125 44.454 42.6418 43.868 43.2278C43.2819 43.8139 42.9527 44.6087 42.9527 45.4375C42.9527 46.2663 43.2819 47.0612 43.868 47.6472C44.454 48.2333 45.2489 48.5625 46.0777 48.5625V42.3125ZM49.2027 51.6875V57.9375C50.0315 57.9375 50.8263 57.6083 51.4124 57.0222C51.9984 56.4362 52.3277 55.6413 52.3277 54.8125C52.3277 53.9837 51.9984 53.1888 51.4124 52.6028C50.8263 52.0167 50.0315 51.6875 49.2027 51.6875ZM53.7595 3.68283C62.9117 4.97643 71.4194 9.13448 78.063 15.5609C84.7066 21.9874 89.145 30.3522 90.7419 39.4565L93.8202 38.9186C92.4626 31.1713 89.1777 23.8901 84.268 17.7454C79.3583 11.6007 72.9816 6.78996 65.7249 3.75613C58.4683 0.722297 50.565 -0.437111 42.7428 0.384657C34.9205 1.20642 27.4307 3.98296 20.963 8.45861C20.6311 8.68852 20.401 9.038 20.3211 9.4338C20.2412 9.82959 20.3176 10.241 20.5343 10.5817L25.7501 18.7824C25.8637 18.9611 26.0125 19.1148 26.1873 19.2342C26.3622 19.3537 26.5595 19.4363 26.7672 19.4772C26.975 19.518 27.1889 19.5162 27.3959 19.4718C27.6029 19.4275 27.7988 19.3415 27.9716 19.2192C35.0551 14.1871 43.8004 12.067 52.4019 13.2965C70.9851 15.9223 83.9683 33.1775 81.3417 51.7609C80.9232 54.7388 80.1123 57.6482 78.9302 60.4133L77.4171 59.2678C77.1858 59.0927 76.9102 58.9854 76.6214 58.9581C76.3325 58.9308 76.0417 58.9844 75.7817 59.113C75.5216 59.2416 75.3024 59.44 75.1487 59.6862C74.9951 59.9323 74.913 60.2163 74.9116 60.5065L74.8417 76.1301C74.8407 76.3727 74.8961 76.6122 75.0036 76.8296C75.1111 77.0471 75.2678 77.2365 75.4613 77.3829C75.6547 77.5293 75.8796 77.6287 76.1181 77.6731C76.3565 77.7175 76.6021 77.7058 76.8353 77.6389L91.8532 73.3313C92.1321 73.2512 92.3832 73.0951 92.5784 72.8804C92.7736 72.6657 92.9051 72.4009 92.9583 72.1157C93.0115 71.8304 92.9842 71.536 92.8794 71.2654C92.7747 70.9948 92.5967 70.7587 92.3654 70.5836L89.3878 68.3297C93.2452 60.7454 94.9797 52.259 94.4073 43.7693L91.2896 43.9817C91.495 47.0311 91.3827 50.0936 90.9542 53.1197C90.2234 58.3452 88.5499 63.3946 86.015 68.0221C85.8348 68.3508 85.7789 68.7333 85.8573 69.0998C85.9357 69.4664 86.1433 69.7925 86.4421 70.0188L87.9876 71.1889L77.9761 74.06L78.0228 63.6449L78.5917 64.0746C78.775 64.2133 78.9866 64.3099 79.2115 64.3574C79.4364 64.4049 79.669 64.4022 79.8927 64.3496C80.1164 64.2969 80.3258 64.1955 80.5058 64.0526C80.6858 63.9098 80.8322 63.7289 80.9343 63.5231C82.7007 59.9596 83.883 56.1353 84.4359 52.1967C87.3027 31.9084 73.1284 13.0692 52.839 10.2031C44.0081 8.93974 35.0181 10.9096 27.5247 15.75L23.9911 10.194C32.8079 4.51403 43.3766 2.20238 53.7595 3.68283Z" fill="#ABABAB"/>
</svg>
