<svg width="41" height="41" viewBox="0 0 41 41" fill="none" xmlns="http://www.w3.org/2000/svg">
<path d="M10.046 8.73295L10.0179 14.983C10.0173 15.0991 9.98449 15.2127 9.923 15.3112C9.86151 15.4097 9.7738 15.4891 9.66972 15.5405C9.56563 15.5919 9.44927 15.6133 9.3337 15.6023C9.21812 15.5914 9.10789 15.5484 9.01536 15.4783L8.42536 15.0312C7.5195 17.1535 7.16711 19.4711 7.40122 21.7668C7.63532 24.0625 8.44825 26.2612 9.76387 28.157L8.73755 28.8705C7.22066 26.6852 6.31723 24.1333 6.1213 21.4804C5.92537 18.8275 6.4441 16.1706 7.62348 13.7862C7.66434 13.7037 7.72288 13.6313 7.79494 13.5742C7.867 13.517 7.9508 13.4764 8.04035 13.4553C8.1299 13.4343 8.22299 13.4332 8.31299 13.4523C8.40299 13.4713 8.48767 13.51 8.56098 13.5656L8.77356 13.7266L8.79231 9.56069L4.78809 10.7091L5.41934 11.1868C5.53889 11.2773 5.62194 11.4077 5.65333 11.5543C5.68472 11.7009 5.66237 11.8539 5.59036 11.9854C5.1736 12.747 4.81432 13.5386 4.51551 14.3537L3.34184 13.924C3.59999 13.2198 3.9003 12.5318 4.24114 11.8637L3.03676 10.952C2.94421 10.882 2.87299 10.7875 2.83108 10.6793C2.78918 10.571 2.77825 10.4533 2.79951 10.3391C2.82078 10.225 2.8734 10.1191 2.95149 10.0332C3.02957 9.94732 3.13003 9.88488 3.24161 9.85287L9.24864 8.12936C9.34191 8.1026 9.44013 8.09793 9.53552 8.11571C9.63091 8.13349 9.72085 8.17324 9.79822 8.23181C9.87559 8.29037 9.93825 8.36615 9.98126 8.45313C10.0243 8.54012 10.0464 8.63592 10.046 8.73295ZM4.18473 28.7944L5.30192 28.233C3.70096 25.0548 3.11333 21.4621 3.61833 17.9394C3.71904 17.2274 3.86292 16.5221 4.04919 15.8275L2.84192 15.5033C2.64258 16.247 2.48865 17.0022 2.38098 17.7646C1.83973 21.5392 2.4693 25.3889 4.18473 28.7944ZM17.9488 14.8266C17.5511 15.0201 17.1729 15.2514 16.8194 15.5173L17.571 16.5162C17.8602 16.2985 18.1698 16.1092 18.4953 15.9508L17.9488 14.8266ZM14.0702 21.6387H15.3202V21.0137C15.3197 19.6201 15.8381 18.2762 16.7743 17.2438L15.8475 16.4052C14.7031 17.6673 14.0696 19.3101 14.0702 21.0137V21.6387ZM37.8202 38.5137V32.8887H36.5702V37.8887H30.3202V30.3887H30.9452V29.1387H29.8555C28.4374 28.3606 26.8463 27.9517 25.2287 27.9497C23.6111 27.9477 22.019 28.3527 20.599 29.1274L20.578 29.1387H15.9452C15.5612 29.1392 15.1824 29.2279 14.8382 29.3982C14.494 29.5685 14.1936 29.8157 13.9602 30.1206C13.7268 30.4256 13.5667 30.7802 13.4923 31.1569C13.4179 31.5337 13.4312 31.9225 13.5311 32.2933L11.097 31.1778C11.1471 31.0899 11.2087 31.0091 11.2801 30.9374L12.6372 29.5804C12.7543 29.4632 12.8201 29.3044 12.8202 29.1387V21.0137C12.8234 19.2384 13.4064 17.5127 14.4806 16.0993C15.5547 14.6858 17.0612 13.6618 18.7707 13.1832C18.8632 13.1576 18.9485 13.111 19.0201 13.0471C19.0917 12.9832 19.1476 12.9037 19.1835 12.8147C19.2193 12.7257 19.2343 12.6296 19.2271 12.534C19.2199 12.4383 19.1907 12.3456 19.1419 12.263L17.6654 9.76373H24.225L22.7484 12.263C22.6996 12.3456 22.6705 12.4383 22.6633 12.534C22.6561 12.6296 22.671 12.7257 22.7069 12.8147C22.7428 12.9037 22.7987 12.9832 22.8702 13.0471C22.9418 13.111 23.0271 13.1576 23.1196 13.1832C24.8292 13.6618 26.3356 14.6857 27.4098 16.0992C28.4839 17.5127 29.067 19.2384 29.0702 21.0137V27.8887H30.3202V21.0137C30.3164 19.1031 29.7307 17.2389 28.6412 15.6694C27.5516 14.0998 26.0099 12.8993 24.2212 12.2276L25.8583 9.45662C25.9144 9.36171 25.9444 9.25365 25.9452 9.14341C25.946 9.03318 25.9177 8.92468 25.863 8.82894C25.8084 8.73319 25.7294 8.65361 25.6341 8.59825C25.5387 8.54289 25.4304 8.51373 25.3202 8.51373H16.5702C16.46 8.51373 16.3517 8.54289 16.2563 8.59825C16.161 8.65361 16.082 8.73319 16.0274 8.82894C15.9727 8.92468 15.9444 9.03318 15.9452 9.14341C15.946 9.25365 15.976 9.36171 16.0321 9.45662L17.6692 12.2276C15.8805 12.8993 14.3388 14.0998 13.2492 15.6694C12.1597 17.2389 11.574 19.1031 11.5702 21.0137V28.8799L10.3962 30.0538C10.2194 30.2304 10.0715 30.4337 9.95778 30.6562L7.84841 29.6901C7.23158 29.4155 6.53418 29.3821 5.89395 29.5967C5.25373 29.8112 4.71726 30.2581 4.39051 30.849C3.67176 32.1867 4.18247 33.9557 5.54458 34.638L12.8322 38.2818C13.961 38.844 15.2045 39.1373 16.4655 39.1387H25.3202V37.8887H16.4655C15.3985 37.8874 14.3463 37.6391 13.3912 37.1633L6.10387 33.5197C5.38465 33.1604 5.11387 32.1406 5.49106 31.4416C5.66454 31.1275 5.94964 30.89 6.28991 30.7761C6.63018 30.6623 7.00081 30.6803 7.32841 30.8267L14.4349 34.0819C14.5166 34.1194 14.6054 34.1387 14.6952 34.1387H21.5702V32.8887H15.9452C15.6137 32.8887 15.2957 32.757 15.0613 32.5226C14.8269 32.2882 14.6952 31.9703 14.6952 31.6387C14.6952 31.3072 14.8269 30.9893 15.0613 30.7548C15.2957 30.5204 15.6137 30.3887 15.9452 30.3887H20.7366C20.8406 30.3887 20.9429 30.3628 21.0343 30.3133L21.1961 30.2257C22.4012 29.5681 23.7491 29.216 25.1219 29.2002C26.4946 29.1845 27.8503 29.5055 29.0702 30.1353V37.8887H26.5702V39.1387H37.1952C37.361 39.1387 37.5199 39.0729 37.6371 38.9557C37.7544 38.8385 37.8202 38.6795 37.8202 38.5137ZM34.0702 35.3887C34.0702 35.1415 33.9969 34.8998 33.8595 34.6943C33.7222 34.4887 33.527 34.3285 33.2986 34.2339C33.0701 34.1393 32.8188 34.1145 32.5763 34.1628C32.3339 34.211 32.1111 34.33 31.9363 34.5048C31.7615 34.6797 31.6425 34.9024 31.5942 35.1449C31.546 35.3873 31.5707 35.6387 31.6654 35.8671C31.76 36.0955 31.9202 36.2907 32.1257 36.4281C32.3313 36.5654 32.573 36.6387 32.8202 36.6387C33.1516 36.6383 33.4693 36.5065 33.7037 36.2722C33.938 36.0378 34.0698 35.7201 34.0702 35.3887ZM21.5702 18.5137V21.0137C22.2332 21.0137 22.8691 21.2771 23.338 21.746C23.8068 22.2148 24.0702 22.8507 24.0702 23.5137C24.0702 24.1768 23.8068 24.8127 23.338 25.2815C22.8691 25.7503 22.2332 26.0137 21.5702 26.0137V27.2637H20.3202V26.0137C19.6574 26.013 19.0219 25.7494 18.5533 25.2807C18.0846 24.812 17.8209 24.1765 17.8202 23.5137H19.0702C19.0706 23.8451 19.2024 24.1628 19.4368 24.3972C19.6711 24.6315 19.9888 24.7633 20.3202 24.7637V22.2637C19.6572 22.2637 19.0213 22.0003 18.5524 21.5315C18.0836 21.0627 17.8202 20.4268 17.8202 19.7637C17.8202 19.1007 18.0836 18.4648 18.5524 17.996C19.0213 17.5271 19.6572 17.2637 20.3202 17.2637V16.0137H21.5702V17.2637C22.233 17.2645 22.8685 17.5281 23.3371 17.9968C23.8058 18.4655 24.0695 19.1009 24.0702 19.7637H22.8202C22.8198 19.4323 22.688 19.1146 22.4537 18.8803C22.2193 18.6459 21.9016 18.5141 21.5702 18.5137ZM20.3202 18.5137C19.9887 18.5137 19.6707 18.6454 19.4363 18.8799C19.2019 19.1143 19.0702 19.4322 19.0702 19.7637C19.0702 20.0953 19.2019 20.4132 19.4363 20.6476C19.6707 20.882 19.9887 21.0137 20.3202 21.0137V18.5137ZM21.5702 22.2637V24.7637C21.9017 24.7637 22.2197 24.632 22.4541 24.3976C22.6885 24.1632 22.8202 23.8453 22.8202 23.5137C22.8202 23.1822 22.6885 22.8643 22.4541 22.6298C22.2197 22.3954 21.9017 22.2637 21.5702 22.2637ZM23.3929 3.06186C27.0538 3.5793 30.4569 5.24252 33.1143 7.8131C35.7718 10.3837 37.5471 13.7296 38.1859 17.3713L39.4172 17.1562C38.8742 14.0573 37.5602 11.1448 35.5963 8.6869C33.6325 6.22901 31.0818 4.30471 28.1791 3.09118C25.2765 1.87765 22.1151 1.41388 18.9862 1.74259C15.8573 2.0713 12.8614 3.18191 10.2743 4.97217C10.1416 5.06414 10.0496 5.20393 10.0176 5.36225C9.98562 5.52056 10.0162 5.68511 10.1029 5.82139L12.1892 9.1017C12.2346 9.17317 12.2941 9.23466 12.3641 9.28243C12.434 9.3302 12.5129 9.36325 12.596 9.37959C12.6791 9.39593 12.7647 9.3952 12.8475 9.37746C12.9303 9.35972 13.0087 9.32534 13.0778 9.27639C15.9112 7.26357 19.4093 6.41552 22.8499 6.90733C30.2832 7.95764 35.4765 14.8597 34.4258 22.2931C34.2584 23.4843 33.9341 24.648 33.4612 25.754L32.856 25.2958C32.7634 25.2258 32.6532 25.1829 32.5377 25.172C32.4221 25.161 32.3058 25.1825 32.2018 25.2339C32.0978 25.2854 32.0101 25.3647 31.9486 25.4632C31.8872 25.5616 31.8543 25.6753 31.8538 25.7913L31.8258 32.0408C31.8254 32.1378 31.8476 32.2336 31.8906 32.3206C31.9336 32.4076 31.9963 32.4833 32.0736 32.5419C32.151 32.6005 32.241 32.6402 32.3364 32.658C32.4318 32.6757 32.53 32.6711 32.6232 32.6443L38.6304 30.9212C38.742 30.8892 38.8424 30.8268 38.9205 30.7409C38.9986 30.655 39.0512 30.5491 39.0725 30.435C39.0937 30.3209 39.0828 30.2031 39.0409 30.0949C38.999 29.9867 38.9278 29.8922 38.8353 29.8222L37.6443 28.9206C39.1872 25.8869 39.881 22.4923 39.6521 19.0965L38.405 19.1814C38.4872 20.4012 38.4422 21.6262 38.2708 22.8366C37.9785 24.9268 37.3091 26.9466 36.2951 28.7976C36.2231 28.929 36.2007 29.0821 36.2321 29.2287C36.2634 29.3753 36.3464 29.5057 36.466 29.5962L37.0842 30.0643L33.0796 31.2127L33.0982 27.0467L33.3258 27.2186C33.3991 27.2741 33.4838 27.3127 33.5737 27.3317C33.6637 27.3507 33.7567 27.3496 33.8462 27.3286C33.9357 27.3075 34.0194 27.2669 34.0915 27.2098C34.1635 27.1526 34.222 27.0803 34.2629 26.998C34.9694 25.5726 35.4423 24.0429 35.6635 22.4674C36.8102 14.3521 31.1405 6.81639 23.0247 5.66998C19.4924 5.16463 15.8964 5.95258 12.899 7.88873L11.4856 5.66631C15.0123 3.39434 19.2398 2.46968 23.3929 3.06186Z" fill="#A8A8A8"/>
</svg>
