<svg width="22" height="22" viewBox="0 0 22 22" fill="none" xmlns="http://www.w3.org/2000/svg">
<path d="M20.8121 10.3517L14.3955 3.93505C14.2226 3.76808 13.991 3.67568 13.7507 3.67777C13.5103 3.67986 13.2804 3.77626 13.1105 3.94622C12.9405 4.11618 12.8441 4.34609 12.842 4.58644C12.8399 4.82678 12.9323 5.05833 13.0993 5.23122L17.9512 10.0831H1.83073C1.58761 10.0831 1.35446 10.1797 1.18255 10.3516C1.01064 10.5235 0.914063 10.7567 0.914062 10.9998C0.914063 11.2429 1.01064 11.4761 1.18255 11.648C1.35446 11.8199 1.58761 11.9165 1.83073 11.9165H17.9512L13.0993 16.7684C13.0118 16.8529 12.9419 16.9541 12.8939 17.0659C12.8458 17.1778 12.8206 17.2981 12.8195 17.4198C12.8184 17.5415 12.8416 17.6622 12.8877 17.7748C12.9338 17.8875 13.0019 17.9898 13.088 18.0759C13.174 18.162 13.2764 18.2301 13.389 18.2761C13.5017 18.3222 13.6224 18.3454 13.7441 18.3444C13.8658 18.3433 13.9861 18.318 14.0979 18.27C14.2098 18.2219 14.3109 18.1521 14.3955 18.0646L20.8121 11.6479C20.984 11.476 21.0805 11.2429 21.0805 10.9998C21.0805 10.7567 20.984 10.5236 20.8121 10.3517Z" fill="#444444"/>
</svg>
