<svg width="19" height="15" viewBox="0 0 19 15" fill="none" xmlns="http://www.w3.org/2000/svg">
<path d="M18.7003 8.12604C19.0903 7.73496 19.0894 7.1018 18.6983 6.71182L12.3254 0.356802C11.9343 -0.0331734 11.3012 -0.0322846 10.9112 0.358788C10.5212 0.74986 10.5221 1.38302 10.9132 1.773L16.578 7.42191L10.9291 13.0867C10.5391 13.4778 10.54 14.1109 10.9311 14.5009C11.3221 14.8909 11.9553 14.89 12.3453 14.4989L18.7003 8.12604ZM6.12602 7.43658L6.12602 8.43658L6.12742 8.43658L6.12602 7.43658ZM17.9908 6.41992L6.12461 6.43658L6.12742 8.43658L17.9936 8.41992L17.9908 6.41992ZM6.12602 6.43658L0.143577 6.43658L0.143577 8.43658L6.12602 8.43658L6.12602 6.43658Z" fill="white"/>
</svg>
