<svg width="142" height="138" viewBox="0 0 142 138" fill="none" xmlns="http://www.w3.org/2000/svg">
<path d="M43.6907 42.3169H71.9416" stroke="#E03028" stroke-width="2" stroke-miterlimit="10"/>
<path d="M43.6907 49.4695H58.9058" stroke="#E03028" stroke-width="2" stroke-miterlimit="10"/>
<path d="M43.6907 66.856H71.9416" stroke="#E03028" stroke-width="2" stroke-miterlimit="10"/>
<path d="M43.6907 74.0088H58.9058" stroke="#E03028" stroke-width="2" stroke-miterlimit="10"/>
<path d="M43.6907 96.8545H66.3606" stroke="#E03028" stroke-width="2" stroke-miterlimit="10"/>
<path d="M43.6907 103.988H58.9058" stroke="#E03028" stroke-width="2" stroke-miterlimit="10"/>
<path d="M85.2087 12.7272H1.98364V120.79H85.2087V12.7272Z" stroke="#E03028" stroke-width="2" stroke-miterlimit="10"/>
<path d="M78.3057 19.0033H8.89038V114.513H78.3057V19.0033Z" stroke="#E03028" stroke-width="2" stroke-miterlimit="10"/>
<path d="M25.958 10.7976H31.2741C31.8648 10.7976 32.4351 10.6027 32.8832 10.2518C33.3313 9.90098 33.6572 9.41369 33.7591 8.84842C34.2275 6.66535 35.47 4.69668 37.2828 3.27378C39.0956 1.85088 41.3565 1.0907 43.6988 1.0907C46.0412 1.0907 48.3021 1.87037 50.1149 3.27378C51.9276 4.69668 53.1701 6.66535 53.6386 8.84842C53.7608 9.39419 54.0663 9.88149 54.5144 10.2518C54.9625 10.6027 55.5328 10.7976 56.1235 10.7976H61.4396V20.5045H25.958V10.7976Z" stroke="#E03028" stroke-width="2" stroke-miterlimit="10"/>
<path d="M138.913 132.815C138.2 134.063 137.162 135.096 135.879 135.817C134.595 136.538 133.149 136.928 131.662 136.908H62.1859C60.699 136.908 59.2528 136.538 57.9696 135.817C56.6864 135.096 55.6476 134.063 54.9347 132.815C54.1811 131.529 53.7941 130.086 53.8145 128.605C53.8552 127.124 54.3033 125.701 55.1181 124.434L89.8461 70.3831C90.5793 69.2135 91.6181 68.2584 92.8606 67.5957C94.1031 66.933 95.4881 66.5822 96.9139 66.5822C98.3397 66.5822 99.7247 66.933 100.967 67.5957C102.21 68.2584 103.248 69.233 103.982 70.3831L138.71 124.434C139.524 125.681 139.973 127.124 140.013 128.585C140.054 130.067 139.667 131.509 138.913 132.796V132.815Z" fill="white" stroke="#E03028" stroke-width="2" stroke-miterlimit="10"/>
<path d="M99.4727 110.714C99.4727 111.358 99.2079 111.981 98.7395 112.43C98.271 112.878 97.6192 113.131 96.9471 113.131C96.2749 113.131 95.6231 112.878 95.1546 112.43C94.6862 111.981 94.4214 111.358 94.4214 110.714V88.8835C94.4214 88.2403 94.6862 87.6166 95.1546 87.1683C95.6231 86.7199 96.2749 86.4666 96.9471 86.4666C97.6192 86.4666 98.271 86.7199 98.7395 87.1683C99.2079 87.6166 99.4727 88.2403 99.4727 88.8835V110.714Z" fill="white" stroke="#E03028" stroke-width="2" stroke-miterlimit="10"/>
<path d="M96.9417 126.307C96.0455 126.307 95.1696 126.053 94.4364 125.585C93.7031 125.118 93.1124 124.435 92.7662 123.636C92.4199 122.837 92.3384 121.979 92.5014 121.141C92.6847 120.303 93.1124 119.523 93.7439 118.919C94.3753 118.315 95.19 117.906 96.0658 117.73C96.9417 117.555 97.8583 117.652 98.673 117.984C99.5081 118.315 100.201 118.861 100.71 119.582C101.199 120.284 101.463 121.122 101.463 121.979C101.463 123.129 100.995 124.221 100.14 125.04C99.284 125.858 98.1434 126.307 96.9417 126.307Z" fill="white" stroke="#E03028" stroke-width="2" stroke-miterlimit="10"/>
<path d="M17.6826 50.2484L21.3082 53.5815L35.4234 37.9296" stroke="#E03028" stroke-width="2" stroke-miterlimit="10"/>
<path d="M17.6826 74.2037L21.3082 77.5563L35.8104 61.651" stroke="#E03028" stroke-width="2" stroke-miterlimit="10"/>
<path d="M17.6826 103.774L21.3082 107.127L35.3012 91.3969" stroke="#E03028" stroke-width="2" stroke-miterlimit="10"/>
</svg>
