<svg width="72" height="73" viewBox="0 0 72 73" fill="none" xmlns="http://www.w3.org/2000/svg">
<path d="M33.6885 21.3655L10.293 61.8878H57.0841L33.6885 21.3655Z" stroke="#E03028" stroke-width="2" stroke-linecap="round" stroke-linejoin="round"/>
<path d="M52.7831 10.9717L46.1133 18.7585H49.7825V34.2016H55.7835V18.7585H59.4529L52.7831 10.9717Z" stroke="#E03028" stroke-width="2" stroke-linecap="round" stroke-linejoin="round"/>
<path d="M32.1704 43.5225C33.007 43.4822 34.2159 44.1252 34.4389 45.3673C34.5672 46.0818 34.2654 46.8317 33.7342 47.3265C33.203 47.8213 31.5991 47.9907 30.8867 48.1304C32.1515 49.0813 33.6144 50.3961 35.0028 51.6805" stroke="#E03028" stroke-width="2" stroke-linecap="round" stroke-linejoin="round"/>
<path d="M36.3971 43.5344L30.1895 43.5171" stroke="#E03028" stroke-width="2" stroke-linecap="round" stroke-linejoin="round"/>
<path d="M35.68 45.8536L32.0195 45.803" stroke="#E03028" stroke-width="2" stroke-linecap="round" stroke-linejoin="round"/>
<path d="M33.2931 54.8338C37.5389 54.8338 40.9808 51.3919 40.9808 47.1461C40.9808 42.9004 37.5389 39.4585 33.2931 39.4585C29.0473 39.4585 25.6055 42.9004 25.6055 47.1461C25.6055 51.3919 29.0473 54.8338 33.2931 54.8338Z" stroke="#E03028" stroke-width="2" stroke-linecap="round" stroke-linejoin="round"/>
</svg>
