<svg width="168" height="167" viewBox="0 0 168 167" fill="none" xmlns="http://www.w3.org/2000/svg">
<path d="M84.2755 131.655C98.6803 131.655 110.358 119.978 110.358 105.573C110.358 91.1684 98.6803 79.491 84.2755 79.491C69.8708 79.491 58.1935 91.1684 58.1935 105.573C58.1935 119.978 69.8708 131.655 84.2755 131.655Z" stroke="#E03028" stroke-width="2" stroke-linecap="round" stroke-linejoin="round"/>
<path d="M84.2747 90.6962L89.0902 100.453L99.858 102.018L92.0663 109.613L93.9057 120.337L84.2747 115.274L74.6437 120.337L76.483 109.613L68.6914 102.018L79.4592 100.453L84.2747 90.6962Z" stroke="#E03028" stroke-width="2" stroke-linecap="round" stroke-linejoin="round"/>
<path d="M106.188 91.4268H142.724L128.167 105.984L142.131 119.948H106.188" stroke="#E03028" stroke-width="2" stroke-linecap="round" stroke-linejoin="round"/>
<path d="M62.128 91.4268H25.5916L40.1485 105.984L26.1841 119.948H62.128" stroke="#E03028" stroke-width="2" stroke-linecap="round" stroke-linejoin="round"/>
<path d="M93.5902 44.6596C93.5902 52.5705 89.4199 60.5863 84.2755 60.5863C79.1312 60.5863 74.9608 52.5705 74.9608 44.6596C74.9608 39.5152 79.1312 35.3449 84.2755 35.3449C89.4199 35.3449 93.5902 39.5152 93.5902 44.6596Z" stroke="#E03028" stroke-width="2" stroke-linecap="round" stroke-linejoin="round"/>
<path d="M62.1274 90.6962C62.1274 90.6962 60.3824 81.4035 63.9379 71.3027C63.9379 71.3027 73.3114 69.0401 77.675 65.0806L84.2714 74.7773L90.8464 65.0806C90.8464 65.0806 96.4072 68.6021 104.341 71.3027C104.341 71.3027 107.493 81.6459 106.765 90.6962" stroke="#E03028" stroke-width="2" stroke-linecap="round" stroke-linejoin="round"/>
<path d="M129.023 58.2313C129.023 64.6988 125.614 71.2519 121.408 71.2519C117.202 71.2519 113.793 64.6988 113.793 58.2313C113.793 54.0256 117.202 50.6162 121.408 50.6162C125.614 50.6162 129.023 54.0256 129.023 58.2313Z" stroke="#E03028" stroke-width="2" stroke-linecap="round" stroke-linejoin="round"/>
<path d="M106.473 80.0434C106.473 80.0434 112.445 78.1632 116.012 74.9261L121.405 82.8536L126.78 74.9261C126.78 74.9261 132.166 78.4675 137.813 80.0129C137.813 80.0129 139.592 84.0162 139.493 91.4268" stroke="#E03028" stroke-width="2" stroke-linecap="round" stroke-linejoin="round"/>
<path d="M54.7361 58.2313C54.7361 64.6988 51.3267 71.252 47.121 71.252C42.9153 71.252 39.5059 64.6988 39.5059 58.2313C39.5059 54.0256 42.9153 50.6162 47.121 50.6162C51.3267 50.6162 54.7361 54.0256 54.7361 58.2313Z" stroke="#E03028" stroke-width="2" stroke-linecap="round" stroke-linejoin="round"/>
<path d="M29.0149 91.4268C29.0149 91.4268 28.6658 88.7803 30.495 80.0129C30.495 80.0129 35.4671 79.491 41.7256 74.9261L47.1184 82.8536L52.4937 74.9261C52.4937 74.9261 60.0795 79.1198 62.1274 79.5398" stroke="#E03028" stroke-width="2" stroke-linecap="round" stroke-linejoin="round"/>
</svg>
