<svg width="72" height="73" viewBox="0 0 72 73" fill="none" xmlns="http://www.w3.org/2000/svg">
<path d="M27.6049 54.1944C27.6049 58.3361 24.2474 61.6935 20.1058 61.6935C15.9642 61.6935 12.6067 58.3361 12.6067 54.1944C12.6067 50.0528 15.9642 46.6953 20.1058 46.6953C24.2474 46.6953 27.6049 50.0528 27.6049 54.1944Z" stroke="#E03028" stroke-width="1.8" stroke-linecap="round" stroke-linejoin="round"/>
<path d="M36.3542 31.5721H21.9806C20.9452 31.5721 20.1058 32.4115 20.1058 33.4469V46.6953" stroke="#E03028" stroke-width="1.8" stroke-linecap="round" stroke-linejoin="round"/>
<path d="M20.1058 61.6935H40.7284C41.7638 61.6935 42.6032 60.8541 42.6032 59.8188V37.8215" stroke="#E03028" stroke-width="1.8" stroke-linecap="round" stroke-linejoin="round"/>
<path d="M36.3539 31.5721V35.7133C36.3539 36.8775 37.2977 37.8213 38.462 37.8213H42.6031" stroke="#E03028" stroke-width="1.8" stroke-linecap="round" stroke-linejoin="round"/>
<path d="M25.0654 48.5701H38.2287" stroke="#E03028" stroke-width="1.8" stroke-linecap="round" stroke-linejoin="round"/>
<path d="M24.4803 42.9457H38.2287" stroke="#E03028" stroke-width="1.8" stroke-linecap="round" stroke-linejoin="round"/>
<path d="M27.6049 54.1944H38.2287" stroke="#E03028" stroke-width="1.8" stroke-linecap="round" stroke-linejoin="round"/>
<path d="M20.1058 54.1944V50.4449" stroke="#E03028" stroke-width="1.8" stroke-linecap="round" stroke-linejoin="round"/>
<path d="M20.1058 54.1944H22.6055" stroke="#E03028" stroke-width="1.8" stroke-linecap="round" stroke-linejoin="round"/>
<path d="M51.3101 23.1807H57.8851C58.7141 23.1807 59.3933 23.8599 59.3933 24.6889C59.3933 25.5193 58.7141 26.1971 57.8851 26.1971C58.7141 26.1971 59.3933 26.8764 59.3933 27.7054C59.3933 28.5357 58.7141 29.2136 57.8851 29.2136C58.7141 29.2136 59.3933 29.8928 59.3933 30.7218C59.3933 31.5522 58.7141 32.2315 57.8851 32.2315H56.7373C57.5663 32.2315 58.2455 32.9093 58.2455 33.7397C58.2455 34.5687 57.5663 35.2479 56.7373 35.2479H49.9156C48.3353 35.2479 45.542 34.4605 44.3248 33.4319" stroke="#E03028" stroke-width="1.8" stroke-linecap="round" stroke-linejoin="round"/>
<path d="M44.3248 24.6986C47.2109 22.8577 48.094 20.6633 48.6485 17.1616C48.8232 16.0526 49.1489 14.9963 50.7307 15.7864C51.769 16.3049 52.6687 18.0543 52.1585 19.9784L51.3101 23.1807" stroke="#E03028" stroke-width="1.8" stroke-linecap="round" stroke-linejoin="round"/>
<path d="M57.8851 26.1972H55.8293" stroke="#E03028" stroke-width="1.8" stroke-linecap="round" stroke-linejoin="round"/>
<path d="M57.8851 29.2136H55.8293" stroke="#E03028" stroke-width="1.8" stroke-linecap="round" stroke-linejoin="round"/>
<path d="M56.7372 32.2315H55.8293" stroke="#E03028" stroke-width="1.8" stroke-linecap="round" stroke-linejoin="round"/>
<path d="M43.4569 34.8529H40.1507C39.6738 34.8529 39.2829 34.462 39.2829 33.9851V24.1455C39.2829 23.6687 39.6738 23.2777 40.1507 23.2777H43.4569C43.9338 23.2777 44.3247 23.6687 44.3247 24.1455V33.9851C44.3247 34.462 43.9338 34.8529 43.4569 34.8529Z" stroke="#E03028" stroke-width="1.8" stroke-linecap="round" stroke-linejoin="round"/>
<path d="M44.3248 24.6986V33.432" stroke="#E03028" stroke-width="1.8" stroke-linecap="round" stroke-linejoin="round"/>
<path d="M41.9183 25.9893V25.992" stroke="#E03028" stroke-width="1.8" stroke-linecap="round" stroke-linejoin="round"/>
<path d="M45.962 13.5144L45.0928 12.7436M54.8229 13.5144L55.6921 12.7436" stroke="#E03028" stroke-width="1.8" stroke-linecap="round" stroke-linejoin="round"/>
<path d="M50.3924 12.3485V11.1868" stroke="#E03028" stroke-width="1.8" stroke-linecap="round" stroke-linejoin="round"/>
<path d="M43.2158 16.9744L44.3774 17.0229" stroke="#E03028" stroke-width="1.8" stroke-linecap="round" stroke-linejoin="round"/>
<path d="M57.569 16.9744L56.4073 17.0229" stroke="#E03028" stroke-width="1.8" stroke-linecap="round" stroke-linejoin="round"/>
</svg>
