<svg width="72" height="73" viewBox="0 0 72 73" fill="none" xmlns="http://www.w3.org/2000/svg">
<path d="M33.688 21.3654L10.2924 61.8877H57.0836L33.688 21.3654Z" stroke="#E03028" stroke-width="2" stroke-linecap="round" stroke-linejoin="round"/>
<path d="M52.783 10.9716L46.1132 18.7585H49.7825V34.2016H55.7835V18.7585H59.4528L52.783 10.9716Z" stroke="#E03028" stroke-width="2" stroke-linecap="round" stroke-linejoin="round"/>
<path d="M32.1696 43.5225C33.0063 43.4822 34.2151 44.1251 34.4382 45.3672C34.5665 46.0817 34.2647 46.8317 33.7335 47.3265C33.2023 47.8212 31.5983 47.9906 30.886 48.1304C32.1508 49.0812 33.6137 50.3961 35.002 51.6805" stroke="#E03028" stroke-width="2" stroke-linecap="round" stroke-linejoin="round"/>
<path d="M36.3971 43.5342L30.1894 43.517" stroke="#E03028" stroke-width="2" stroke-linecap="round" stroke-linejoin="round"/>
<path d="M35.6802 45.8536L32.0197 45.803" stroke="#E03028" stroke-width="2" stroke-linecap="round" stroke-linejoin="round"/>
<path d="M33.2932 54.8336C37.539 54.8336 40.9809 51.3917 40.9809 47.146C40.9809 42.9002 37.539 39.4583 33.2932 39.4583C29.0475 39.4583 25.6056 42.9002 25.6056 47.146C25.6056 51.3917 29.0475 54.8336 33.2932 54.8336Z" stroke="#E03028" stroke-width="2" stroke-linecap="round" stroke-linejoin="round"/>
</svg>
