<svg width="168" height="167" viewBox="0 0 168 167" fill="none" xmlns="http://www.w3.org/2000/svg">
<path d="M82.1382 64.8557C37.2958 68.3049 26.4902 103.141 26.4902 103.141C26.4902 103.141 39.5721 142.408 83.8741 141.726C128.176 141.043 141.825 103.268 141.825 103.268C141.825 103.268 135.323 85.935 118.783 75.1863" stroke="#E03028" stroke-width="2" stroke-linecap="round" stroke-linejoin="round"/>
<path d="M113.99 79.1715C119.194 85.692 122.304 93.9565 122.304 102.948C122.304 124.015 105.226 141.093 84.159 141.093C63.0919 141.093 46.0137 124.015 46.0137 102.948C46.0137 81.8805 61.7247 64.8022 82.7918 64.8022" stroke="#E03028" stroke-width="2" stroke-linecap="round" stroke-linejoin="round"/>
<path d="M130.159 46.2052H125.359C124.883 43.8012 123.937 41.5663 122.621 39.5996L126.017 36.2041C126.689 35.5316 126.689 34.4413 126.017 33.7688L123.378 31.13C122.706 30.4576 121.615 30.4576 120.943 31.13L117.547 34.5255C115.581 33.2097 113.346 32.2644 110.942 31.7879V26.9874C110.942 26.0364 110.171 25.2654 109.22 25.2654H105.488C104.537 25.2654 103.766 26.0364 103.766 26.9874V31.7879C101.362 32.2644 99.1271 33.2097 97.1604 34.5255L93.7649 31.13C93.0924 30.4576 92.0021 30.4576 91.3296 31.13L88.6908 33.7688C88.0184 34.4413 88.0184 35.5316 88.6908 36.2041L92.0863 39.5996C90.7707 41.5663 89.8251 43.8012 89.3487 46.2052H84.5482C83.5972 46.2052 82.8262 46.976 82.8262 47.9272V51.6589C82.8262 52.6099 83.5972 53.381 84.5482 53.381H89.3487C89.8252 55.7849 90.7707 58.0199 92.0863 59.9866L88.6908 63.382C88.0184 64.0545 88.0184 65.1448 88.6908 65.8173L91.3296 68.4561C92.0021 69.1286 93.0924 69.1286 93.7649 68.4561L97.1604 65.0606C99.1271 66.3763 101.362 67.3218 103.766 67.7982V72.5987C103.766 73.5497 104.537 74.3206 105.488 74.3206H109.22C110.171 74.3206 110.942 73.5497 110.942 72.5987V67.7982C113.346 67.3218 115.581 66.3763 117.547 65.0606L120.943 68.4561C121.615 69.1286 122.706 69.1286 123.378 68.4561L126.017 65.8173C126.689 65.1448 126.689 64.0545 126.017 63.382L122.621 59.9866C123.937 58.0199 124.883 55.7849 125.359 53.381H130.159C131.11 53.381 131.882 52.6099 131.882 51.6589V47.9272C131.882 46.976 131.11 46.2052 130.159 46.2052Z" stroke="#E03028" stroke-width="2" stroke-linecap="round" stroke-linejoin="round"/>
<path d="M104.111 49.9189L106.189 51.9967L110.596 47.5896" stroke="#E03028" stroke-width="2" stroke-linecap="round" stroke-linejoin="round"/>
<path d="M117.031 52.7393C115.77 56.8867 111.915 59.9045 107.355 59.9045C101.771 59.9045 97.2441 55.3776 97.2441 49.7932C97.2441 44.209 101.771 39.6819 107.355 39.6819C111.88 39.6819 115.71 42.6533 117.001 46.7509" stroke="#E03028" stroke-width="2" stroke-linecap="round" stroke-linejoin="round"/>
<path d="M83.8713 114.489C90.131 114.489 95.2055 109.415 95.2055 103.155C95.2055 96.8955 90.131 91.821 83.8713 91.821C77.6116 91.821 72.5371 96.8955 72.5371 103.155C72.5371 109.415 77.6116 114.489 83.8713 114.489Z" stroke="#E03028" stroke-width="2" stroke-linecap="round" stroke-linejoin="round"/>
<path d="M61.9355 97.7497C63.9108 89.7068 70.1939 83.357 78.1988 81.2864" stroke="#E03028" stroke-width="2" stroke-linecap="round" stroke-linejoin="round"/>
<path d="M105.91 97.7497C103.935 89.7068 97.6514 83.357 89.6465 81.2864" stroke="#E03028" stroke-width="2" stroke-linecap="round" stroke-linejoin="round"/>
<path d="M61.9355 108.453C63.9108 116.496 70.1939 122.845 78.1988 124.916" stroke="#E03028" stroke-width="2" stroke-linecap="round" stroke-linejoin="round"/>
<path d="M105.91 108.453C103.935 116.496 97.6514 122.845 89.6465 124.916" stroke="#E03028" stroke-width="2" stroke-linecap="round" stroke-linejoin="round"/>
<path d="M83.8711 77.7881V83.5037" stroke="#E03028" stroke-width="2" stroke-linecap="round" stroke-linejoin="round"/>
<path d="M83.8711 77.7881V83.5037" stroke="#E03028" stroke-width="2" stroke-linecap="round" stroke-linejoin="round"/>
<path d="M83.8711 77.7881V83.5037" stroke="#E03028" stroke-width="2" stroke-linecap="round" stroke-linejoin="round"/>
<path d="M83.8711 77.7881V83.5037" stroke="#E03028" stroke-width="2" stroke-linecap="round" stroke-linejoin="round"/>
<path d="M83.8711 77.7881V83.5037" stroke="#E03028" stroke-width="2" stroke-linecap="round" stroke-linejoin="round"/>
<path d="M83.8711 122.857V128.573" stroke="#E03028" stroke-width="2" stroke-linecap="round" stroke-linejoin="round"/>
<path d="M109.262 103.18H103.547" stroke="#E03028" stroke-width="2" stroke-linecap="round" stroke-linejoin="round"/>
<path d="M64.1941 103.18H58.4785" stroke="#E03028" stroke-width="2" stroke-linecap="round" stroke-linejoin="round"/>
</svg>
